<svg xmlns="http://www.w3.org/2000/svg" width="1424" height="16" viewBox="0 0 1424 16"><g><g><g><g><g><path fill="#fec50c" d="M7.675.255C2.605.255 0 4.875 0 8.505 0 13.395 2.88 16 6.652 16c2.138 0 3.48-.398 5.526-1.398 0 0 16.53-8.068 22.922-11.21.798-.39 1.706-.517 3.036-.517 2.055 0 3.735 2.023 3.786 4.145.048 1.934-1.776 4.04-3.854 4.04-2.524 0-3.65-1.328-3.65-2.693 0-1.68.68-2.35 1.842-2.35.81 0 1.16.398 1.16.968 0 1.44-1.91 1.036-1.91 1.036.154.716.874 1.304 1.774.967.118.544.405 1.034.818 1.4.369-.387.654-.83.75-1.4 1.098.338 1.634-.113 1.86-1.088-.422.197-.81.204-1.177.138.43-1.534-.254-3.885-2.865-3.885-2.593 0-4.776 1.826-4.23 5.25-.384-.814-1.169-1.229-2.047-1.313a4.86 4.86 0 0 1 .273 1.313c-.695-.4-1.295-.956-2.66-.932.284.634.81 1.224.477 2.037-2.475-1.277-5.88.292-6.686 4.283 1.687-1.46 3.508-2.176 5.322-2.176 5.876 0 6.864 1.658 10.95 1.658 1.709 0 3.554-.892 4.809-2.66h-.068c.308 1.169.875 1.917 1.645 2.348.746-2.67.732-6.55-.076-8.633-.273-2.395-2.083-4.067-3.002-4.56-.918-.492-4.24-1.45-7.231 0a6608.708 6608.708 0 0 1-23.81 11.398c-1.041.495-2.146.795-3.342.795-3.01 0-4.06-2.798-4.06-4.387 0-1.9 1.426-3.834 3.207-3.834 1.128 0 1.808.622 1.808 1.52 0 2.147-1.8 2.017-2.934 1.589.592 1.336 1.649 2.113 2.763 1.9.102.756.456 1.476 1.194 2.14.65-.522 1.142-1.16 1.16-2.14 1.728.428 2.46-.747 2.865-1.9-1.269.365-2.729.604-2.729-1.589 0-1.6-.273-2.858-1.296-3.592 1.364-.043 6.754-.173 6.754-.173 2.025-.092 1.967 2.752 1.364 4.56 2.333-.683 3.594-2.082 3.275-5.32.324.786 1.052 1.624 2.456 1.624 1.899 0 4.003-1.565 4.625-2.591L7.675.254z"/></g></g></g><g><g><g><path fill="#fec50c" d="M719.675.255c-5.07 0-7.675 4.62-7.675 8.25 0 4.89 2.88 7.495 6.652 7.495 2.138 0 3.48-.398 5.526-1.398 0 0 16.53-8.068 22.922-11.21.798-.39 1.706-.517 3.036-.517 2.055 0 3.735 2.023 3.786 4.145.048 1.934-1.776 4.04-3.854 4.04-2.524 0-3.65-1.328-3.65-2.693 0-1.68.68-2.35 1.842-2.35.81 0 1.16.398 1.16.968 0 1.44-1.91 1.036-1.91 1.036.154.716.874 1.304 1.774.967.118.544.405 1.034.818 1.4.369-.387.654-.83.75-1.4 1.098.338 1.634-.113 1.86-1.088-.422.197-.81.204-1.177.138.43-1.534-.254-3.885-2.865-3.885-2.593 0-4.776 1.826-4.23 5.25-.384-.814-1.169-1.229-2.047-1.313a4.86 4.86 0 0 1 .273 1.313c-.696-.4-1.295-.956-2.66-.932.284.634.81 1.224.477 2.037-2.475-1.277-5.88.292-6.686 4.283 1.687-1.46 3.508-2.176 5.321-2.176 5.877 0 6.865 1.658 10.95 1.658 1.71 0 3.555-.892 4.81-2.66h-.068c.308 1.169.875 1.917 1.645 2.348.746-2.67.732-6.55-.076-8.633-.273-2.395-2.083-4.067-3.002-4.56-.918-.492-4.24-1.45-7.231 0a6608.708 6608.708 0 0 1-23.81 11.398c-1.041.495-2.146.795-3.342.795-3.01 0-4.06-2.798-4.06-4.387 0-1.9 1.426-3.834 3.207-3.834 1.128 0 1.808.622 1.808 1.52 0 2.147-1.8 2.017-2.934 1.589.592 1.336 1.649 2.113 2.763 1.9.102.756.456 1.476 1.194 2.14.65-.522 1.142-1.16 1.16-2.14 1.728.428 2.46-.747 2.865-1.9-1.269.365-2.729.604-2.729-1.589 0-1.6-.273-2.858-1.296-3.592 1.364-.043 6.754-.173 6.754-.173 2.025-.092 1.967 2.752 1.364 4.56 2.333-.683 3.594-2.082 3.275-5.32.324.786 1.052 1.624 2.456 1.624 1.899 0 4.003-1.565 4.625-2.591L719.675.254z"/></g></g></g><g><g><g><path fill="#fec50c" d="M363.675.255c-5.07 0-7.675 4.62-7.675 8.25 0 4.89 2.88 7.495 6.652 7.495 2.138 0 3.48-.398 5.526-1.398 0 0 16.53-8.068 22.922-11.21.798-.39 1.706-.517 3.036-.517 2.055 0 3.735 2.023 3.786 4.145.048 1.934-1.776 4.04-3.854 4.04-2.524 0-3.65-1.328-3.65-2.693 0-1.68.68-2.35 1.842-2.35.81 0 1.16.398 1.16.968 0 1.44-1.91 1.036-1.91 1.036.154.716.874 1.304 1.774.967.118.544.405 1.034.818 1.4.369-.387.654-.83.75-1.4 1.098.338 1.634-.113 1.86-1.088-.422.197-.81.204-1.177.138.43-1.534-.254-3.885-2.865-3.885-2.593 0-4.776 1.826-4.23 5.25-.384-.814-1.169-1.229-2.047-1.313a4.86 4.86 0 0 1 .273 1.313c-.695-.4-1.295-.956-2.66-.932.284.634.81 1.224.477 2.037-2.475-1.277-5.88.292-6.686 4.283 1.687-1.46 3.508-2.176 5.322-2.176 5.876 0 6.864 1.658 10.95 1.658 1.709 0 3.554-.892 4.809-2.66h-.068c.308 1.169.875 1.917 1.645 2.348.746-2.67.732-6.55-.076-8.633-.273-2.395-2.083-4.067-3.002-4.56-.918-.492-4.24-1.45-7.231 0a6608.708 6608.708 0 0 1-23.81 11.398c-1.041.495-2.146.795-3.342.795-3.01 0-4.06-2.798-4.06-4.387 0-1.9 1.426-3.834 3.207-3.834 1.128 0 1.808.622 1.808 1.52 0 2.147-1.8 2.017-2.934 1.589.592 1.336 1.649 2.113 2.763 1.9.102.756.456 1.476 1.194 2.14.65-.522 1.142-1.16 1.16-2.14 1.728.428 2.46-.747 2.865-1.9-1.269.365-2.729.604-2.729-1.589 0-1.6-.273-2.858-1.296-3.592 1.364-.043 6.754-.173 6.754-.173 2.025-.092 1.967 2.752 1.364 4.56 2.333-.683 3.594-2.082 3.275-5.32.324.786 1.052 1.624 2.456 1.624 1.899 0 4.003-1.565 4.625-2.591L363.675.254z"/></g></g></g><g><g><g><path fill="#fec50c" d="M1075.675.255c-5.07 0-7.675 4.62-7.675 8.25 0 4.89 2.88 7.495 6.652 7.495 2.138 0 3.48-.398 5.526-1.398 0 0 16.53-8.068 22.922-11.21.798-.39 1.706-.517 3.036-.517 2.055 0 3.735 2.023 3.786 4.145.048 1.934-1.776 4.04-3.854 4.04-2.524 0-3.65-1.328-3.65-2.693 0-1.68.68-2.35 1.842-2.35.81 0 1.16.398 1.16.968 0 1.44-1.91 1.036-1.91 1.036.154.716.874 1.304 1.774.967.118.544.405 1.034.818 1.4.369-.387.654-.83.75-1.4 1.098.338 1.634-.113 1.86-1.088-.422.197-.81.204-1.177.138.43-1.534-.254-3.885-2.865-3.885-2.593 0-4.776 1.826-4.23 5.25-.384-.814-1.169-1.229-2.047-1.313a4.86 4.86 0 0 1 .273 1.313c-.696-.4-1.295-.956-2.66-.932.284.634.81 1.224.477 2.037-2.475-1.277-5.88.292-6.686 4.283 1.687-1.46 3.508-2.176 5.321-2.176 5.877 0 6.865 1.658 10.95 1.658 1.71 0 3.555-.892 4.81-2.66h-.068c.308 1.169.875 1.917 1.645 2.348.746-2.67.732-6.55-.076-8.633-.273-2.395-2.083-4.067-3.002-4.56-.918-.492-4.24-1.45-7.231 0a6608.708 6608.708 0 0 1-23.81 11.398c-1.041.495-2.146.795-3.342.795-3.01 0-4.06-2.798-4.06-4.387 0-1.9 1.426-3.834 3.207-3.834 1.128 0 1.808.622 1.808 1.52 0 2.147-1.8 2.017-2.934 1.589.592 1.336 1.649 2.113 2.763 1.9.102.756.456 1.476 1.194 2.14.65-.522 1.142-1.16 1.16-2.14 1.728.428 2.46-.747 2.865-1.9-1.269.365-2.729.604-2.729-1.589 0-1.6-.273-2.858-1.296-3.592 1.364-.043 6.754-.173 6.754-.173 2.025-.092 1.967 2.752 1.364 4.56 2.333-.683 3.594-2.082 3.275-5.32.324.786 1.052 1.624 2.456 1.624 1.899 0 4.003-1.565 4.625-2.591l-19.771-.514z"/></g></g></g><g><g><g><path fill="#fec50c" d="M185.675.255c-5.07 0-7.675 4.62-7.675 8.25 0 4.89 2.88 7.495 6.652 7.495 2.138 0 3.48-.398 5.526-1.398 0 0 16.53-8.068 22.922-11.21.798-.39 1.706-.517 3.036-.517 2.055 0 3.735 2.023 3.786 4.145.048 1.934-1.776 4.04-3.854 4.04-2.524 0-3.65-1.328-3.65-2.693 0-1.68.68-2.35 1.842-2.35.81 0 1.16.398 1.16.968 0 1.44-1.91 1.036-1.91 1.036.154.716.874 1.304 1.774.967.118.544.405 1.034.818 1.4.369-.387.654-.83.75-1.4 1.098.338 1.634-.113 1.86-1.088-.422.197-.81.204-1.177.138.43-1.534-.254-3.885-2.865-3.885-2.593 0-4.776 1.826-4.23 5.25-.384-.814-1.169-1.229-2.047-1.313a4.86 4.86 0 0 1 .273 1.313c-.696-.4-1.295-.956-2.66-.932.284.634.81 1.224.477 2.037-2.475-1.277-5.88.292-6.686 4.283 1.687-1.46 3.508-2.176 5.321-2.176 5.877 0 6.865 1.658 10.95 1.658 1.71 0 3.555-.892 4.81-2.66h-.068c.308 1.169.875 1.917 1.645 2.348.746-2.67.732-6.55-.076-8.633-.273-2.395-2.083-4.067-3.002-4.56-.918-.492-4.24-1.45-7.231 0a6608.708 6608.708 0 0 1-23.81 11.398c-1.041.495-2.146.795-3.342.795-3.01 0-4.06-2.798-4.06-4.387 0-1.9 1.426-3.834 3.207-3.834 1.128 0 1.808.622 1.808 1.52 0 2.147-1.8 2.017-2.934 1.589.592 1.336 1.649 2.113 2.763 1.9.102.756.456 1.476 1.194 2.14.65-.522 1.142-1.16 1.16-2.14 1.728.428 2.46-.747 2.865-1.9-1.269.365-2.729.604-2.729-1.589 0-1.6-.273-2.858-1.296-3.592 1.364-.043 6.754-.173 6.754-.173 2.025-.092 1.967 2.752 1.364 4.56 2.333-.683 3.594-2.082 3.275-5.32.324.786 1.052 1.624 2.456 1.624 1.899 0 4.003-1.565 4.625-2.591L185.675.254z"/></g></g></g><g><g><g><path fill="#fec50c" d="M897.675.255c-5.07 0-7.675 4.62-7.675 8.25 0 4.89 2.88 7.495 6.652 7.495 2.138 0 3.48-.398 5.526-1.398 0 0 16.53-8.068 22.922-11.21.798-.39 1.706-.517 3.036-.517 2.055 0 3.735 2.023 3.786 4.145.048 1.934-1.776 4.04-3.854 4.04-2.524 0-3.65-1.328-3.65-2.693 0-1.68.68-2.35 1.842-2.35.81 0 1.16.398 1.16.968 0 1.44-1.91 1.036-1.91 1.036.154.716.874 1.304 1.774.967.118.544.405 1.034.818 1.4.369-.387.654-.83.75-1.4 1.098.338 1.634-.113 1.86-1.088-.422.197-.81.204-1.177.138.43-1.534-.254-3.885-2.865-3.885-2.593 0-4.776 1.826-4.23 5.25-.384-.814-1.169-1.229-2.047-1.313a4.86 4.86 0 0 1 .273 1.313c-.696-.4-1.295-.956-2.66-.932.284.634.81 1.224.477 2.037-2.475-1.277-5.88.292-6.686 4.283 1.687-1.46 3.508-2.176 5.321-2.176 5.877 0 6.865 1.658 10.95 1.658 1.71 0 3.555-.892 4.81-2.66h-.068c.308 1.169.875 1.917 1.645 2.348.746-2.67.732-6.55-.076-8.633-.273-2.395-2.083-4.067-3.002-4.56-.918-.492-4.24-1.45-7.231 0a6608.708 6608.708 0 0 1-23.81 11.398c-1.041.495-2.146.795-3.342.795-3.01 0-4.06-2.798-4.06-4.387 0-1.9 1.426-3.834 3.207-3.834 1.128 0 1.808.622 1.808 1.52 0 2.147-1.8 2.017-2.934 1.589.592 1.336 1.649 2.113 2.763 1.9.102.756.456 1.476 1.194 2.14.65-.522 1.142-1.16 1.16-2.14 1.728.428 2.46-.747 2.865-1.9-1.269.365-2.729.604-2.729-1.589 0-1.6-.273-2.858-1.296-3.592 1.364-.043 6.754-.173 6.754-.173 2.025-.092 1.967 2.752 1.364 4.56 2.333-.683 3.594-2.082 3.275-5.32.324.786 1.052 1.624 2.456 1.624 1.899 0 4.003-1.565 4.625-2.591L897.675.254z"/></g></g></g><g><g><g><path fill="#fec50c" d="M541.675.255c-5.07 0-7.675 4.62-7.675 8.25 0 4.89 2.88 7.495 6.652 7.495 2.138 0 3.48-.398 5.526-1.398 0 0 16.53-8.068 22.922-11.21.798-.39 1.706-.517 3.036-.517 2.055 0 3.735 2.023 3.786 4.145.048 1.934-1.776 4.04-3.854 4.04-2.524 0-3.65-1.328-3.65-2.693 0-1.68.68-2.35 1.842-2.35.81 0 1.16.398 1.16.968 0 1.44-1.91 1.036-1.91 1.036.154.716.874 1.304 1.774.967.118.544.405 1.034.818 1.4.369-.387.654-.83.75-1.4 1.098.338 1.634-.113 1.86-1.088-.422.197-.81.204-1.177.138.43-1.534-.254-3.885-2.865-3.885-2.593 0-4.776 1.826-4.23 5.25-.384-.814-1.169-1.229-2.047-1.313a4.86 4.86 0 0 1 .273 1.313c-.696-.4-1.295-.956-2.66-.932.284.634.81 1.224.477 2.037-2.475-1.277-5.88.292-6.686 4.283 1.687-1.46 3.508-2.176 5.321-2.176 5.877 0 6.865 1.658 10.95 1.658 1.71 0 3.555-.892 4.81-2.66h-.068c.308 1.169.875 1.917 1.645 2.348.746-2.67.732-6.55-.076-8.633-.273-2.395-2.083-4.067-3.002-4.56-.918-.492-4.24-1.45-7.231 0a6608.708 6608.708 0 0 1-23.81 11.398c-1.041.495-2.146.795-3.342.795-3.01 0-4.06-2.798-4.06-4.387 0-1.9 1.426-3.834 3.207-3.834 1.128 0 1.808.622 1.808 1.52 0 2.147-1.8 2.017-2.934 1.589.592 1.336 1.649 2.113 2.763 1.9.102.756.456 1.476 1.194 2.14.65-.522 1.142-1.16 1.16-2.14 1.728.428 2.46-.747 2.865-1.9-1.269.365-2.729.604-2.729-1.589 0-1.6-.273-2.858-1.296-3.592 1.364-.043 6.754-.173 6.754-.173 2.025-.092 1.967 2.752 1.364 4.56 2.333-.683 3.594-2.082 3.275-5.32.324.786 1.052 1.624 2.456 1.624 1.899 0 4.003-1.565 4.625-2.591L541.675.254z"/></g></g></g><g><g><g><path fill="#fec50c" d="M1253.675.255c-5.07 0-7.675 4.62-7.675 8.25 0 4.89 2.88 7.495 6.652 7.495 2.138 0 3.48-.398 5.526-1.398 0 0 16.53-8.068 22.922-11.21.798-.39 1.706-.517 3.036-.517 2.055 0 3.735 2.023 3.786 4.145.048 1.934-1.776 4.04-3.854 4.04-2.524 0-3.65-1.328-3.65-2.693 0-1.68.68-2.35 1.842-2.35.81 0 1.16.398 1.16.968 0 1.44-1.91 1.036-1.91 1.036.154.716.874 1.304 1.774.967.118.544.405 1.034.818 1.4.369-.387.654-.83.75-1.4 1.098.338 1.634-.113 1.86-1.088-.422.197-.81.204-1.177.138.43-1.534-.254-3.885-2.865-3.885-2.593 0-4.776 1.826-4.23 5.25-.384-.814-1.169-1.229-2.047-1.313a4.86 4.86 0 0 1 .273 1.313c-.696-.4-1.295-.956-2.66-.932.284.634.81 1.224.477 2.037-2.475-1.277-5.88.292-6.686 4.283 1.687-1.46 3.508-2.176 5.321-2.176 5.877 0 6.865 1.658 10.95 1.658 1.71 0 3.555-.892 4.81-2.66h-.068c.308 1.169.875 1.917 1.645 2.348.746-2.67.732-6.55-.076-8.633-.273-2.395-2.083-4.067-3.002-4.56-.918-.492-4.24-1.45-7.231 0a6608.708 6608.708 0 0 1-23.81 11.398c-1.041.495-2.146.795-3.342.795-3.01 0-4.06-2.798-4.06-4.387 0-1.9 1.426-3.834 3.207-3.834 1.128 0 1.808.622 1.808 1.52 0 2.147-1.8 2.017-2.934 1.589.592 1.336 1.649 2.113 2.763 1.9.102.756.456 1.476 1.194 2.14.65-.522 1.142-1.16 1.16-2.14 1.728.428 2.46-.747 2.865-1.9-1.269.365-2.729.604-2.729-1.589 0-1.6-.273-2.858-1.296-3.592 1.364-.043 6.754-.173 6.754-.173 2.025-.092 1.967 2.752 1.364 4.56 2.333-.683 3.594-2.082 3.275-5.32.324.786 1.052 1.624 2.456 1.624 1.899 0 4.003-1.565 4.625-2.591l-19.771-.514z"/></g></g></g><g><g><g><path fill="#fec50c" d="M96.675.255C91.605.255 89 4.875 89 8.505 89 13.395 91.88 16 95.652 16c2.138 0 3.48-.398 5.526-1.398 0 0 16.53-8.068 22.922-11.21.798-.39 1.706-.517 3.036-.517 2.055 0 3.735 2.023 3.786 4.145.048 1.934-1.776 4.04-3.854 4.04-2.524 0-3.65-1.328-3.65-2.693 0-1.68.68-2.35 1.842-2.35.81 0 1.16.398 1.16.968 0 1.44-1.91 1.036-1.91 1.036.154.716.874 1.304 1.774.967.118.544.405 1.034.818 1.4.369-.387.654-.83.75-1.4 1.098.338 1.634-.113 1.86-1.088-.422.197-.81.204-1.177.138.43-1.534-.254-3.885-2.865-3.885-2.593 0-4.776 1.826-4.23 5.25-.384-.814-1.169-1.229-2.047-1.313a4.86 4.86 0 0 1 .273 1.313c-.696-.4-1.295-.956-2.66-.932.284.634.81 1.224.477 2.037-2.475-1.277-5.88.292-6.686 4.283 1.687-1.46 3.508-2.176 5.322-2.176 5.876 0 6.864 1.658 10.95 1.658 1.709 0 3.554-.892 4.809-2.66h-.068c.308 1.169.875 1.917 1.645 2.348.746-2.67.732-6.55-.076-8.633-.273-2.395-2.083-4.067-3.002-4.56-.918-.492-4.24-1.45-7.231 0a6608.708 6608.708 0 0 1-23.81 11.398c-1.041.495-2.146.795-3.342.795-3.01 0-4.06-2.798-4.06-4.387 0-1.9 1.426-3.834 3.207-3.834 1.128 0 1.808.622 1.808 1.52 0 2.147-1.8 2.017-2.934 1.589.592 1.336 1.649 2.113 2.763 1.9.102.756.456 1.476 1.194 2.14.65-.522 1.142-1.16 1.16-2.14 1.728.428 2.46-.747 2.865-1.9-1.269.365-2.729.604-2.729-1.589 0-1.6-.273-2.858-1.296-3.592 1.364-.043 6.754-.173 6.754-.173 2.025-.092 1.967 2.752 1.364 4.56 2.333-.683 3.594-2.082 3.275-5.32.324.786 1.052 1.624 2.456 1.624 1.899 0 4.003-1.565 4.625-2.591L96.675.254z"/></g></g></g><g><g><g><path fill="#fec50c" d="M808.675.255c-5.07 0-7.675 4.62-7.675 8.25 0 4.89 2.88 7.495 6.652 7.495 2.138 0 3.48-.398 5.526-1.398 0 0 16.53-8.068 22.922-11.21.798-.39 1.706-.517 3.036-.517 2.055 0 3.735 2.023 3.786 4.145.048 1.934-1.776 4.04-3.854 4.04-2.524 0-3.65-1.328-3.65-2.693 0-1.68.68-2.35 1.842-2.35.81 0 1.16.398 1.16.968 0 1.44-1.91 1.036-1.91 1.036.154.716.874 1.304 1.774.967.118.544.405 1.034.818 1.4.369-.387.654-.83.75-1.4 1.098.338 1.634-.113 1.86-1.088-.422.197-.81.204-1.177.138.43-1.534-.254-3.885-2.865-3.885-2.593 0-4.776 1.826-4.23 5.25-.384-.814-1.169-1.229-2.047-1.313a4.86 4.86 0 0 1 .273 1.313c-.696-.4-1.295-.956-2.66-.932.284.634.81 1.224.477 2.037-2.475-1.277-5.88.292-6.686 4.283 1.687-1.46 3.508-2.176 5.321-2.176 5.877 0 6.865 1.658 10.95 1.658 1.71 0 3.555-.892 4.81-2.66h-.068c.308 1.169.875 1.917 1.645 2.348.746-2.67.732-6.55-.076-8.633-.273-2.395-2.083-4.067-3.002-4.56-.918-.492-4.24-1.45-7.231 0a6608.708 6608.708 0 0 1-23.81 11.398c-1.041.495-2.146.795-3.342.795-3.01 0-4.06-2.798-4.06-4.387 0-1.9 1.426-3.834 3.207-3.834 1.128 0 1.808.622 1.808 1.52 0 2.147-1.8 2.017-2.934 1.589.592 1.336 1.649 2.113 2.763 1.9.102.756.456 1.476 1.194 2.14.65-.522 1.142-1.16 1.16-2.14 1.728.428 2.46-.747 2.865-1.9-1.269.365-2.729.604-2.729-1.589 0-1.6-.273-2.858-1.296-3.592 1.364-.043 6.754-.173 6.754-.173 2.025-.092 1.967 2.752 1.364 4.56 2.333-.683 3.594-2.082 3.275-5.32.324.786 1.052 1.624 2.456 1.624 1.899 0 4.003-1.565 4.625-2.591L808.675.254z"/></g></g></g><g><g><g><path fill="#fec50c" d="M452.675.255c-5.07 0-7.675 4.62-7.675 8.25 0 4.89 2.88 7.495 6.652 7.495 2.138 0 3.48-.398 5.526-1.398 0 0 16.53-8.068 22.922-11.21.798-.39 1.706-.517 3.036-.517 2.055 0 3.735 2.023 3.786 4.145.048 1.934-1.776 4.04-3.854 4.04-2.524 0-3.65-1.328-3.65-2.693 0-1.68.68-2.35 1.842-2.35.81 0 1.16.398 1.16.968 0 1.44-1.91 1.036-1.91 1.036.154.716.874 1.304 1.774.967.118.544.405 1.034.818 1.4.369-.387.654-.83.75-1.4 1.098.338 1.634-.113 1.86-1.088-.422.197-.81.204-1.177.138.43-1.534-.254-3.885-2.865-3.885-2.593 0-4.776 1.826-4.23 5.25-.384-.814-1.169-1.229-2.047-1.313a4.86 4.86 0 0 1 .273 1.313c-.695-.4-1.295-.956-2.66-.932.284.634.81 1.224.477 2.037-2.475-1.277-5.88.292-6.686 4.283 1.687-1.46 3.508-2.176 5.322-2.176 5.876 0 6.864 1.658 10.95 1.658 1.709 0 3.554-.892 4.809-2.66h-.068c.308 1.169.875 1.917 1.645 2.348.746-2.67.732-6.55-.076-8.633-.273-2.395-2.083-4.067-3.002-4.56-.918-.492-4.24-1.45-7.231 0a6608.708 6608.708 0 0 1-23.81 11.398c-1.041.495-2.146.795-3.342.795-3.01 0-4.06-2.798-4.06-4.387 0-1.9 1.426-3.834 3.207-3.834 1.128 0 1.808.622 1.808 1.52 0 2.147-1.8 2.017-2.934 1.589.592 1.336 1.649 2.113 2.763 1.9.102.756.456 1.476 1.194 2.14.65-.522 1.142-1.16 1.16-2.14 1.728.428 2.46-.747 2.865-1.9-1.269.365-2.729.604-2.729-1.589 0-1.6-.273-2.858-1.296-3.592 1.364-.043 6.754-.173 6.754-.173 2.025-.092 1.967 2.752 1.364 4.56 2.333-.683 3.594-2.082 3.275-5.32.324.786 1.052 1.624 2.456 1.624 1.899 0 4.003-1.565 4.625-2.591L452.675.254z"/></g></g></g><g><g><g><path fill="#fec50c" d="M1164.675.255c-5.07 0-7.675 4.62-7.675 8.25 0 4.89 2.88 7.495 6.652 7.495 2.138 0 3.48-.398 5.526-1.398 0 0 16.53-8.068 22.922-11.21.798-.39 1.706-.517 3.036-.517 2.055 0 3.735 2.023 3.786 4.145.048 1.934-1.776 4.04-3.854 4.04-2.524 0-3.65-1.328-3.65-2.693 0-1.68.68-2.35 1.842-2.35.81 0 1.16.398 1.16.968 0 1.44-1.91 1.036-1.91 1.036.154.716.874 1.304 1.774.967.118.544.405 1.034.818 1.4.369-.387.654-.83.75-1.4 1.098.338 1.634-.113 1.86-1.088-.422.197-.81.204-1.177.138.43-1.534-.254-3.885-2.865-3.885-2.593 0-4.776 1.826-4.23 5.25-.384-.814-1.169-1.229-2.047-1.313a4.86 4.86 0 0 1 .273 1.313c-.696-.4-1.295-.956-2.66-.932.284.634.81 1.224.477 2.037-2.475-1.277-5.88.292-6.686 4.283 1.687-1.46 3.508-2.176 5.321-2.176 5.877 0 6.865 1.658 10.95 1.658 1.71 0 3.555-.892 4.81-2.66h-.068c.308 1.169.875 1.917 1.645 2.348.746-2.67.732-6.55-.076-8.633-.273-2.395-2.083-4.067-3.002-4.56-.918-.492-4.24-1.45-7.231 0a6608.708 6608.708 0 0 1-23.81 11.398c-1.041.495-2.146.795-3.342.795-3.01 0-4.06-2.798-4.06-4.387 0-1.9 1.426-3.834 3.207-3.834 1.128 0 1.808.622 1.808 1.52 0 2.147-1.8 2.017-2.934 1.589.592 1.336 1.649 2.113 2.763 1.9.102.756.456 1.476 1.194 2.14.65-.522 1.142-1.16 1.16-2.14 1.728.428 2.46-.747 2.865-1.9-1.269.365-2.729.604-2.729-1.589 0-1.6-.273-2.858-1.296-3.592 1.364-.043 6.754-.173 6.754-.173 2.025-.092 1.967 2.752 1.364 4.56 2.333-.683 3.594-2.082 3.275-5.32.324.786 1.052 1.624 2.456 1.624 1.899 0 4.003-1.565 4.625-2.591l-19.771-.514z"/></g></g></g><g><g><g><path fill="#fec50c" d="M274.675.255c-5.07 0-7.675 4.62-7.675 8.25 0 4.89 2.88 7.495 6.652 7.495 2.138 0 3.48-.398 5.526-1.398 0 0 16.53-8.068 22.922-11.21.798-.39 1.706-.517 3.036-.517 2.055 0 3.735 2.023 3.786 4.145.048 1.934-1.776 4.04-3.854 4.04-2.524 0-3.65-1.328-3.65-2.693 0-1.68.68-2.35 1.842-2.35.81 0 1.16.398 1.16.968 0 1.44-1.91 1.036-1.91 1.036.154.716.874 1.304 1.774.967.118.544.405 1.034.818 1.4.369-.387.654-.83.75-1.4 1.098.338 1.634-.113 1.86-1.088-.422.197-.81.204-1.177.138.43-1.534-.254-3.885-2.865-3.885-2.593 0-4.776 1.826-4.23 5.25-.384-.814-1.169-1.229-2.047-1.313a4.86 4.86 0 0 1 .273 1.313c-.695-.4-1.295-.956-2.66-.932.284.634.81 1.224.477 2.037-2.475-1.277-5.88.292-6.686 4.283 1.687-1.46 3.508-2.176 5.322-2.176 5.876 0 6.864 1.658 10.95 1.658 1.709 0 3.554-.892 4.809-2.66h-.068c.308 1.169.875 1.917 1.645 2.348.746-2.67.732-6.55-.076-8.633-.273-2.395-2.083-4.067-3.002-4.56-.918-.492-4.24-1.45-7.231 0a6608.708 6608.708 0 0 1-23.81 11.398c-1.041.495-2.146.795-3.342.795-3.01 0-4.06-2.798-4.06-4.387 0-1.9 1.426-3.834 3.207-3.834 1.128 0 1.808.622 1.808 1.52 0 2.147-1.8 2.017-2.934 1.589.592 1.336 1.649 2.113 2.763 1.9.102.756.456 1.476 1.194 2.14.65-.522 1.142-1.16 1.16-2.14 1.728.428 2.46-.747 2.865-1.9-1.269.365-2.729.604-2.729-1.589 0-1.6-.273-2.858-1.296-3.592 1.364-.043 6.754-.173 6.754-.173 2.025-.092 1.967 2.752 1.364 4.56 2.333-.683 3.594-2.082 3.275-5.32.324.786 1.052 1.624 2.456 1.624 1.899 0 4.003-1.565 4.625-2.591L274.675.254z"/></g></g></g><g><g><g><path fill="#fec50c" d="M986.675.255c-5.07 0-7.675 4.62-7.675 8.25 0 4.89 2.88 7.495 6.652 7.495 2.138 0 3.48-.398 5.526-1.398 0 0 16.53-8.068 22.922-11.21.798-.39 1.706-.517 3.036-.517 2.055 0 3.735 2.023 3.786 4.145.048 1.934-1.776 4.04-3.854 4.04-2.524 0-3.65-1.328-3.65-2.693 0-1.68.68-2.35 1.842-2.35.81 0 1.16.398 1.16.968 0 1.44-1.91 1.036-1.91 1.036.154.716.874 1.304 1.774.967.118.544.405 1.034.818 1.4.369-.387.654-.83.75-1.4 1.098.338 1.634-.113 1.86-1.088-.422.197-.81.204-1.177.138.43-1.534-.254-3.885-2.865-3.885-2.593 0-4.776 1.826-4.23 5.25-.384-.814-1.169-1.229-2.047-1.313a4.86 4.86 0 0 1 .273 1.313c-.696-.4-1.295-.956-2.66-.932.284.634.81 1.224.477 2.037-2.475-1.277-5.88.292-6.686 4.283 1.687-1.46 3.508-2.176 5.321-2.176 5.877 0 6.865 1.658 10.95 1.658 1.71 0 3.555-.892 4.81-2.66h-.068c.308 1.169.875 1.917 1.645 2.348.746-2.67.732-6.55-.076-8.633-.273-2.395-2.083-4.067-3.002-4.56-.918-.492-4.24-1.45-7.231 0a6608.708 6608.708 0 0 1-23.81 11.398c-1.041.495-2.146.795-3.342.795-3.01 0-4.06-2.798-4.06-4.387 0-1.9 1.426-3.834 3.207-3.834 1.128 0 1.808.622 1.808 1.52 0 2.147-1.8 2.017-2.934 1.589.592 1.336 1.649 2.113 2.763 1.9.102.756.456 1.476 1.194 2.14.65-.522 1.142-1.16 1.16-2.14 1.728.428 2.46-.747 2.865-1.9-1.269.365-2.729.604-2.729-1.589 0-1.6-.273-2.858-1.296-3.592 1.364-.043 6.754-.173 6.754-.173 2.025-.092 1.967 2.752 1.364 4.56 2.333-.683 3.594-2.082 3.275-5.32.324.786 1.052 1.624 2.456 1.624 1.899 0 4.003-1.565 4.625-2.591L986.675.254z"/></g></g></g><g><g><g><path fill="#fec50c" d="M630.675.255c-5.07 0-7.675 4.62-7.675 8.25 0 4.89 2.88 7.495 6.652 7.495 2.138 0 3.48-.398 5.526-1.398 0 0 16.53-8.068 22.922-11.21.798-.39 1.706-.517 3.036-.517 2.055 0 3.735 2.023 3.786 4.145.048 1.934-1.776 4.04-3.854 4.04-2.524 0-3.65-1.328-3.65-2.693 0-1.68.68-2.35 1.842-2.35.81 0 1.16.398 1.16.968 0 1.44-1.91 1.036-1.91 1.036.154.716.874 1.304 1.774.967.118.544.405 1.034.818 1.4.369-.387.654-.83.75-1.4 1.098.338 1.634-.113 1.86-1.088-.422.197-.81.204-1.177.138.43-1.534-.254-3.885-2.865-3.885-2.593 0-4.776 1.826-4.23 5.25-.384-.814-1.169-1.229-2.047-1.313a4.86 4.86 0 0 1 .273 1.313c-.696-.4-1.295-.956-2.66-.932.284.634.81 1.224.477 2.037-2.475-1.277-5.88.292-6.686 4.283 1.687-1.46 3.508-2.176 5.321-2.176 5.877 0 6.865 1.658 10.95 1.658 1.71 0 3.555-.892 4.81-2.66h-.068c.308 1.169.875 1.917 1.645 2.348.746-2.67.732-6.55-.076-8.633-.273-2.395-2.083-4.067-3.002-4.56-.918-.492-4.24-1.45-7.231 0a6608.708 6608.708 0 0 1-23.81 11.398c-1.041.495-2.146.795-3.342.795-3.01 0-4.06-2.798-4.06-4.387 0-1.9 1.426-3.834 3.207-3.834 1.128 0 1.808.622 1.808 1.52 0 2.147-1.8 2.017-2.934 1.589.592 1.336 1.649 2.113 2.763 1.9.102.756.456 1.476 1.194 2.14.65-.522 1.142-1.16 1.16-2.14 1.728.428 2.46-.747 2.865-1.9-1.269.365-2.729.604-2.729-1.589 0-1.6-.273-2.858-1.296-3.592 1.364-.043 6.754-.173 6.754-.173 2.025-.092 1.967 2.752 1.364 4.56 2.333-.683 3.594-2.082 3.275-5.32.324.786 1.052 1.624 2.456 1.624 1.899 0 4.003-1.565 4.625-2.591L630.675.254z"/></g></g></g><g><g><g><path fill="#fec50c" d="M1342.675.255c-5.07 0-7.675 4.62-7.675 8.25 0 4.89 2.88 7.495 6.652 7.495 2.138 0 3.48-.398 5.526-1.398 0 0 16.53-8.068 22.922-11.21.798-.39 1.706-.517 3.036-.517 2.055 0 3.735 2.023 3.786 4.145.048 1.934-1.776 4.04-3.854 4.04-2.524 0-3.65-1.328-3.65-2.693 0-1.68.68-2.35 1.842-2.35.81 0 1.16.398 1.16.968 0 1.44-1.91 1.036-1.91 1.036.154.716.874 1.304 1.774.967.118.544.405 1.034.818 1.4.369-.387.654-.83.75-1.4 1.098.338 1.634-.113 1.86-1.088-.422.197-.81.204-1.177.138.43-1.534-.254-3.885-2.865-3.885-2.593 0-4.776 1.826-4.23 5.25-.384-.814-1.169-1.229-2.047-1.313a4.86 4.86 0 0 1 .273 1.313c-.696-.4-1.295-.956-2.66-.932.284.634.81 1.224.477 2.037-2.475-1.277-5.88.292-6.686 4.283 1.687-1.46 3.508-2.176 5.321-2.176 5.877 0 6.865 1.658 10.95 1.658 1.71 0 3.555-.892 4.81-2.66h-.068c.308 1.169.875 1.917 1.645 2.348.746-2.67.732-6.55-.076-8.633-.273-2.395-2.083-4.067-3.002-4.56-.918-.492-4.24-1.45-7.231 0a6608.708 6608.708 0 0 1-23.81 11.398c-1.041.495-2.146.795-3.342.795-3.01 0-4.06-2.798-4.06-4.387 0-1.9 1.426-3.834 3.207-3.834 1.128 0 1.808.622 1.808 1.52 0 2.147-1.8 2.017-2.934 1.589.592 1.336 1.649 2.113 2.763 1.9.102.756.456 1.476 1.194 2.14.65-.522 1.142-1.16 1.16-2.14 1.728.428 2.46-.747 2.865-1.9-1.269.365-2.729.604-2.729-1.589 0-1.6-.273-2.858-1.296-3.592 1.364-.043 6.754-.173 6.754-.173 2.025-.092 1.967 2.752 1.364 4.56 2.333-.683 3.594-2.082 3.275-5.32.324.786 1.052 1.624 2.456 1.624 1.899 0 4.003-1.565 4.625-2.591l-19.771-.514z"/></g></g></g><g><g><g><path fill="#fec50c" d="M81.325.255c5.07 0 7.675 4.62 7.675 8.25C89 13.395 86.12 16 82.348 16c-2.138 0-3.48-.398-5.526-1.398 0 0-16.53-8.068-22.922-11.21-.798-.39-1.706-.517-3.036-.517-2.055 0-3.735 2.023-3.786 4.145-.048 1.934 1.776 4.04 3.854 4.04 2.524 0 3.65-1.328 3.65-2.693 0-1.68-.68-2.35-1.842-2.35-.81 0-1.16.398-1.16.968 0 1.44 1.91 1.036 1.91 1.036-.154.716-.874 1.304-1.774.967a2.605 2.605 0 0 1-.818 1.4c-.369-.387-.654-.83-.75-1.4-1.098.338-1.634-.113-1.86-1.088.422.197.81.204 1.177.138-.43-1.534.254-3.885 2.865-3.885 2.593 0 4.776 1.826 4.23 5.25.384-.814 1.169-1.229 2.047-1.313-.239.622-.273 1.313-.273 1.313.695-.4 1.295-.956 2.66-.932-.284.634-.81 1.224-.477 2.037 2.475-1.277 5.88.292 6.686 4.283-1.687-1.46-3.508-2.176-5.322-2.176-5.876 0-6.864 1.658-10.95 1.658-1.709 0-3.554-.892-4.809-2.66h.068c-.308 1.169-.875 1.917-1.645 2.348-.746-2.67-.732-6.55.076-8.633.273-2.395 2.083-4.067 3.002-4.56.918-.492 4.24-1.45 7.231 0a6608.708 6608.708 0 0 0 23.81 11.398c1.041.495 2.146.795 3.342.795 3.01 0 4.06-2.798 4.06-4.387 0-1.9-1.426-3.834-3.207-3.834-1.128 0-1.808.622-1.808 1.52 0 2.147 1.8 2.017 2.934 1.589-.592 1.336-1.649 2.113-2.763 1.9-.102.756-.456 1.476-1.194 2.14-.65-.522-1.142-1.16-1.16-2.14-1.728.428-2.46-.747-2.865-1.9 1.269.365 2.729.604 2.729-1.589 0-1.6.273-2.858 1.296-3.592-1.364-.043-6.754-.173-6.754-.173-2.025-.092-1.967 2.752-1.364 4.56-2.333-.683-3.594-2.082-3.275-5.32-.324.786-1.052 1.624-2.456 1.624-1.899 0-4.003-1.565-4.625-2.591L81.325.254z"/></g></g></g><g><g><g><path fill="#fec50c" d="M793.325.255c5.07 0 7.675 4.62 7.675 8.25 0 4.89-2.88 7.495-6.652 7.495-2.138 0-3.48-.398-5.526-1.398 0 0-16.53-8.068-22.922-11.21-.798-.39-1.706-.517-3.036-.517-2.055 0-3.735 2.023-3.786 4.145-.048 1.934 1.776 4.04 3.854 4.04 2.524 0 3.65-1.328 3.65-2.693 0-1.68-.68-2.35-1.842-2.35-.81 0-1.16.398-1.16.968 0 1.44 1.91 1.036 1.91 1.036-.154.716-.874 1.304-1.774.967a2.605 2.605 0 0 1-.818 1.4c-.369-.387-.654-.83-.75-1.4-1.098.338-1.634-.113-1.86-1.088.422.197.81.204 1.177.138-.43-1.534.254-3.885 2.865-3.885 2.593 0 4.776 1.826 4.23 5.25.384-.814 1.169-1.229 2.047-1.313-.239.622-.273 1.313-.273 1.313.696-.4 1.295-.956 2.66-.932-.284.634-.81 1.224-.477 2.037 2.475-1.277 5.88.292 6.686 4.283-1.687-1.46-3.508-2.176-5.321-2.176-5.877 0-6.865 1.658-10.95 1.658-1.71 0-3.555-.892-4.81-2.66h.068c-.308 1.169-.875 1.917-1.645 2.348-.746-2.67-.732-6.55.076-8.633.273-2.395 2.083-4.067 3.002-4.56.918-.492 4.24-1.45 7.231 0a6608.708 6608.708 0 0 0 23.81 11.398c1.041.495 2.146.795 3.342.795 3.01 0 4.06-2.798 4.06-4.387 0-1.9-1.426-3.834-3.207-3.834-1.128 0-1.808.622-1.808 1.52 0 2.147 1.8 2.017 2.934 1.589-.592 1.336-1.649 2.113-2.763 1.9-.102.756-.456 1.476-1.194 2.14-.65-.522-1.142-1.16-1.16-2.14-1.728.428-2.46-.747-2.865-1.9 1.269.365 2.729.604 2.729-1.589 0-1.6.273-2.858 1.296-3.592-1.364-.043-6.754-.173-6.754-.173-2.025-.092-1.967 2.752-1.364 4.56-2.333-.683-3.594-2.082-3.275-5.32-.324.786-1.052 1.624-2.456 1.624-1.899 0-4.003-1.565-4.625-2.591l19.771-.514z"/></g></g></g><g><g><g><path fill="#fec50c" d="M437.325.255c5.07 0 7.675 4.62 7.675 8.25 0 4.89-2.88 7.495-6.652 7.495-2.138 0-3.48-.398-5.526-1.398 0 0-16.53-8.068-22.922-11.21-.798-.39-1.706-.517-3.036-.517-2.055 0-3.735 2.023-3.786 4.145-.048 1.934 1.776 4.04 3.854 4.04 2.524 0 3.65-1.328 3.65-2.693 0-1.68-.68-2.35-1.842-2.35-.81 0-1.16.398-1.16.968 0 1.44 1.91 1.036 1.91 1.036-.154.716-.874 1.304-1.774.967a2.605 2.605 0 0 1-.818 1.4c-.369-.387-.654-.83-.75-1.4-1.098.338-1.634-.113-1.86-1.088.422.197.81.204 1.177.138-.43-1.534.254-3.885 2.865-3.885 2.593 0 4.776 1.826 4.23 5.25.384-.814 1.169-1.229 2.047-1.313-.239.622-.273 1.313-.273 1.313.695-.4 1.295-.956 2.66-.932-.284.634-.81 1.224-.477 2.037 2.475-1.277 5.88.292 6.686 4.283-1.687-1.46-3.508-2.176-5.322-2.176-5.876 0-6.864 1.658-10.95 1.658-1.709 0-3.554-.892-4.809-2.66h.068c-.308 1.169-.875 1.917-1.645 2.348-.746-2.67-.732-6.55.076-8.633.273-2.395 2.083-4.067 3.002-4.56.918-.492 4.24-1.45 7.231 0a6608.708 6608.708 0 0 0 23.81 11.398c1.041.495 2.146.795 3.342.795 3.01 0 4.06-2.798 4.06-4.387 0-1.9-1.426-3.834-3.207-3.834-1.128 0-1.808.622-1.808 1.52 0 2.147 1.8 2.017 2.934 1.589-.592 1.336-1.649 2.113-2.763 1.9-.102.756-.456 1.476-1.194 2.14-.65-.522-1.142-1.16-1.16-2.14-1.728.428-2.46-.747-2.865-1.9 1.269.365 2.729.604 2.729-1.589 0-1.6.273-2.858 1.296-3.592-1.364-.043-6.754-.173-6.754-.173-2.025-.092-1.967 2.752-1.364 4.56-2.333-.683-3.594-2.082-3.275-5.32-.324.786-1.052 1.624-2.456 1.624-1.899 0-4.003-1.565-4.625-2.591l19.771-.514z"/></g></g></g><g><g><g><path fill="#fec50c" d="M1149.325.255c5.07 0 7.675 4.62 7.675 8.25 0 4.89-2.88 7.495-6.652 7.495-2.138 0-3.48-.398-5.526-1.398 0 0-16.53-8.068-22.922-11.21-.798-.39-1.706-.517-3.036-.517-2.055 0-3.735 2.023-3.786 4.145-.048 1.934 1.776 4.04 3.854 4.04 2.524 0 3.65-1.328 3.65-2.693 0-1.68-.68-2.35-1.842-2.35-.81 0-1.16.398-1.16.968 0 1.44 1.91 1.036 1.91 1.036-.154.716-.874 1.304-1.774.967a2.605 2.605 0 0 1-.818 1.4c-.369-.387-.654-.83-.75-1.4-1.098.338-1.634-.113-1.86-1.088.422.197.81.204 1.177.138-.43-1.534.254-3.885 2.865-3.885 2.593 0 4.776 1.826 4.23 5.25.384-.814 1.169-1.229 2.047-1.313-.239.622-.273 1.313-.273 1.313.696-.4 1.295-.956 2.66-.932-.284.634-.81 1.224-.477 2.037 2.475-1.277 5.88.292 6.686 4.283-1.687-1.46-3.508-2.176-5.321-2.176-5.877 0-6.865 1.658-10.95 1.658-1.71 0-3.555-.892-4.81-2.66h.068c-.308 1.169-.875 1.917-1.645 2.348-.746-2.67-.732-6.55.076-8.633.273-2.395 2.083-4.067 3.002-4.56.918-.492 4.24-1.45 7.231 0a6608.708 6608.708 0 0 0 23.81 11.398c1.041.495 2.146.795 3.342.795 3.01 0 4.06-2.798 4.06-4.387 0-1.9-1.426-3.834-3.207-3.834-1.128 0-1.808.622-1.808 1.52 0 2.147 1.8 2.017 2.934 1.589-.592 1.336-1.649 2.113-2.763 1.9-.102.756-.456 1.476-1.194 2.14-.65-.522-1.142-1.16-1.16-2.14-1.728.428-2.46-.747-2.865-1.9 1.269.365 2.729.604 2.729-1.589 0-1.6.273-2.858 1.296-3.592-1.364-.043-6.754-.173-6.754-.173-2.025-.092-1.967 2.752-1.364 4.56-2.333-.683-3.594-2.082-3.275-5.32-.324.786-1.052 1.624-2.456 1.624-1.899 0-4.003-1.565-4.625-2.591l19.771-.514z"/></g></g></g><g><g><g><path fill="#fec50c" d="M259.325.255c5.07 0 7.675 4.62 7.675 8.25 0 4.89-2.88 7.495-6.652 7.495-2.138 0-3.48-.398-5.526-1.398 0 0-16.53-8.068-22.922-11.21-.798-.39-1.706-.517-3.036-.517-2.055 0-3.735 2.023-3.786 4.145-.048 1.934 1.776 4.04 3.854 4.04 2.524 0 3.65-1.328 3.65-2.693 0-1.68-.68-2.35-1.842-2.35-.81 0-1.16.398-1.16.968 0 1.44 1.91 1.036 1.91 1.036-.154.716-.874 1.304-1.774.967a2.605 2.605 0 0 1-.818 1.4c-.369-.387-.654-.83-.75-1.4-1.098.338-1.634-.113-1.86-1.088.422.197.81.204 1.177.138-.43-1.534.254-3.885 2.865-3.885 2.593 0 4.776 1.826 4.23 5.25.384-.814 1.169-1.229 2.047-1.313-.239.622-.273 1.313-.273 1.313.696-.4 1.295-.956 2.66-.932-.284.634-.81 1.224-.477 2.037 2.475-1.277 5.88.292 6.686 4.283-1.687-1.46-3.508-2.176-5.321-2.176-5.877 0-6.865 1.658-10.95 1.658-1.71 0-3.555-.892-4.81-2.66h.068c-.308 1.169-.875 1.917-1.645 2.348-.746-2.67-.732-6.55.076-8.633.273-2.395 2.083-4.067 3.002-4.56.918-.492 4.24-1.45 7.231 0a6608.708 6608.708 0 0 0 23.81 11.398c1.041.495 2.146.795 3.342.795 3.01 0 4.06-2.798 4.06-4.387 0-1.9-1.426-3.834-3.207-3.834-1.128 0-1.808.622-1.808 1.52 0 2.147 1.8 2.017 2.934 1.589-.592 1.336-1.649 2.113-2.763 1.9-.102.756-.456 1.476-1.194 2.14-.65-.522-1.142-1.16-1.16-2.14-1.728.428-2.46-.747-2.865-1.9 1.269.365 2.729.604 2.729-1.589 0-1.6.273-2.858 1.296-3.592-1.364-.043-6.754-.173-6.754-.173-2.025-.092-1.967 2.752-1.364 4.56-2.333-.683-3.594-2.082-3.275-5.32-.324.786-1.052 1.624-2.456 1.624-1.899 0-4.003-1.565-4.625-2.591l19.771-.514z"/></g></g></g><g><g><g><path fill="#fec50c" d="M971.325.255c5.07 0 7.675 4.62 7.675 8.25 0 4.89-2.88 7.495-6.652 7.495-2.138 0-3.48-.398-5.526-1.398 0 0-16.53-8.068-22.922-11.21-.798-.39-1.706-.517-3.036-.517-2.055 0-3.735 2.023-3.786 4.145-.048 1.934 1.776 4.04 3.854 4.04 2.524 0 3.65-1.328 3.65-2.693 0-1.68-.68-2.35-1.842-2.35-.81 0-1.16.398-1.16.968 0 1.44 1.91 1.036 1.91 1.036-.154.716-.874 1.304-1.774.967a2.605 2.605 0 0 1-.818 1.4c-.369-.387-.654-.83-.75-1.4-1.098.338-1.634-.113-1.86-1.088.422.197.81.204 1.177.138-.43-1.534.254-3.885 2.865-3.885 2.593 0 4.776 1.826 4.23 5.25.384-.814 1.169-1.229 2.047-1.313-.239.622-.273 1.313-.273 1.313.696-.4 1.295-.956 2.66-.932-.284.634-.81 1.224-.477 2.037 2.475-1.277 5.88.292 6.686 4.283-1.687-1.46-3.508-2.176-5.321-2.176-5.877 0-6.865 1.658-10.95 1.658-1.71 0-3.555-.892-4.81-2.66h.068c-.308 1.169-.875 1.917-1.645 2.348-.746-2.67-.732-6.55.076-8.633.273-2.395 2.083-4.067 3.002-4.56.918-.492 4.24-1.45 7.231 0a6608.708 6608.708 0 0 0 23.81 11.398c1.041.495 2.146.795 3.342.795 3.01 0 4.06-2.798 4.06-4.387 0-1.9-1.426-3.834-3.207-3.834-1.128 0-1.808.622-1.808 1.52 0 2.147 1.8 2.017 2.934 1.589-.592 1.336-1.649 2.113-2.763 1.9-.102.756-.456 1.476-1.194 2.14-.65-.522-1.142-1.16-1.16-2.14-1.728.428-2.46-.747-2.865-1.9 1.269.365 2.729.604 2.729-1.589 0-1.6.273-2.858 1.296-3.592-1.364-.043-6.754-.173-6.754-.173-2.025-.092-1.967 2.752-1.364 4.56-2.333-.683-3.594-2.082-3.275-5.32-.324.786-1.052 1.624-2.456 1.624-1.899 0-4.003-1.565-4.625-2.591l19.771-.514z"/></g></g></g><g><g><g><path fill="#fec50c" d="M615.325.255c5.07 0 7.675 4.62 7.675 8.25 0 4.89-2.88 7.495-6.652 7.495-2.138 0-3.48-.398-5.526-1.398 0 0-16.53-8.068-22.922-11.21-.798-.39-1.706-.517-3.036-.517-2.055 0-3.735 2.023-3.786 4.145-.048 1.934 1.776 4.04 3.854 4.04 2.524 0 3.65-1.328 3.65-2.693 0-1.68-.68-2.35-1.842-2.35-.81 0-1.16.398-1.16.968 0 1.44 1.91 1.036 1.91 1.036-.154.716-.874 1.304-1.774.967a2.605 2.605 0 0 1-.818 1.4c-.369-.387-.654-.83-.75-1.4-1.098.338-1.634-.113-1.86-1.088.422.197.81.204 1.177.138-.43-1.534.254-3.885 2.865-3.885 2.593 0 4.776 1.826 4.23 5.25.384-.814 1.169-1.229 2.047-1.313-.239.622-.273 1.313-.273 1.313.696-.4 1.295-.956 2.66-.932-.284.634-.81 1.224-.477 2.037 2.475-1.277 5.88.292 6.686 4.283-1.687-1.46-3.508-2.176-5.321-2.176-5.877 0-6.865 1.658-10.95 1.658-1.71 0-3.555-.892-4.81-2.66h.068c-.308 1.169-.875 1.917-1.645 2.348-.746-2.67-.732-6.55.076-8.633.273-2.395 2.083-4.067 3.002-4.56.918-.492 4.24-1.45 7.231 0a6608.708 6608.708 0 0 0 23.81 11.398c1.041.495 2.146.795 3.342.795 3.01 0 4.06-2.798 4.06-4.387 0-1.9-1.426-3.834-3.207-3.834-1.128 0-1.808.622-1.808 1.52 0 2.147 1.8 2.017 2.934 1.589-.592 1.336-1.649 2.113-2.763 1.9-.102.756-.456 1.476-1.194 2.14-.65-.522-1.142-1.16-1.16-2.14-1.728.428-2.46-.747-2.865-1.9 1.269.365 2.729.604 2.729-1.589 0-1.6.273-2.858 1.296-3.592-1.364-.043-6.754-.173-6.754-.173-2.025-.092-1.967 2.752-1.364 4.56-2.333-.683-3.594-2.082-3.275-5.32-.324.786-1.052 1.624-2.456 1.624-1.899 0-4.003-1.565-4.625-2.591l19.771-.514z"/></g></g></g><g><g><g><path fill="#fec50c" d="M1327.325.255c5.07 0 7.675 4.62 7.675 8.25 0 4.89-2.88 7.495-6.652 7.495-2.138 0-3.48-.398-5.526-1.398 0 0-16.53-8.068-22.922-11.21-.798-.39-1.706-.517-3.036-.517-2.055 0-3.735 2.023-3.786 4.145-.048 1.934 1.776 4.04 3.854 4.04 2.524 0 3.65-1.328 3.65-2.693 0-1.68-.68-2.35-1.842-2.35-.81 0-1.16.398-1.16.968 0 1.44 1.91 1.036 1.91 1.036-.154.716-.874 1.304-1.774.967a2.605 2.605 0 0 1-.818 1.4c-.369-.387-.654-.83-.75-1.4-1.098.338-1.634-.113-1.86-1.088.422.197.81.204 1.177.138-.43-1.534.254-3.885 2.865-3.885 2.593 0 4.776 1.826 4.23 5.25.384-.814 1.169-1.229 2.047-1.313-.239.622-.273 1.313-.273 1.313.696-.4 1.295-.956 2.66-.932-.284.634-.81 1.224-.477 2.037 2.475-1.277 5.88.292 6.686 4.283-1.687-1.46-3.508-2.176-5.321-2.176-5.877 0-6.865 1.658-10.95 1.658-1.71 0-3.555-.892-4.81-2.66h.068c-.308 1.169-.875 1.917-1.645 2.348-.746-2.67-.732-6.55.076-8.633.273-2.395 2.083-4.067 3.002-4.56.918-.492 4.24-1.45 7.231 0a6608.708 6608.708 0 0 0 23.81 11.398c1.041.495 2.146.795 3.342.795 3.01 0 4.06-2.798 4.06-4.387 0-1.9-1.426-3.834-3.207-3.834-1.128 0-1.808.622-1.808 1.52 0 2.147 1.8 2.017 2.934 1.589-.592 1.336-1.649 2.113-2.763 1.9-.102.756-.456 1.476-1.194 2.14-.65-.522-1.142-1.16-1.16-2.14-1.728.428-2.46-.747-2.865-1.9 1.269.365 2.729.604 2.729-1.589 0-1.6.273-2.858 1.296-3.592-1.364-.043-6.754-.173-6.754-.173-2.025-.092-1.967 2.752-1.364 4.56-2.333-.683-3.594-2.082-3.275-5.32-.324.786-1.052 1.624-2.456 1.624-1.899 0-4.003-1.565-4.625-2.591l19.771-.514z"/></g></g></g><g><g><g><path fill="#fec50c" d="M170.325.255c5.07 0 7.675 4.62 7.675 8.25 0 4.89-2.88 7.495-6.652 7.495-2.138 0-3.48-.398-5.526-1.398 0 0-16.53-8.068-22.922-11.21-.798-.39-1.706-.517-3.036-.517-2.055 0-3.735 2.023-3.786 4.145-.048 1.934 1.776 4.04 3.854 4.04 2.524 0 3.65-1.328 3.65-2.693 0-1.68-.68-2.35-1.842-2.35-.81 0-1.16.398-1.16.968 0 1.44 1.91 1.036 1.91 1.036-.154.716-.874 1.304-1.774.967a2.605 2.605 0 0 1-.818 1.4c-.369-.387-.654-.83-.75-1.4-1.098.338-1.634-.113-1.86-1.088.422.197.81.204 1.177.138-.43-1.534.254-3.885 2.865-3.885 2.593 0 4.776 1.826 4.23 5.25.384-.814 1.169-1.229 2.047-1.313-.239.622-.273 1.313-.273 1.313.696-.4 1.295-.956 2.66-.932-.284.634-.81 1.224-.477 2.037 2.475-1.277 5.88.292 6.686 4.283-1.687-1.46-3.508-2.176-5.321-2.176-5.877 0-6.865 1.658-10.95 1.658-1.71 0-3.555-.892-4.81-2.66h.068c-.308 1.169-.875 1.917-1.645 2.348-.746-2.67-.732-6.55.076-8.633.273-2.395 2.083-4.067 3.002-4.56.918-.492 4.24-1.45 7.231 0a6608.708 6608.708 0 0 0 23.81 11.398c1.041.495 2.146.795 3.342.795 3.01 0 4.06-2.798 4.06-4.387 0-1.9-1.426-3.834-3.207-3.834-1.128 0-1.808.622-1.808 1.52 0 2.147 1.8 2.017 2.934 1.589-.592 1.336-1.649 2.113-2.763 1.9-.102.756-.456 1.476-1.194 2.14-.65-.522-1.142-1.16-1.16-2.14-1.728.428-2.46-.747-2.865-1.9 1.269.365 2.729.604 2.729-1.589 0-1.6.273-2.858 1.296-3.592-1.364-.043-6.754-.173-6.754-.173-2.025-.092-1.967 2.752-1.364 4.56-2.333-.683-3.594-2.082-3.275-5.32-.324.786-1.052 1.624-2.456 1.624-1.899 0-4.003-1.565-4.625-2.591l19.771-.514z"/></g></g></g><g><g><g><path fill="#fec50c" d="M882.325.255c5.07 0 7.675 4.62 7.675 8.25 0 4.89-2.88 7.495-6.652 7.495-2.138 0-3.48-.398-5.526-1.398 0 0-16.53-8.068-22.922-11.21-.798-.39-1.706-.517-3.036-.517-2.055 0-3.735 2.023-3.786 4.145-.048 1.934 1.776 4.04 3.854 4.04 2.524 0 3.65-1.328 3.65-2.693 0-1.68-.68-2.35-1.842-2.35-.81 0-1.16.398-1.16.968 0 1.44 1.91 1.036 1.91 1.036-.154.716-.874 1.304-1.774.967a2.605 2.605 0 0 1-.818 1.4c-.369-.387-.654-.83-.75-1.4-1.098.338-1.634-.113-1.86-1.088.422.197.81.204 1.177.138-.43-1.534.254-3.885 2.865-3.885 2.593 0 4.776 1.826 4.23 5.25.384-.814 1.169-1.229 2.047-1.313-.239.622-.273 1.313-.273 1.313.696-.4 1.295-.956 2.66-.932-.284.634-.81 1.224-.477 2.037 2.475-1.277 5.88.292 6.686 4.283-1.687-1.46-3.508-2.176-5.321-2.176-5.877 0-6.865 1.658-10.95 1.658-1.71 0-3.555-.892-4.81-2.66h.068c-.308 1.169-.875 1.917-1.645 2.348-.746-2.67-.732-6.55.076-8.633.273-2.395 2.083-4.067 3.002-4.56.918-.492 4.24-1.45 7.231 0a6608.708 6608.708 0 0 0 23.81 11.398c1.041.495 2.146.795 3.342.795 3.01 0 4.06-2.798 4.06-4.387 0-1.9-1.426-3.834-3.207-3.834-1.128 0-1.808.622-1.808 1.52 0 2.147 1.8 2.017 2.934 1.589-.592 1.336-1.649 2.113-2.763 1.9-.102.756-.456 1.476-1.194 2.14-.65-.522-1.142-1.16-1.16-2.14-1.728.428-2.46-.747-2.865-1.9 1.269.365 2.729.604 2.729-1.589 0-1.6.273-2.858 1.296-3.592-1.364-.043-6.754-.173-6.754-.173-2.025-.092-1.967 2.752-1.364 4.56-2.333-.683-3.594-2.082-3.275-5.32-.324.786-1.052 1.624-2.456 1.624-1.899 0-4.003-1.565-4.625-2.591l19.771-.514z"/></g></g></g><g><g><g><path fill="#fec50c" d="M526.325.255c5.07 0 7.675 4.62 7.675 8.25 0 4.89-2.88 7.495-6.652 7.495-2.138 0-3.48-.398-5.526-1.398 0 0-16.53-8.068-22.922-11.21-.798-.39-1.706-.517-3.036-.517-2.055 0-3.735 2.023-3.786 4.145-.048 1.934 1.776 4.04 3.854 4.04 2.524 0 3.65-1.328 3.65-2.693 0-1.68-.68-2.35-1.842-2.35-.81 0-1.16.398-1.16.968 0 1.44 1.91 1.036 1.91 1.036-.154.716-.874 1.304-1.774.967a2.605 2.605 0 0 1-.818 1.4c-.369-.387-.654-.83-.75-1.4-1.098.338-1.634-.113-1.86-1.088.422.197.81.204 1.177.138-.43-1.534.254-3.885 2.865-3.885 2.593 0 4.776 1.826 4.23 5.25.384-.814 1.169-1.229 2.047-1.313-.239.622-.273 1.313-.273 1.313.695-.4 1.295-.956 2.66-.932-.284.634-.81 1.224-.477 2.037 2.475-1.277 5.88.292 6.686 4.283-1.687-1.46-3.508-2.176-5.322-2.176-5.876 0-6.864 1.658-10.95 1.658-1.709 0-3.554-.892-4.809-2.66h.068c-.308 1.169-.875 1.917-1.645 2.348-.746-2.67-.732-6.55.076-8.633.273-2.395 2.083-4.067 3.002-4.56.918-.492 4.24-1.45 7.231 0a6608.708 6608.708 0 0 0 23.81 11.398c1.041.495 2.146.795 3.342.795 3.01 0 4.06-2.798 4.06-4.387 0-1.9-1.426-3.834-3.207-3.834-1.128 0-1.808.622-1.808 1.52 0 2.147 1.8 2.017 2.934 1.589-.592 1.336-1.649 2.113-2.763 1.9-.102.756-.456 1.476-1.194 2.14-.65-.522-1.142-1.16-1.16-2.14-1.728.428-2.46-.747-2.865-1.9 1.269.365 2.729.604 2.729-1.589 0-1.6.273-2.858 1.296-3.592-1.364-.043-6.754-.173-6.754-.173-2.025-.092-1.967 2.752-1.364 4.56-2.333-.683-3.594-2.082-3.275-5.32-.324.786-1.052 1.624-2.456 1.624-1.899 0-4.003-1.565-4.625-2.591l19.771-.514z"/></g></g></g><g><g><g><path fill="#fec50c" d="M1238.325.255c5.07 0 7.675 4.62 7.675 8.25 0 4.89-2.88 7.495-6.652 7.495-2.138 0-3.48-.398-5.526-1.398 0 0-16.53-8.068-22.922-11.21-.798-.39-1.706-.517-3.036-.517-2.055 0-3.735 2.023-3.786 4.145-.048 1.934 1.776 4.04 3.854 4.04 2.524 0 3.65-1.328 3.65-2.693 0-1.68-.68-2.35-1.842-2.35-.81 0-1.16.398-1.16.968 0 1.44 1.91 1.036 1.91 1.036-.154.716-.874 1.304-1.774.967a2.605 2.605 0 0 1-.818 1.4c-.369-.387-.654-.83-.75-1.4-1.098.338-1.634-.113-1.86-1.088.422.197.81.204 1.177.138-.43-1.534.254-3.885 2.865-3.885 2.593 0 4.776 1.826 4.23 5.25.384-.814 1.169-1.229 2.047-1.313-.239.622-.273 1.313-.273 1.313.696-.4 1.295-.956 2.66-.932-.284.634-.81 1.224-.477 2.037 2.475-1.277 5.88.292 6.686 4.283-1.687-1.46-3.508-2.176-5.321-2.176-5.877 0-6.865 1.658-10.95 1.658-1.71 0-3.555-.892-4.81-2.66h.068c-.308 1.169-.875 1.917-1.645 2.348-.746-2.67-.732-6.55.076-8.633.273-2.395 2.083-4.067 3.002-4.56.918-.492 4.24-1.45 7.231 0a6608.708 6608.708 0 0 0 23.81 11.398c1.041.495 2.146.795 3.342.795 3.01 0 4.06-2.798 4.06-4.387 0-1.9-1.426-3.834-3.207-3.834-1.128 0-1.808.622-1.808 1.52 0 2.147 1.8 2.017 2.934 1.589-.592 1.336-1.649 2.113-2.763 1.9-.102.756-.456 1.476-1.194 2.14-.65-.522-1.142-1.16-1.16-2.14-1.728.428-2.46-.747-2.865-1.9 1.269.365 2.729.604 2.729-1.589 0-1.6.273-2.858 1.296-3.592-1.364-.043-6.754-.173-6.754-.173-2.025-.092-1.967 2.752-1.364 4.56-2.333-.683-3.594-2.082-3.275-5.32-.324.786-1.052 1.624-2.456 1.624-1.899 0-4.003-1.565-4.625-2.591l19.771-.514z"/></g></g></g><g><g><g><path fill="#fec50c" d="M348.325.255c5.07 0 7.675 4.62 7.675 8.25 0 4.89-2.88 7.495-6.652 7.495-2.138 0-3.48-.398-5.526-1.398 0 0-16.53-8.068-22.922-11.21-.798-.39-1.706-.517-3.036-.517-2.055 0-3.735 2.023-3.786 4.145-.048 1.934 1.776 4.04 3.854 4.04 2.524 0 3.65-1.328 3.65-2.693 0-1.68-.68-2.35-1.842-2.35-.81 0-1.16.398-1.16.968 0 1.44 1.91 1.036 1.91 1.036-.154.716-.874 1.304-1.774.967a2.605 2.605 0 0 1-.818 1.4c-.369-.387-.654-.83-.75-1.4-1.098.338-1.634-.113-1.86-1.088.422.197.81.204 1.177.138-.43-1.534.254-3.885 2.865-3.885 2.593 0 4.776 1.826 4.23 5.25.384-.814 1.169-1.229 2.047-1.313-.239.622-.273 1.313-.273 1.313.695-.4 1.295-.956 2.66-.932-.284.634-.81 1.224-.477 2.037 2.475-1.277 5.88.292 6.686 4.283-1.687-1.46-3.508-2.176-5.322-2.176-5.876 0-6.864 1.658-10.95 1.658-1.709 0-3.554-.892-4.809-2.66h.068c-.308 1.169-.875 1.917-1.645 2.348-.746-2.67-.732-6.55.076-8.633.273-2.395 2.083-4.067 3.002-4.56.918-.492 4.24-1.45 7.231 0a6608.708 6608.708 0 0 0 23.81 11.398c1.041.495 2.146.795 3.342.795 3.01 0 4.06-2.798 4.06-4.387 0-1.9-1.426-3.834-3.207-3.834-1.128 0-1.808.622-1.808 1.52 0 2.147 1.8 2.017 2.934 1.589-.592 1.336-1.649 2.113-2.763 1.9-.102.756-.456 1.476-1.194 2.14-.65-.522-1.142-1.16-1.16-2.14-1.728.428-2.46-.747-2.865-1.9 1.269.365 2.729.604 2.729-1.589 0-1.6.273-2.858 1.296-3.592-1.364-.043-6.754-.173-6.754-.173-2.025-.092-1.967 2.752-1.364 4.56-2.333-.683-3.594-2.082-3.275-5.32-.324.786-1.052 1.624-2.456 1.624-1.899 0-4.003-1.565-4.625-2.591l19.771-.514z"/></g></g></g><g><g><g><path fill="#fec50c" d="M1060.325.255c5.07 0 7.675 4.62 7.675 8.25 0 4.89-2.88 7.495-6.652 7.495-2.138 0-3.48-.398-5.526-1.398 0 0-16.53-8.068-22.922-11.21-.798-.39-1.706-.517-3.036-.517-2.055 0-3.735 2.023-3.786 4.145-.048 1.934 1.776 4.04 3.854 4.04 2.524 0 3.65-1.328 3.65-2.693 0-1.68-.68-2.35-1.842-2.35-.81 0-1.16.398-1.16.968 0 1.44 1.91 1.036 1.91 1.036-.154.716-.874 1.304-1.774.967a2.605 2.605 0 0 1-.818 1.4c-.369-.387-.654-.83-.75-1.4-1.098.338-1.634-.113-1.86-1.088.422.197.81.204 1.177.138-.43-1.534.254-3.885 2.865-3.885 2.593 0 4.776 1.826 4.23 5.25.384-.814 1.169-1.229 2.047-1.313-.239.622-.273 1.313-.273 1.313.696-.4 1.295-.956 2.66-.932-.284.634-.81 1.224-.477 2.037 2.475-1.277 5.88.292 6.686 4.283-1.687-1.46-3.508-2.176-5.321-2.176-5.877 0-6.865 1.658-10.95 1.658-1.71 0-3.555-.892-4.81-2.66h.068c-.308 1.169-.875 1.917-1.645 2.348-.746-2.67-.732-6.55.076-8.633.273-2.395 2.083-4.067 3.002-4.56.918-.492 4.24-1.45 7.231 0a6608.708 6608.708 0 0 0 23.81 11.398c1.041.495 2.146.795 3.342.795 3.01 0 4.06-2.798 4.06-4.387 0-1.9-1.426-3.834-3.207-3.834-1.128 0-1.808.622-1.808 1.52 0 2.147 1.8 2.017 2.934 1.589-.592 1.336-1.649 2.113-2.763 1.9-.102.756-.456 1.476-1.194 2.14-.65-.522-1.142-1.16-1.16-2.14-1.728.428-2.46-.747-2.865-1.9 1.269.365 2.729.604 2.729-1.589 0-1.6.273-2.858 1.296-3.592-1.364-.043-6.754-.173-6.754-.173-2.025-.092-1.967 2.752-1.364 4.56-2.333-.683-3.594-2.082-3.275-5.32-.324.786-1.052 1.624-2.456 1.624-1.899 0-4.003-1.565-4.625-2.591l19.771-.514z"/></g></g></g><g><g><g><path fill="#fec50c" d="M704.325.255c5.07 0 7.675 4.62 7.675 8.25 0 4.89-2.88 7.495-6.652 7.495-2.138 0-3.48-.398-5.526-1.398 0 0-16.53-8.068-22.922-11.21-.798-.39-1.706-.517-3.036-.517-2.055 0-3.735 2.023-3.786 4.145-.048 1.934 1.776 4.04 3.854 4.04 2.524 0 3.65-1.328 3.65-2.693 0-1.68-.68-2.35-1.842-2.35-.81 0-1.16.398-1.16.968 0 1.44 1.91 1.036 1.91 1.036-.154.716-.874 1.304-1.774.967a2.605 2.605 0 0 1-.818 1.4c-.369-.387-.654-.83-.75-1.4-1.098.338-1.634-.113-1.86-1.088.422.197.81.204 1.177.138-.43-1.534.254-3.885 2.865-3.885 2.593 0 4.776 1.826 4.23 5.25.384-.814 1.169-1.229 2.047-1.313-.239.622-.273 1.313-.273 1.313.696-.4 1.295-.956 2.66-.932-.284.634-.81 1.224-.477 2.037 2.475-1.277 5.88.292 6.686 4.283-1.687-1.46-3.508-2.176-5.321-2.176-5.877 0-6.865 1.658-10.95 1.658-1.71 0-3.555-.892-4.81-2.66h.068c-.308 1.169-.875 1.917-1.645 2.348-.746-2.67-.732-6.55.076-8.633.273-2.395 2.083-4.067 3.002-4.56.918-.492 4.24-1.45 7.231 0a6608.708 6608.708 0 0 0 23.81 11.398c1.041.495 2.146.795 3.342.795 3.01 0 4.06-2.798 4.06-4.387 0-1.9-1.426-3.834-3.207-3.834-1.128 0-1.808.622-1.808 1.52 0 2.147 1.8 2.017 2.934 1.589-.592 1.336-1.649 2.113-2.763 1.9-.102.756-.456 1.476-1.194 2.14-.65-.522-1.142-1.16-1.16-2.14-1.728.428-2.46-.747-2.865-1.9 1.269.365 2.729.604 2.729-1.589 0-1.6.273-2.858 1.296-3.592-1.364-.043-6.754-.173-6.754-.173-2.025-.092-1.967 2.752-1.364 4.56-2.333-.683-3.594-2.082-3.275-5.32-.324.786-1.052 1.624-2.456 1.624-1.899 0-4.003-1.565-4.625-2.591l19.771-.514z"/></g></g></g><g><g><g><path fill="#fec50c" d="M1416.325.255c5.07 0 7.675 4.62 7.675 8.25 0 4.89-2.88 7.495-6.652 7.495-2.138 0-3.48-.398-5.526-1.398 0 0-16.53-8.068-22.922-11.21-.798-.39-1.706-.517-3.036-.517-2.055 0-3.735 2.023-3.786 4.145-.048 1.934 1.776 4.04 3.854 4.04 2.524 0 3.65-1.328 3.65-2.693 0-1.68-.68-2.35-1.842-2.35-.81 0-1.16.398-1.16.968 0 1.44 1.91 1.036 1.91 1.036-.154.716-.874 1.304-1.774.967a2.605 2.605 0 0 1-.818 1.4c-.369-.387-.654-.83-.75-1.4-1.098.338-1.634-.113-1.86-1.088.422.197.81.204 1.177.138-.43-1.534.254-3.885 2.865-3.885 2.593 0 4.776 1.826 4.23 5.25.384-.814 1.169-1.229 2.047-1.313-.239.622-.273 1.313-.273 1.313.696-.4 1.295-.956 2.66-.932-.284.634-.81 1.224-.477 2.037 2.475-1.277 5.88.292 6.686 4.283-1.687-1.46-3.508-2.176-5.321-2.176-5.877 0-6.865 1.658-10.95 1.658-1.71 0-3.555-.892-4.81-2.66h.068c-.308 1.169-.875 1.917-1.645 2.348-.746-2.67-.732-6.55.076-8.633.273-2.395 2.083-4.067 3.002-4.56.918-.492 4.24-1.45 7.231 0a6608.708 6608.708 0 0 0 23.81 11.398c1.041.495 2.146.795 3.342.795 3.01 0 4.06-2.798 4.06-4.387 0-1.9-1.426-3.834-3.207-3.834-1.128 0-1.808.622-1.808 1.52 0 2.147 1.8 2.017 2.934 1.589-.592 1.336-1.649 2.113-2.763 1.9-.102.756-.456 1.476-1.194 2.14-.65-.522-1.142-1.16-1.16-2.14-1.728.428-2.46-.747-2.865-1.9 1.269.365 2.729.604 2.729-1.589 0-1.6.273-2.858 1.296-3.592-1.364-.043-6.754-.173-6.754-.173-2.025-.092-1.967 2.752-1.364 4.56-2.333-.683-3.594-2.082-3.275-5.32-.324.786-1.052 1.624-2.456 1.624-1.899 0-4.003-1.565-4.625-2.591l19.771-.514z"/></g></g></g></g></g></svg>