<svg width="24" height="18" viewBox="0 0 24 18" fill="none" xmlns="http://www.w3.org/2000/svg">
<path d="M24 14.9999C24 15.7072 23.719 16.3854 23.219 16.8855C22.7189 17.3856 22.0406 17.6666 21.3333 17.6666H2.66667C1.95942 17.6666 1.28115 17.3856 0.781049 16.8855C0.280952 16.3854 0 15.7072 0 14.9999V12.3333H24V14.9999Z" fill="#CE2028"/>
<path d="M0 5.66675H24V12.3334H0V5.66675Z" fill="#22408C"/>
<path d="M21.3333 0.333252H2.66667C1.95942 0.333252 1.28115 0.614203 0.781049 1.1143C0.280952 1.6144 0 2.29267 0 2.99992L0 5.66659H24V2.99992C24 2.29267 23.719 1.6144 23.219 1.1143C22.7189 0.614203 22.0406 0.333252 21.3333 0.333252Z" fill="#EEEEEE"/>
</svg>
