<svg width="24" height="18" viewBox="0 0 24 18" fill="none" xmlns="http://www.w3.org/2000/svg">
<path d="M24 14.9999C24 15.7072 23.719 16.3854 23.219 16.8855C22.7189 17.3856 22.0406 17.6666 21.3333 17.6666H2.66667C1.95942 17.6666 1.28115 17.3856 0.781049 16.8855C0.280952 16.3854 0 15.7072 0 14.9999V2.99992C0 2.29267 0.280952 1.6144 0.781049 1.1143C1.28115 0.614203 1.95942 0.333252 2.66667 0.333252H21.3333C22.0406 0.333252 22.7189 0.614203 23.219 1.1143C23.719 1.6144 24 2.29267 24 2.99992V14.9999Z" fill="#00AFCA"/>
<path d="M12.6912 9.91863C13.7461 9.91863 14.6012 9.0635 14.6012 8.00863C14.6012 6.95377 13.7461 6.09863 12.6912 6.09863C11.6364 6.09863 10.7812 6.95377 10.7812 8.00863C10.7812 9.0635 11.6364 9.91863 12.6912 9.91863Z" fill="#FFCC4D"/>
<path d="M12.6918 5.95472C12.8051 5.95338 12.8464 5.88205 12.8464 5.79738C12.8464 5.68405 12.6918 4.80005 12.6918 4.80005C12.6918 4.80005 12.5344 5.68405 12.5344 5.79738C12.5344 5.88205 12.5771 5.95472 12.6918 5.95472ZM12.6918 10.0734C12.5771 10.074 12.5344 10.1454 12.5344 10.23C12.5344 10.344 12.6918 11.216 12.6918 11.216C12.6918 11.216 12.8464 10.3434 12.8464 10.23C12.8471 10.146 12.8051 10.0734 12.6918 10.0734ZM12.1578 9.99272C12.0478 9.96472 11.9898 10.0227 11.9678 10.1047C11.9384 10.214 11.8591 11.1087 11.8591 11.1087C11.8591 11.1087 12.2398 10.2947 12.2691 10.1854C12.2918 10.1034 12.2684 10.022 12.1578 9.99272ZM13.2244 6.01405C13.3351 6.04338 13.3951 5.98472 13.4171 5.90338C13.4464 5.79338 13.5198 4.91005 13.5198 4.91005C13.5198 4.91005 13.1451 5.71205 13.1151 5.82272C13.0931 5.90405 13.1144 5.98472 13.2244 6.01405ZM11.6624 9.78605C11.5631 9.73072 11.4918 9.77138 11.4498 9.84538C11.3931 9.94338 11.0851 10.7867 11.0851 10.7867C11.0851 10.7867 11.6631 10.0994 11.7198 10.0014C11.7624 9.92738 11.7618 9.84338 11.6624 9.78605ZM13.7218 6.21872C13.8211 6.27605 13.8944 6.23472 13.9364 6.16138C13.9938 6.06272 14.2931 5.22938 14.2931 5.22938C14.2931 5.22938 13.7224 5.90738 13.6651 6.00538C13.6238 6.07872 13.6238 6.16205 13.7218 6.21872ZM11.2371 9.46005C11.1558 9.38072 11.0764 9.40138 11.0164 9.46138C10.9364 9.54205 10.4204 10.2767 10.4204 10.2767C10.4204 10.2767 11.1571 9.76205 11.2371 9.68272C11.2971 9.62272 11.3184 9.54005 11.2371 9.46005ZM14.1498 6.54672C14.2311 6.62738 14.3118 6.60672 14.3718 6.54672C14.4524 6.46672 14.9578 5.73805 14.9578 5.73805C14.9578 5.73805 14.2318 6.24605 14.1518 6.32672C14.0918 6.38672 14.0698 6.46672 14.1498 6.54672ZM10.9118 9.03405C10.8538 8.93672 10.7718 8.93672 10.6978 8.97872C10.5991 9.03538 9.91109 9.61138 9.91109 9.61138C9.91109 9.61138 10.7558 9.30605 10.8538 9.24938C10.9278 9.20672 10.9691 9.13338 10.9118 9.03405ZM14.4784 6.97472C14.5364 7.07405 14.6204 7.07472 14.6931 7.03272C14.7918 6.97538 15.4684 6.40338 15.4684 6.40338C15.4684 6.40338 14.6358 6.70538 14.5371 6.76205C14.4638 6.80472 14.4224 6.87605 14.4784 6.97472ZM10.7071 8.53872C10.6764 8.42938 10.5964 8.40805 10.5144 8.42938C10.4051 8.45872 9.59109 8.83738 9.59109 8.83738C9.59109 8.83738 10.4858 8.76072 10.5951 8.73138C10.6771 8.70872 10.7364 8.64938 10.7071 8.53872ZM14.6844 7.47205C14.7151 7.58272 14.7951 7.60538 14.8771 7.58338C14.9871 7.55405 15.7891 7.17672 15.7891 7.17672C15.7891 7.17672 14.9064 7.25272 14.7958 7.28205C14.7144 7.30338 14.6551 7.36272 14.6844 7.47205ZM10.6371 8.00738C10.6358 7.89405 10.5644 7.85272 10.4798 7.85272C10.3664 7.85272 9.48242 8.00738 9.48242 8.00738C9.48242 8.00738 10.3664 8.16472 10.4798 8.16472C10.5644 8.16472 10.6371 8.12205 10.6371 8.00738ZM14.7558 8.00738C14.7564 8.12205 14.8278 8.16472 14.9124 8.16472C15.0264 8.16472 15.8984 8.00738 15.8984 8.00738C15.8984 8.00738 15.0258 7.85272 14.9124 7.85272C14.8278 7.85205 14.7558 7.89405 14.7558 8.00738ZM10.7071 7.47605C10.7351 7.36605 10.6771 7.30805 10.5951 7.28605C10.4858 7.25672 9.59109 7.17738 9.59109 7.17738C9.59109 7.17738 10.4051 7.55805 10.5144 7.58738C10.5964 7.60938 10.6778 7.58672 10.7071 7.47605ZM14.6851 8.54205C14.6558 8.65272 14.7144 8.71272 14.7958 8.73472C14.9058 8.76405 15.7891 8.83738 15.7891 8.83738C15.7891 8.83738 14.9871 8.46205 14.8764 8.43272C14.7951 8.41138 14.7144 8.43205 14.6851 8.54205ZM10.9124 6.98072C10.9678 6.88205 10.9271 6.81005 10.8531 6.76805C10.7551 6.71138 9.91176 6.40338 9.91176 6.40338C9.91176 6.40338 10.5991 6.98138 10.6971 7.03805C10.7711 7.08072 10.8551 7.07938 10.9124 6.98072ZM14.4798 9.04005C14.4224 9.13938 14.4638 9.21272 14.5371 9.25472C14.6351 9.31205 15.4691 9.61138 15.4691 9.61138C15.4691 9.61138 14.7911 9.04138 14.6931 8.98405C14.6198 8.94205 14.5364 8.94205 14.4798 9.04005ZM11.2384 6.55538C11.3178 6.47405 11.2971 6.39472 11.2371 6.33472C11.1564 6.25472 10.4218 5.73872 10.4218 5.73872C10.4218 5.73872 10.9364 6.47538 11.0158 6.55538C11.0758 6.61538 11.1578 6.63672 11.2384 6.55538ZM14.1518 9.46805C14.0711 9.54938 14.0918 9.63072 14.1518 9.69005C14.2318 9.77072 14.9604 10.276 14.9604 10.276C14.9604 10.276 14.4524 9.55005 14.3718 9.46938C14.3118 9.40938 14.2318 9.38738 14.1518 9.46805ZM11.6651 6.22938C11.7618 6.17138 11.7624 6.08938 11.7204 6.01538C11.6638 5.91738 11.0878 5.22872 11.0878 5.22872C11.0878 5.22872 11.3931 6.07338 11.4498 6.17138C11.4918 6.24538 11.5658 6.28672 11.6651 6.22938ZM13.7244 9.79672C13.6258 9.85405 13.6244 9.93738 13.6664 10.0107C13.7238 10.1094 14.2958 10.786 14.2958 10.786C14.2958 10.786 13.9938 9.95272 13.9371 9.85405C13.8944 9.78138 13.8224 9.73938 13.7244 9.79672ZM12.1598 6.02472C12.2691 5.99405 12.2904 5.91405 12.2691 5.83205C12.2398 5.72272 11.8611 4.90872 11.8611 4.90872C11.8611 4.90872 11.9378 5.80338 11.9671 5.91272C11.9891 5.99472 12.0491 6.05405 12.1598 6.02472ZM13.2264 10.0027C13.1158 10.0334 13.0931 10.1134 13.1151 10.1954C13.1444 10.3054 13.5218 11.1074 13.5218 11.1074C13.5218 11.1074 13.4458 10.224 13.4164 10.1147C13.3951 10.0327 13.3358 9.97338 13.2264 10.0027Z" fill="#FFCC4D"/>
<path d="M14.5632 12.7633L14.5386 12.774L14.5112 12.778L14.4906 12.782L14.4526 12.774L14.4359 12.7673L14.4206 12.76L14.4026 12.7487L14.3726 12.7273L14.3452 12.7053L14.3299 12.6947L14.3106 12.6867L14.2972 12.6833H14.2779L14.2026 12.84L14.1872 12.862L14.1726 12.88L14.1572 12.8913L14.1439 12.9027L14.1246 12.91H14.1066L14.0899 12.9027L14.0666 12.8913L14.0599 12.88L14.0519 12.8687L14.0439 12.854L14.0359 12.8367L14.0252 12.7813L14.0032 12.7993L13.9826 12.8253L13.9412 12.888L13.9166 12.9207L13.8906 12.946L13.8766 12.9613L13.8586 12.9727L13.8406 12.9807L13.8186 12.9873H13.8079L13.7886 12.9913L13.7706 12.9873L13.7566 12.9807L13.7139 12.9293L13.6659 12.878L13.6332 12.9293L13.5952 12.9727L13.5772 12.9907L13.5606 13.0087L13.5426 13.0233L13.5086 13.042L13.4906 13.046H13.4726L13.4572 13.042L13.4426 13.034L13.4319 13.0227L13.4179 13.0053C13.4086 12.9782 13.3986 12.9513 13.3879 12.9247L13.3839 12.906L13.3772 12.892L13.3692 12.8847H13.3612L13.2626 13.046L13.2486 13.06L13.2226 13.0713L13.1652 13.0853H13.1312L13.1052 13.078L13.0972 13.074L13.0866 13.0627L13.0839 13.056V13.0413L13.0972 12.88L13.0866 12.884L13.0579 12.898C13.0317 12.9254 13.0061 12.9534 12.9812 12.982L12.9486 13.0227L12.9079 13.0567L12.8699 13.0853L12.8486 13.0973L12.8046 13.104L12.7866 13.1L12.7786 13.0973L12.7712 13.0893L12.7672 13.078V13.0667L12.7712 13.02L12.7826 12.946L12.7752 12.9027L12.7599 12.8773L12.7379 12.91L12.7019 12.9573C12.6719 12.99 12.6412 13.022 12.6099 13.0533C12.5924 13.065 12.5752 13.0772 12.5586 13.09L12.5186 13.104L12.5106 13.1H12.4992L12.4912 13.0933L12.4886 13.0893L12.4806 13.078L12.4779 13.0667V13.0527L12.4739 13.034L12.4779 12.8953C12.4112 12.9407 12.3439 12.9847 12.2759 13.0267L12.2506 13.038L12.2219 13.0527C12.1946 13.0593 12.1679 13.066 12.1412 13.074H12.1146L12.0899 13.0707L12.0672 13.0627L12.0786 13.0333L12.1006 12.982L12.1146 12.9607L12.1306 12.9387L12.1446 12.9167L12.1819 12.88L12.2226 12.8513L12.2692 12.8213L12.3172 12.7993L12.3726 12.7813L12.4272 12.7673L12.5519 12.7453L12.6139 12.7373C12.7979 12.7267 12.9826 12.7253 13.1666 12.7267L13.3686 12.7153L13.4312 12.708L13.5472 12.686L13.6032 12.6707L13.6552 12.6493L13.7032 12.6273C13.7286 12.6073 13.7546 12.5873 13.7812 12.5687L13.8166 12.5273L13.7786 12.4547L13.8086 12.4507L13.8372 12.444L13.8672 12.4293L13.8919 12.4107L13.9026 12.404L13.9146 12.3927L13.9226 12.378L13.9306 12.3673L13.9332 12.3527V12.3273L13.9252 12.3127L13.9879 12.3013L14.0546 12.294L14.1246 12.29H14.1972C14.2992 12.294 14.4006 12.3 14.5019 12.308C14.6552 12.3267 14.8092 12.3413 14.9632 12.356L15.1012 12.3633V12.414L15.0986 12.4367L15.0906 12.458L15.0839 12.48L15.0759 12.498L15.0652 12.5127C15.0526 12.5273 15.0386 12.542 15.0246 12.556L14.9919 12.5773L14.9566 12.592L14.9212 12.6L14.8806 12.6073L14.8026 12.6L14.7619 12.5887L14.7266 12.57L14.6886 12.552L14.6599 12.526L14.6312 12.4973V12.56C14.6259 12.6007 14.6192 12.6407 14.6132 12.6813L14.5992 12.7193L14.5912 12.7347L14.5806 12.7453L14.5726 12.7567L14.5632 12.7633ZM11.6179 12.4187L11.7012 12.4553C11.7179 12.4414 11.735 12.4281 11.7526 12.4153L11.7852 12.398L11.8146 12.3793L11.9246 12.3353L12.0192 12.2913L12.0672 12.2733L12.1486 12.23L12.1812 12.2073C12.2639 12.1533 12.3472 12.1 12.4306 12.0473L12.5032 11.996L12.5586 11.952C12.6132 11.9027 12.6666 11.8527 12.7199 11.802L12.7419 11.7873L12.7672 11.7727C12.7976 11.7573 12.8283 11.7427 12.8592 11.7287L12.9212 11.7073C13.0452 11.6733 13.1712 11.6467 13.2979 11.6267C13.4272 11.6113 13.5566 11.594 13.6859 11.5793L13.8579 11.55C13.9006 11.538 13.9432 11.5273 13.9866 11.5173L14.0306 11.462L14.1012 11.3853L14.1492 11.338L14.2026 11.2933L14.2652 11.246L14.3379 11.198L14.4486 11.1327C14.5279 11.0927 14.6066 11.0527 14.6852 11.0113C14.8252 10.946 14.9632 10.8767 15.1006 10.806L15.1659 10.762L15.1839 10.7067L15.2099 10.6527L15.2426 10.5973L15.3272 10.484C15.3659 10.4427 15.4032 10.4013 15.4406 10.3587C15.4859 10.3147 15.5326 10.272 15.5799 10.2307L15.6506 10.1727L15.6859 10.1467L15.7239 10.1213C15.7506 10.106 15.7772 10.0913 15.8046 10.0773L15.8452 10.0587L15.8846 10.0447L15.9706 10.022L16.0132 10.0193L16.0539 10.0153L16.0966 10.0193L16.1372 10.026L16.1346 10.07L16.1239 10.1133L16.0912 10.2053L16.0639 10.2527L16.0312 10.3007L15.9912 10.3513L15.9432 10.4027L15.9812 10.3987L16.0139 10.3913L16.0399 10.3833L16.0646 10.3727L16.1126 10.358L16.1812 10.3507L16.1852 10.3767V10.402L16.1812 10.4273L16.1746 10.4493L16.1639 10.4713L16.1486 10.4933L16.1346 10.5107L16.1166 10.5293C16.0662 10.5779 16.0149 10.6255 15.9626 10.672L16.0059 10.676C16.0379 10.686 16.0699 10.696 16.1026 10.7047L16.1379 10.7127L16.0952 10.746C16.0614 10.7686 16.0272 10.7906 15.9926 10.812L15.8752 10.878L15.8166 10.9147L15.7579 10.9553L15.7032 10.9993L15.7279 11.0027L15.7619 11.0173L15.7766 11.0213L15.7906 11.0287L15.8026 11.032L15.8132 11.0287L15.7406 11.0693C15.6951 11.0907 15.65 11.1127 15.6052 11.1353L15.5492 11.1687L15.5386 11.18L15.5319 11.1913L15.5239 11.202L15.5266 11.2167L15.5346 11.228L15.5486 11.2387L15.5619 11.2507L15.5566 11.2647L15.5486 11.2767L15.5346 11.2873L15.5212 11.2987L15.4859 11.316L15.4432 11.3347L15.3599 11.364L15.3079 11.39L15.3806 11.4627L15.3546 11.488L15.3299 11.5067L15.3079 11.518L15.2819 11.5287L15.2312 11.536H15.1592L15.1672 11.5693L15.1779 11.602L15.1932 11.676C15.1478 11.7114 15.1013 11.7454 15.0539 11.778L14.9692 11.8327L14.8752 11.8873L14.8192 11.9133L14.7646 11.9387C14.7028 11.9627 14.6404 11.9847 14.5772 12.0047L14.4352 12.0347L14.3572 12.046C14.4419 12.0487 14.5266 12.05 14.6112 12.0493L14.8192 12.0273L14.9106 12.0093L14.9912 11.9873C15.0446 11.9693 15.0966 11.9493 15.1486 11.9287L15.2499 11.882L15.3499 11.8267L15.4439 11.7673L15.5439 11.7093L15.4839 11.68L15.4266 11.662L15.3992 11.6493C15.3786 11.6393 15.3579 11.6293 15.3366 11.6207L15.3026 11.602L15.3312 11.5807L15.3666 11.566L15.4046 11.552C15.4486 11.5413 15.4932 11.5313 15.5372 11.522C15.5946 11.516 15.6519 11.5087 15.7092 11.5007L15.7819 11.4933L15.8379 11.4793L15.8526 11.4713L15.8632 11.46L15.8606 11.456L15.8526 11.4487L15.8419 11.4447L15.8279 11.438L15.7872 11.43L15.7352 11.4227L15.6846 11.4187L15.6339 11.4113L15.5886 11.4L15.5612 11.3887L15.9192 11.3087L15.9819 11.29C16.0092 11.28 16.0359 11.2687 16.0626 11.2573L16.0979 11.2347L16.1132 11.2207L16.1092 11.2173L16.1026 11.2093L16.0686 11.202L16.0219 11.198H15.9659C15.9279 11.1953 15.8906 11.1927 15.8526 11.1913L15.8059 11.1833L15.7759 11.176L15.8279 11.1547C15.9052 11.1307 15.9839 11.1087 16.0626 11.088C16.1072 11.0727 16.1526 11.0573 16.1979 11.044L16.2672 11.0147L16.2999 10.9967L16.3299 10.9787L16.3406 10.9673L16.3519 10.9527L16.3626 10.942L16.3666 10.9307L16.3626 10.9193L16.3519 10.9113L16.3406 10.9087H16.2392L16.1912 10.9113H16.1259L16.1066 10.9087L16.0939 10.9007L16.0779 10.8933C16.2112 10.8053 16.3459 10.718 16.4812 10.6327L16.5866 10.5593C16.615 10.5358 16.6427 10.5116 16.6699 10.4867L16.7026 10.45L16.7326 10.4133L16.7546 10.3733L16.7726 10.3333L16.7832 10.2887V10.2413H16.7586L16.7326 10.2453L16.6752 10.2667C16.6244 10.2986 16.5729 10.3293 16.5206 10.3587L16.4919 10.3773L16.4579 10.3913L16.4252 10.4027L16.3952 10.41L16.3666 10.414H16.3326L16.3039 10.4027L16.3926 10.3367C16.4639 10.276 16.5346 10.2147 16.6046 10.1533C16.6819 10.0794 16.7575 10.0036 16.8312 9.92602L16.9366 9.80868C16.9679 9.76735 16.9999 9.72735 17.0326 9.68735C17.0586 9.65002 17.0846 9.61202 17.1092 9.57402L17.1172 9.56002L17.1199 9.54868L17.1172 9.53335L17.1132 9.52268L17.1092 9.51068L17.0986 9.50335L17.0872 9.49202L17.0766 9.48802L17.0626 9.48135L17.0466 9.47735H17.0179L17.0039 9.48135L16.9846 9.48402L16.9739 9.49601L16.9586 9.50735C16.8839 9.58202 16.8099 9.65801 16.7372 9.73468L16.6486 9.81868C16.5903 9.86943 16.5317 9.91965 16.4726 9.96935C16.4448 9.98819 16.4165 10.0064 16.3879 10.024L16.3072 10.0647L16.3319 10.0427C16.3586 10.0173 16.3846 9.99201 16.4099 9.96601C16.5039 9.85801 16.5939 9.74601 16.6806 9.63268L16.8499 9.39468L16.8952 9.31468L16.9406 9.24135L16.9772 9.17468L17.0059 9.11201L17.0239 9.06135L17.0279 9.04335V9.01402L17.0239 9.00268L17.0106 8.98068L17.0026 8.97335L16.9906 8.97002L16.9699 8.95802L16.9426 8.95068H16.8926L16.8786 8.95468L16.8679 8.95802L16.8526 8.96601L16.8419 8.97668L16.8119 9.00268C16.779 9.04225 16.7472 9.08271 16.7166 9.12402C16.6432 9.23868 16.5659 9.35068 16.4859 9.46068L16.3932 9.57068L16.3466 9.61868L16.2959 9.66268L16.3612 9.54068L16.4639 9.32535L16.5306 9.16802L16.5592 9.08735L16.6099 8.92201C16.6226 8.86868 16.6339 8.81535 16.6439 8.76135C16.6486 8.71135 16.6526 8.66135 16.6559 8.61068L16.6506 8.57402L16.6479 8.54135L16.6439 8.50735L16.6332 8.46468L16.6252 8.45268L16.6072 8.43468L16.5826 8.42402L16.5552 8.41602H16.5306L16.5072 8.42001L16.5006 8.42402L16.4899 8.42668L16.4859 8.43468C16.4199 8.64268 16.3699 8.85468 16.3126 9.06468C16.2912 9.12335 16.2699 9.18202 16.2472 9.24068L16.1926 9.34668L16.1586 9.39402L16.1806 9.28868C16.1912 9.22735 16.2006 9.16668 16.2092 9.10535L16.2246 8.95468L16.2286 8.89201C16.2266 8.86018 16.2239 8.8284 16.2206 8.79668L16.2139 8.76001L16.2032 8.73068L16.1879 8.70868L16.1799 8.70135L16.1579 8.69402L16.1472 8.69002H16.1352L16.1246 8.69402L16.0946 8.70135L16.0659 8.71601C16.0432 8.82935 16.0159 8.94202 15.9852 9.05335C15.9416 9.19378 15.8904 9.33176 15.8319 9.46668C15.7924 9.5496 15.7506 9.63141 15.7066 9.71202L15.6259 9.85135L15.5386 9.98268C15.48 10.0647 15.4193 10.1452 15.3566 10.224C15.2952 10.2933 15.2326 10.3613 15.1692 10.4293C15.1032 10.494 15.0359 10.558 14.9672 10.6207C14.8966 10.6793 14.8252 10.736 14.7526 10.792C14.6639 10.8561 14.5732 10.9172 14.4806 10.9753L14.3192 11.07L14.0626 11.188L13.7986 11.2827L13.5799 11.3493L13.3532 11.4L13.2399 11.4187L13.0079 11.448L12.8906 11.4553L12.8792 11.4593L12.8679 11.4627L12.8459 11.4747L12.8212 11.492C12.7925 11.517 12.7643 11.5426 12.7366 11.5687L12.6779 11.628L12.4652 11.8653L12.3846 11.946L12.2899 12.0187L12.2526 12.044L12.2159 12.0667L12.1359 12.1033C12.0119 12.154 11.8859 12.2 11.7612 12.25L11.7286 12.268L11.6992 12.2833L11.6779 12.2973L11.6372 12.338L11.6259 12.356L11.6179 12.374L11.6152 12.4V12.4187" fill="#FFCC4D"/>
<path d="M12.9598 12.5834L13.0211 12.5914L13.0511 12.6027L13.0578 12.6061V12.6101H13.0511L13.0431 12.6134L12.9845 12.6247H12.9378L12.7845 12.6134L12.3958 12.6061C12.2931 12.6074 12.1905 12.6101 12.0878 12.6134C11.9971 12.6201 11.9071 12.6274 11.8165 12.6354L11.7465 12.6467L11.6845 12.6607C11.6698 12.6661 11.6558 12.6714 11.6411 12.6754L11.6225 12.6834L11.6078 12.6947L11.6145 12.6574L11.6305 12.6201L11.5791 12.6347L11.5351 12.6567L11.5178 12.6681L11.5025 12.6827L11.4911 12.7001L11.4885 12.7187L11.4778 12.6934L11.4698 12.6707C11.4679 12.6548 11.4652 12.639 11.4618 12.6234C11.4658 12.6041 11.4698 12.5847 11.4725 12.5654L11.4845 12.5467L11.4911 12.5321L11.5065 12.5147L11.5358 12.4854L11.5758 12.4594L11.6211 12.4341C11.645 12.448 11.6706 12.459 11.6971 12.4667C11.7234 12.4691 11.7498 12.4666 11.7751 12.4594C11.8158 12.4954 11.9211 12.4881 11.9358 12.4227C11.9415 12.3986 11.9415 12.3735 11.9358 12.3494L11.9798 12.3461L12.0311 12.3381L12.1445 12.3087L12.2038 12.2974L12.2585 12.2834L12.3098 12.2761L12.3531 12.2721L12.3351 12.2874L12.2398 12.3601L12.2038 12.3854L12.2505 12.3974L12.2911 12.4047L12.2045 12.5034L12.1818 12.5327L12.2105 12.5441L12.2398 12.5521L12.2731 12.5594H12.3391L12.4045 12.5447L12.4305 12.5294L12.4605 12.5447L12.4898 12.5561C12.5085 12.5614 12.5278 12.5667 12.5471 12.5707C12.5925 12.5754 12.6378 12.5807 12.6838 12.5847H12.9598M12.6258 11.4701L12.5931 11.5361L12.5558 11.6207C12.5366 11.6552 12.5186 11.6903 12.5018 11.7261L12.4831 11.7447L12.4398 11.7081L12.3918 11.6747L12.3405 11.6487L12.2865 11.6274L12.1685 11.5974L12.1105 11.5867C12.0471 11.5794 11.9835 11.5734 11.9198 11.5687C11.8355 11.5674 11.7512 11.5634 11.6671 11.5567L11.5498 11.5427L11.4838 11.5314L11.4218 11.5174L11.3565 11.4947L11.3011 11.4661L11.2605 11.4394L11.1765 11.3774C11.0538 11.2621 10.9325 11.1454 10.8065 11.0327L10.7338 10.9821L10.7005 10.9674L10.6658 10.9567L10.6038 10.9427C10.5676 10.9298 10.5312 10.9176 10.4945 10.9061C10.4603 10.8896 10.4259 10.8738 10.3911 10.8587C10.3307 10.8213 10.2722 10.7808 10.2158 10.7374L10.1791 10.7034L10.1065 10.6307L10.0365 10.5541C9.92115 10.4134 9.81248 10.2681 9.69981 10.1254C9.64594 10.0682 9.59104 10.0119 9.53515 9.95672L9.48781 9.91339L9.43981 9.87339L9.33448 9.79672L9.32381 9.80005L9.31181 9.81139L9.30048 9.82605C9.29381 9.84272 9.28848 9.86005 9.28315 9.87739L9.27915 9.89205L9.25248 9.88005L9.23048 9.86872L9.20381 9.85739L9.18181 9.85005H9.13448L9.10848 9.85739L9.08315 9.86872C9.10315 9.89405 9.12248 9.91939 9.14115 9.94539L9.17381 9.99672L9.23315 10.1101L9.25448 10.1654L9.26248 10.1947L9.27048 10.2167L9.27381 10.2421V10.2634H9.07648L9.10515 10.3074C9.12715 10.3374 9.15048 10.3667 9.17381 10.3954L9.29515 10.5167L9.33581 10.5494L9.37315 10.5754C9.34143 10.5787 9.30964 10.5814 9.27781 10.5834L9.18181 10.5941L9.21448 10.6241C9.24315 10.6441 9.27115 10.6647 9.29915 10.6861L9.34648 10.7187L9.39448 10.7481L9.44181 10.7741L9.48581 10.7887L9.52648 10.7994L9.55915 10.8067L9.56981 10.8107L9.57781 10.8187L9.58048 10.8221V10.8361L9.56981 10.8661L9.56715 10.8874L9.56248 10.9021V10.9127L9.56715 10.9314L9.56981 10.9461L9.57781 10.9527L9.58848 10.9607L9.60248 10.9681L9.62115 10.9721L9.65848 10.9867L9.67648 10.9934L9.69115 11.0047L9.69448 11.0087V11.0161L9.69115 11.0201L9.66181 11.0414L9.64715 11.0561L9.63248 11.0741V11.0894L9.62915 11.1041L9.63648 11.1434L9.76448 11.1874L9.79381 11.1941L9.82315 11.2061L9.84515 11.2174L9.86381 11.2287L9.74248 11.3241L9.77515 11.3534L9.81581 11.3754L9.86715 11.4007C9.90381 11.4141 9.94048 11.4261 9.97781 11.4381L10.0325 11.4487L10.0805 11.4601H10.1238L10.0831 11.4894L10.0318 11.5221L9.97715 11.5521L9.93648 11.5814L9.97315 11.6067C10.0845 11.6641 10.1985 11.7174 10.3145 11.7647C10.5171 11.8474 10.7245 11.9194 10.9331 11.9841C10.9798 11.9954 11.0258 12.0074 11.0718 12.0207L11.1305 12.0321L11.0125 12.0207C10.9391 12.0112 10.866 12.0001 10.7931 11.9874L10.6905 11.9654L10.4885 11.9074L10.3938 11.8741C10.1405 11.7754 9.89315 11.6621 9.63915 11.5661L9.65781 11.5554L9.70915 11.5367L9.74181 11.5294C9.78648 11.5161 9.82981 11.5014 9.87381 11.4854C9.78652 11.4722 9.6996 11.4566 9.61315 11.4387C9.56834 11.4242 9.52322 11.4106 9.47781 11.3981L9.45181 11.3867L9.42981 11.3754L9.41181 11.3634L9.39981 11.3527V11.3494L9.40381 11.3454L9.41515 11.3414L9.42581 11.3341L9.45515 11.3227L9.58315 11.2854L9.65715 11.2601C9.55115 11.2401 9.44448 11.2221 9.33781 11.2054L9.28648 11.1934L9.24581 11.1794L9.23115 11.1714L9.21715 11.1601L9.20515 11.1534L9.19781 11.1414L9.20915 11.1341L9.24181 11.1267C9.27581 11.1214 9.31048 11.1154 9.34448 11.1087L9.40315 11.1014C9.43648 11.0921 9.46915 11.0821 9.50181 11.0714L9.51715 11.0607L9.53181 11.0487L9.47381 11.0267L9.43648 11.0201L9.39981 11.0121L9.23181 10.9901L9.18781 10.9794L9.14715 10.9714L9.06648 10.9427L9.02915 10.9241L8.99915 10.9027L8.96981 10.8767L8.94781 10.8441L8.95581 10.8401L8.96981 10.8361H8.98848L9.01781 10.8401L9.15715 10.8474L9.23848 10.8554H9.34048L9.36915 10.8514L9.39181 10.8441L9.40648 10.8361C9.33751 10.808 9.26905 10.7786 9.20115 10.7481C9.15621 10.7253 9.11086 10.7033 9.06515 10.6821L8.92648 10.6094L8.86048 10.5687C8.81983 10.54 8.7796 10.5106 8.73981 10.4807L8.68848 10.4367L8.66581 10.4114L8.64315 10.3894L8.62915 10.3674L8.61381 10.3414L8.59915 10.3201L8.59115 10.2947L8.58515 10.2474H8.60981L8.63915 10.2507L8.66848 10.2627L8.69781 10.2734L8.75581 10.3101L8.82181 10.3467L8.85115 10.3654L8.88381 10.3827L8.91648 10.3974L8.94581 10.4087L8.97848 10.4167L9.00781 10.4201H9.04115L9.06981 10.4087L8.98315 10.3421C8.91134 10.2825 8.84045 10.2218 8.77048 10.1601C8.65445 10.0496 8.54302 9.93437 8.43648 9.81472L8.38981 9.75272L8.34181 9.69405C8.3155 9.65642 8.28972 9.61842 8.26448 9.58005L8.25781 9.56539V9.54005L8.26115 9.52872L8.26448 9.51805L8.27581 9.51072L8.28648 9.49939L8.29848 9.49139L8.31248 9.48739L8.32715 9.48472H8.35648L8.37448 9.48739L8.39048 9.49139L8.40448 9.50272C8.48381 9.58139 8.56181 9.66072 8.63848 9.74139C8.72315 9.82272 8.81115 9.90139 8.90248 9.97605L8.98648 10.0301L9.02981 10.0527L9.07048 10.0667L9.04181 10.0487L8.96515 9.97205C8.87115 9.86405 8.78181 9.75205 8.69381 9.63872C8.65506 9.58548 8.61705 9.5317 8.57981 9.47739C8.5466 9.42429 8.51237 9.37184 8.47715 9.32005C8.44922 9.27422 8.42233 9.22776 8.39648 9.18072C8.38161 9.14266 8.36605 9.10488 8.34981 9.06739L8.34515 9.04939V9.01939L8.34981 9.00872L8.36381 8.98672L8.37181 8.97872L8.38315 8.97205L8.43048 8.95672H8.48181L8.49648 8.96005L8.50715 8.96405L8.52181 8.97205L8.56248 9.00872L8.65781 9.13005C8.73248 9.24472 8.81115 9.35672 8.89248 9.46672L8.97915 9.57672L9.02715 9.62405L9.07848 9.66805C9.02009 9.55727 8.96407 9.44524 8.91048 9.33205C8.88779 9.2799 8.86579 9.22745 8.84448 9.17472L8.81515 9.09405C8.79965 9.03845 8.78253 8.98332 8.76381 8.92872L8.74581 8.84805L8.73248 8.76605L8.72448 8.68939L8.72115 8.61672L8.72448 8.58005L8.72915 8.54672L8.73248 8.51339L8.73981 8.48072L8.74715 8.46872L8.75115 8.45805L8.76181 8.44605L8.76915 8.43939L8.79448 8.42805L8.82048 8.42139H8.84581L8.86781 8.42539L8.87848 8.42805L8.88648 8.43205L8.89048 8.44005L8.89448 8.45072C8.95715 8.65539 9.00848 8.86339 9.06248 9.07072C9.08381 9.12872 9.10581 9.18605 9.12915 9.24272L9.15448 9.29739L9.18381 9.34872L9.21648 9.40005L9.19515 9.29339C9.18677 9.2325 9.17699 9.17182 9.16581 9.11139C9.15849 9.04062 9.15249 8.96971 9.14781 8.89872L9.15515 8.80339L9.16248 8.76605L9.17381 8.73739L9.18848 8.71539L9.19581 8.70739L9.20648 8.70005L9.21715 8.69672H9.25048L9.28048 8.70739L9.30915 8.72205L9.36048 8.95272C9.37915 9.02272 9.39981 9.09272 9.42248 9.16139C9.45981 9.26605 9.50048 9.37005 9.54381 9.47272L9.59515 9.57872L9.66848 9.71872L9.74848 9.85739L9.83715 9.98939L9.93181 10.1207L10.0205 10.2307C10.0818 10.3001 10.1438 10.3687 10.2071 10.4361C10.2731 10.5007 10.3405 10.5641 10.4091 10.6261L10.5151 10.7147C10.6125 10.7907 10.7125 10.8627 10.8158 10.9307C10.8965 10.9787 10.9785 11.0254 11.0611 11.0701L11.3131 11.1914C11.4411 11.2421 11.5705 11.2887 11.7011 11.3301C11.8291 11.3641 11.9591 11.3934 12.0898 11.4181C12.2651 11.4461 12.4451 11.4627 12.6258 11.4701Z" fill="#FFCC4D"/>
<path d="M2.30372 16.0148C2.30372 16.0148 2.14572 16.1462 2.09239 16.0802C2.00639 15.9735 2.35706 15.4408 2.35706 15.2528C2.35706 14.9455 2.15106 14.8602 1.89772 14.8168C1.72706 14.7875 1.45039 14.8295 1.45039 14.8295C1.50239 14.8995 1.53639 14.9215 1.62439 14.9255C1.56376 14.9574 1.51319 15.0055 1.47834 15.0645C1.44349 15.1235 1.42574 15.191 1.42706 15.2595C1.42706 15.5235 1.53639 15.6328 1.53639 15.9322C1.53639 16.0982 1.40039 16.3088 1.40039 16.3088C1.64039 16.2848 1.76039 16.0628 1.69239 15.8842C1.71076 15.8807 1.72969 15.8818 1.74757 15.8872C1.76544 15.8927 1.78173 15.9024 1.79506 15.9155C1.81239 15.8668 1.78506 15.8088 1.74772 15.7602C1.77772 15.7448 1.79972 15.7542 1.84706 15.7635C1.84239 15.7128 1.81172 15.6595 1.73772 15.6088C1.95372 15.6642 2.08639 15.5142 2.08639 15.3568C2.08639 15.2368 2.00306 15.1515 1.92106 15.1515C1.89 15.1525 1.8598 15.1619 1.83372 15.1788C1.81839 15.1468 1.82639 15.1028 1.84172 15.0702C1.78239 15.0855 1.74439 15.1208 1.77172 15.1955C1.75139 15.1958 1.73135 15.2004 1.71287 15.2089C1.69439 15.2174 1.67788 15.2296 1.66439 15.2448C1.67714 15.2608 1.69354 15.2735 1.71222 15.2819C1.73089 15.2902 1.7513 15.294 1.77172 15.2928C1.73839 15.3622 1.77572 15.4015 1.82972 15.4322C1.82972 15.4322 1.79506 15.2928 1.88372 15.2928C1.92372 15.2928 1.95972 15.3068 1.95972 15.3648C1.95972 15.4148 1.91506 15.4855 1.81239 15.4815C1.70906 15.4768 1.62572 15.4102 1.62572 15.2468C1.62572 15.0942 1.74772 15.0188 1.90839 15.0142C2.05372 15.0095 2.16306 15.0882 2.16306 15.2382C2.16306 15.4368 1.87506 15.8915 1.87506 16.0688C1.87506 16.2022 1.99439 16.2762 2.11172 16.2762C2.26372 16.2762 2.39172 16.1255 2.39172 16.1255L2.30372 16.0148ZM2.27039 12.4135C2.27039 12.0815 2.56906 11.9102 2.80372 11.9102C3.11972 11.9102 3.28839 12.0995 3.28839 12.3462C3.28839 12.4875 3.26239 12.5755 3.19772 12.7095L2.47306 14.2142C2.44653 14.2773 2.4349 14.3458 2.43906 14.4142C2.43906 14.5488 2.57039 14.6595 2.70772 14.6628C2.83239 14.6662 2.96906 14.5462 2.96906 14.4095C2.96906 14.2435 2.88372 14.1702 2.79506 14.1702C2.68639 14.1702 2.64306 14.2142 2.64306 14.2908C2.64306 14.3448 2.66906 14.3675 2.70572 14.3675C2.79906 14.3675 2.77306 14.2422 2.77306 14.2422C2.78548 14.2447 2.79718 14.25 2.80733 14.2576C2.81749 14.2652 2.82585 14.275 2.83182 14.2862C2.8378 14.2974 2.84125 14.3097 2.84192 14.3224C2.8426 14.3351 2.84048 14.3477 2.83572 14.3595C2.87064 14.3668 2.90222 14.3853 2.92572 14.4122C2.90172 14.4377 2.8702 14.455 2.83572 14.4615C2.85772 14.5335 2.82839 14.5688 2.76572 14.5842C2.77653 14.5599 2.77955 14.5329 2.77439 14.5068C2.67506 14.5348 2.52306 14.4908 2.52306 14.3188C2.52306 14.1482 2.64106 14.0048 2.86306 14.0402C2.80972 14.0162 2.78372 13.9648 2.77839 13.9062C2.81839 13.9228 2.86306 13.9248 2.86306 13.9248C2.83706 13.8795 2.80106 13.8402 2.80239 13.7495C2.84372 13.7688 2.88172 13.8028 2.93439 13.7808C2.85172 13.6188 2.95306 13.3962 3.21172 13.3422C3.12392 13.4376 3.07391 13.5618 3.07106 13.6915C3.07106 14.0782 3.17906 14.1422 3.17906 14.4102C3.17727 14.4726 3.16076 14.5338 3.13087 14.5887C3.10099 14.6436 3.05856 14.6907 3.00706 14.7262V14.7215C3.08172 14.7415 3.13039 14.7795 3.15839 14.8295C2.98572 14.8782 2.73439 14.8775 2.60039 14.8248C2.53965 14.816 2.48163 14.7938 2.43055 14.7598C2.37946 14.7258 2.3366 14.6808 2.30506 14.6282C2.27247 14.553 2.25566 14.472 2.25566 14.3902C2.25566 14.3083 2.27247 14.2273 2.30506 14.1522C2.40772 13.9382 2.89172 12.9122 3.04239 12.5888C3.07563 12.5202 3.09316 12.4451 3.09372 12.3688C3.09372 12.1722 2.91306 12.1028 2.81039 12.1028C2.68706 12.1028 2.56172 12.1975 2.56172 12.3135C2.56172 12.3882 2.60239 12.4322 2.65972 12.4322C2.79906 12.4322 2.79039 12.3142 2.76239 12.2395C2.84839 12.2795 2.89906 12.3475 2.88506 12.4208C2.93439 12.4275 2.98106 12.4508 3.02372 12.4988C2.98972 12.5428 2.94839 12.5748 2.88506 12.5755C2.91306 12.6888 2.83706 12.7368 2.76239 12.7628C2.78572 12.6802 2.80106 12.5835 2.65972 12.5835C2.55639 12.5835 2.47506 12.5655 2.42772 12.4982C2.42439 12.5882 2.41572 12.9415 2.41572 12.9415C2.41039 13.0748 2.59372 13.0708 2.71039 13.0315C2.66572 13.1848 2.57572 13.2682 2.36572 13.2468C2.39789 13.2592 2.42535 13.2814 2.44425 13.3102C2.46315 13.339 2.47252 13.3731 2.47106 13.4075C2.47106 13.5328 2.36972 13.6708 2.30372 13.7122L2.27039 12.4135Z" fill="#FFCC4D"/>
<path d="M2.33636 12.4135C2.33636 12.0815 2.03769 11.9101 1.80303 11.9101C1.48703 11.9101 1.31836 12.0995 1.31836 12.3461C1.31836 12.4875 1.34436 12.5755 1.40903 12.7095L2.13369 14.2141C2.15999 14.2774 2.17139 14.3458 2.16703 14.4141C2.16703 14.5488 2.03569 14.6595 1.89903 14.6628C1.77369 14.6661 1.63769 14.5461 1.63769 14.4095C1.63769 14.2435 1.72303 14.1701 1.81169 14.1701C1.92036 14.1701 1.96369 14.2141 1.96369 14.2908C1.96369 14.3448 1.93769 14.3675 1.90103 14.3675C1.80769 14.3675 1.83369 14.2421 1.83369 14.2421C1.82127 14.2447 1.80957 14.25 1.79942 14.2576C1.78926 14.2652 1.7809 14.275 1.77493 14.2862C1.76895 14.2973 1.7655 14.3097 1.76483 14.3224C1.76415 14.3351 1.76627 14.3477 1.77103 14.3595C1.73611 14.3668 1.70453 14.3853 1.68103 14.4121C1.70503 14.4377 1.73655 14.455 1.77103 14.4615C1.74969 14.5335 1.77903 14.5688 1.84169 14.5835C1.83089 14.5592 1.82786 14.5322 1.83303 14.5061C1.93236 14.5341 2.08436 14.4901 2.08436 14.3181C2.08436 14.1475 1.96636 14.0041 1.74503 14.0395C1.79769 14.0155 1.82436 13.9641 1.82903 13.9055C1.80215 13.916 1.77382 13.9223 1.74503 13.9241C1.77036 13.8788 1.80636 13.8395 1.80503 13.7488C1.76369 13.7681 1.72636 13.8021 1.67303 13.7801C1.75569 13.6181 1.65436 13.3955 1.39569 13.3415C1.4835 13.4369 1.53351 13.5611 1.53636 13.6908C1.53636 14.0775 1.42903 14.1415 1.42903 14.4095C1.42903 14.5215 1.48703 14.6435 1.60103 14.7255V14.7208C1.56964 14.7272 1.53996 14.7401 1.51389 14.7587C1.48782 14.7773 1.46595 14.8012 1.44969 14.8288C1.62236 14.8775 1.87303 14.8768 2.00769 14.8241C2.06843 14.8153 2.12645 14.7931 2.17754 14.7591C2.22862 14.7251 2.27149 14.6801 2.30303 14.6275C2.33561 14.5524 2.35243 14.4714 2.35243 14.3895C2.35243 14.3076 2.33561 14.2266 2.30303 14.1515C2.20036 13.9375 1.71636 12.9115 1.56569 12.5881C1.53246 12.5195 1.51492 12.4444 1.51436 12.3681C1.51436 12.1715 1.69503 12.1021 1.79769 12.1021C1.92103 12.1021 2.04636 12.1968 2.04636 12.3128C2.04636 12.3875 2.00569 12.4315 1.94836 12.4315C1.80903 12.4315 1.81769 12.3135 1.84503 12.2388C1.75903 12.2788 1.70836 12.3468 1.72236 12.4201C1.66817 12.4284 1.61885 12.4561 1.58369 12.4981C1.61769 12.5421 1.65903 12.5741 1.72236 12.5748C1.69436 12.6881 1.77036 12.7361 1.84503 12.7621C1.82169 12.6795 1.80636 12.5828 1.94836 12.5828C2.05169 12.5828 2.13303 12.5648 2.18036 12.4975L2.19236 12.9408C2.19769 13.0741 2.01369 13.0701 1.89703 13.0308C1.94103 13.1835 2.03169 13.2668 2.24103 13.2455C2.20886 13.2579 2.1814 13.28 2.1625 13.3089C2.1436 13.3377 2.13423 13.3717 2.13569 13.4061C2.13569 13.5315 2.23636 13.6695 2.30303 13.7108L2.33636 12.4135ZM2.30369 16.0148C2.30369 16.0148 2.46169 16.1461 2.51503 16.0801C2.60103 15.9735 2.25036 15.4408 2.25036 15.2528C2.25036 14.9455 2.45636 14.8601 2.70969 14.8168C2.88036 14.7875 3.15769 14.8295 3.15769 14.8295C3.10503 14.8995 3.07169 14.9215 2.98369 14.9255C3.04428 14.9574 3.0948 15.0056 3.12964 15.0645C3.16448 15.1235 3.18227 15.191 3.18103 15.2595C3.18103 15.5235 3.07169 15.6328 3.07169 15.9321C3.07169 16.0981 3.20769 16.3088 3.20769 16.3088C2.96769 16.2848 2.84769 16.0628 2.91569 15.8841C2.89732 15.8808 2.87842 15.8819 2.86057 15.8874C2.84271 15.8928 2.82641 15.9025 2.81303 15.9155C2.79569 15.8668 2.82369 15.8088 2.86036 15.7601C2.83036 15.7448 2.80836 15.7541 2.76103 15.7635C2.76569 15.7128 2.79569 15.6595 2.87036 15.6088C2.65436 15.6641 2.52169 15.5141 2.52169 15.3568C2.52169 15.2368 2.60503 15.1515 2.68703 15.1515C2.71369 15.1515 2.75236 15.1628 2.77436 15.1788C2.78969 15.1468 2.78169 15.1028 2.76569 15.0701C2.82569 15.0855 2.86303 15.1208 2.83636 15.1955C2.85669 15.1958 2.87671 15.2004 2.89519 15.2089C2.91366 15.2174 2.93017 15.2296 2.94369 15.2448C2.93094 15.2608 2.91454 15.2735 2.89586 15.2819C2.87719 15.2902 2.85678 15.294 2.83636 15.2928C2.86969 15.3621 2.83236 15.4015 2.77836 15.4321C2.77836 15.4321 2.81303 15.2928 2.72436 15.2928C2.68436 15.2928 2.64836 15.3068 2.64836 15.3648C2.64836 15.4148 2.69303 15.4855 2.79569 15.4815C2.89836 15.4768 2.98169 15.4101 2.98169 15.2468C2.98169 15.0941 2.85969 15.0188 2.69903 15.0141C2.55369 15.0095 2.44436 15.0881 2.44436 15.2381C2.44436 15.4368 2.73236 15.8915 2.73236 16.0688C2.73236 16.2021 2.61303 16.2761 2.49569 16.2761C2.34369 16.2761 2.21569 16.1255 2.21569 16.1255L2.30369 16.0148ZM2.27036 6.58481C2.27036 6.25148 2.56903 6.08081 2.80369 6.08081C3.11969 6.08081 3.28836 6.27014 3.28836 6.51748C3.28836 6.65814 3.26236 6.74614 3.19769 6.88014L2.47303 8.38548C2.44647 8.44841 2.43483 8.51663 2.43903 8.58481C2.43903 8.72014 2.57036 8.83014 2.70769 8.83414C2.83236 8.83681 2.96903 8.71681 2.96903 8.58081C2.96903 8.41548 2.88369 8.34148 2.79503 8.34148C2.68636 8.34148 2.64303 8.38614 2.64303 8.46281C2.64303 8.51548 2.66903 8.53881 2.70569 8.53881C2.79903 8.53881 2.77303 8.41348 2.77303 8.41348C2.78534 8.416 2.79695 8.42119 2.80704 8.42868C2.81713 8.43618 2.82546 8.44579 2.83143 8.45685C2.83741 8.46791 2.84088 8.48014 2.84162 8.49269C2.84236 8.50524 2.84033 8.5178 2.83569 8.52948C2.87064 8.53714 2.90219 8.55583 2.92569 8.58281C2.90158 8.60838 2.87014 8.62585 2.83569 8.63281C2.85769 8.70481 2.82836 8.73948 2.76569 8.75481C2.77654 8.73056 2.77957 8.70353 2.77436 8.67748C2.67503 8.70548 2.52303 8.66148 2.52303 8.48948C2.52303 8.31948 2.64103 8.17614 2.86303 8.21148C2.80969 8.18614 2.78369 8.13481 2.77836 8.07748C2.81836 8.09348 2.86303 8.09481 2.86303 8.09481C2.83703 8.04948 2.80103 8.01014 2.80236 7.92014C2.84369 7.93881 2.88169 7.97348 2.93436 7.95148C2.85169 7.78881 2.95303 7.56548 3.21169 7.51281C3.12409 7.60841 3.07412 7.73252 3.07103 7.86214C3.07103 8.24814 3.17903 8.31281 3.17903 8.58148C3.17903 8.69348 3.12103 8.81481 3.00703 8.89748V8.89281C3.08036 8.91281 3.12836 8.94948 3.15703 9.00014C2.98436 9.04948 2.73303 9.04814 2.59903 8.99548C2.53833 8.98654 2.48037 8.96427 2.4293 8.93027C2.37824 8.89626 2.33534 8.85137 2.30369 8.79881C2.2711 8.72393 2.25428 8.64314 2.25428 8.56148C2.25428 8.47981 2.2711 8.39902 2.30369 8.32414C2.40636 8.10948 2.89036 7.08348 3.04103 6.76014C3.07391 6.69141 3.09143 6.61633 3.09236 6.54014C3.09236 6.34281 2.91169 6.27348 2.80903 6.27348C2.68569 6.27348 2.56036 6.36748 2.56036 6.48348C2.56036 6.55814 2.60103 6.60281 2.65836 6.60281C2.79769 6.60281 2.78903 6.48414 2.76103 6.41014C2.84703 6.44881 2.89769 6.51814 2.88369 6.59148C2.93303 6.59814 2.97969 6.62081 3.02236 6.67014C2.98836 6.71281 2.94703 6.74481 2.88369 6.74614C2.91169 6.86014 2.83569 6.90814 2.76103 6.93414C2.78436 6.85148 2.79969 6.75548 2.65836 6.75548C2.55503 6.75548 2.47369 6.73748 2.42636 6.67081C2.42303 6.76014 2.41436 7.11414 2.41436 7.11414C2.40903 7.24681 2.59236 7.24348 2.70903 7.20348C2.66569 7.35681 2.57569 7.43948 2.36569 7.41814C2.39791 7.43065 2.4254 7.45294 2.44429 7.48188C2.46318 7.51082 2.47253 7.54495 2.47103 7.57948C2.47103 7.70414 2.36969 7.84281 2.30369 7.88348L2.27036 6.58481Z" fill="#FFCC4D"/>
<path d="M2.33636 6.58481C2.33636 6.25148 2.03769 6.08081 1.80303 6.08081C1.48703 6.08081 1.31836 6.27014 1.31836 6.51748C1.31836 6.65814 1.34436 6.74614 1.40903 6.88014L2.13369 8.38548C2.15903 8.43814 2.16703 8.49748 2.16703 8.58481C2.16703 8.72014 2.03569 8.83014 1.89903 8.83414C1.77369 8.83681 1.63769 8.71681 1.63769 8.58081C1.63769 8.41548 1.72303 8.34148 1.81169 8.34148C1.92036 8.34148 1.96369 8.38614 1.96369 8.46281C1.96369 8.51548 1.93769 8.53881 1.90103 8.53881C1.80769 8.53881 1.83369 8.41348 1.83369 8.41348C1.82132 8.41589 1.80963 8.42102 1.79948 8.42849C1.78932 8.43595 1.78095 8.44558 1.77495 8.45667C1.76896 8.46776 1.7655 8.48005 1.76482 8.49263C1.76414 8.50522 1.76626 8.51781 1.77103 8.52948C1.73608 8.53714 1.70452 8.55583 1.68103 8.58281C1.70514 8.60838 1.73658 8.62585 1.77103 8.63281C1.74969 8.70481 1.77836 8.73948 1.84103 8.75481C1.83018 8.73056 1.82715 8.70353 1.83236 8.67748C1.93169 8.70548 2.08369 8.66148 2.08369 8.48948C2.08369 8.31948 1.96569 8.17614 1.74436 8.21148C1.79703 8.18614 1.82369 8.13481 1.82836 8.07748C1.78836 8.09348 1.74436 8.09481 1.74436 8.09481C1.76969 8.04948 1.80569 8.01014 1.80436 7.92014C1.76303 7.93881 1.72569 7.97348 1.67236 7.95148C1.75503 7.78881 1.65369 7.56548 1.39503 7.51281C1.48262 7.60841 1.5326 7.73252 1.53569 7.86214C1.53569 8.24814 1.42836 8.31281 1.42836 8.58148C1.42836 8.69348 1.48636 8.81481 1.60036 8.89748V8.89281C1.52636 8.91281 1.47769 8.94948 1.45036 9.00014C1.62303 9.04948 1.87369 9.04814 2.00836 8.99548C2.06906 8.98654 2.12702 8.96427 2.17808 8.93027C2.22915 8.89626 2.27205 8.85137 2.30369 8.79881C2.33629 8.72393 2.35311 8.64314 2.35311 8.56148C2.35311 8.47981 2.33629 8.39902 2.30369 8.32414C2.20103 8.10948 1.71703 7.08348 1.56636 6.76014C1.53318 6.69175 1.51564 6.61683 1.51503 6.54081C1.51503 6.34348 1.69569 6.27414 1.79836 6.27414C1.92169 6.27414 2.04703 6.36814 2.04703 6.48414C2.04703 6.55881 2.00636 6.60348 1.94903 6.60348C1.80969 6.60348 1.81836 6.48481 1.84569 6.41081C1.75969 6.44948 1.70903 6.51881 1.72303 6.59214C1.66859 6.60011 1.61912 6.62817 1.58436 6.67081C1.61836 6.71348 1.65969 6.74548 1.72303 6.74681C1.69503 6.86081 1.77103 6.90881 1.84569 6.93481C1.82236 6.85214 1.80703 6.75614 1.94903 6.75614C2.05236 6.75614 2.13369 6.73814 2.18103 6.67148L2.19236 7.11348C2.19769 7.24614 2.01369 7.24281 1.89703 7.20281C1.94103 7.35614 2.03169 7.43881 2.24103 7.41814C2.20881 7.43065 2.18132 7.45294 2.16243 7.48188C2.14354 7.51082 2.13419 7.54495 2.13569 7.57948C2.13569 7.70414 2.23636 7.84281 2.30303 7.88348L2.33636 6.58481Z" fill="#FFCC4D"/>
<path d="M2.33642 5.58596C2.33642 5.91863 2.03775 6.08996 1.80309 6.08996C1.48709 6.08996 1.31842 5.90063 1.31842 5.65263C1.31842 5.51263 1.34442 5.42463 1.40909 5.28996L2.13375 3.78463C2.16004 3.72163 2.17145 3.65342 2.16709 3.58529C2.16709 3.45063 2.03575 3.33996 1.89909 3.33663C1.77375 3.33396 1.63775 3.45329 1.63775 3.58996C1.63775 3.75596 1.72309 3.82929 1.81175 3.82929C1.92042 3.82929 1.96375 3.78463 1.96375 3.70796C1.96375 3.65463 1.93775 3.63196 1.90109 3.63196C1.80775 3.63196 1.83375 3.75729 1.83375 3.75729C1.82136 3.75479 1.80966 3.74959 1.79951 3.74205C1.78935 3.73451 1.78098 3.72483 1.775 3.71369C1.76902 3.70255 1.76556 3.69022 1.76489 3.67759C1.76421 3.66497 1.76633 3.65234 1.77109 3.64063C1.73599 3.63376 1.70426 3.61519 1.68109 3.58796C1.70542 3.56281 1.73679 3.54561 1.77109 3.53863C1.74975 3.46663 1.77909 3.43196 1.84175 3.41663C1.83091 3.44088 1.82788 3.46791 1.83309 3.49396C1.93242 3.46596 2.08442 3.51129 2.08442 3.68196C2.08442 3.85196 1.96642 3.99529 1.74509 3.95996C1.79775 3.98529 1.82442 4.03663 1.82909 4.09396C1.80204 4.08428 1.77376 4.07844 1.74509 4.07663C1.77042 4.12196 1.80642 4.16129 1.80509 4.25129C1.76375 4.23263 1.72642 4.19796 1.67309 4.21996C1.75575 4.38263 1.65442 4.60596 1.39575 4.65929C1.48334 4.56343 1.53331 4.43911 1.53642 4.30929C1.53642 3.92396 1.42909 3.85863 1.42909 3.59063C1.42909 3.47863 1.48709 3.35729 1.60109 3.27463V3.27929C1.56978 3.27269 1.5402 3.25961 1.51426 3.2409C1.48831 3.22218 1.46656 3.19825 1.45042 3.17063C1.62309 3.12196 1.87375 3.12263 2.00842 3.17596C2.06922 3.18483 2.12727 3.20715 2.17836 3.24129C2.22945 3.27542 2.27229 3.32052 2.30375 3.37329C2.33638 3.44816 2.35323 3.52896 2.35323 3.61063C2.35323 3.6923 2.33638 3.77309 2.30375 3.84796C2.20109 4.06263 1.71709 5.08863 1.56642 5.41129C1.53317 5.47966 1.51563 5.5546 1.51509 5.63063C1.51509 5.82863 1.69575 5.89729 1.79842 5.89729C1.92175 5.89729 2.04709 5.80329 2.04709 5.68663C2.04709 5.61263 2.00642 5.56729 1.94909 5.56729C1.80975 5.56729 1.81842 5.68529 1.84575 5.75996C1.75975 5.72129 1.70909 5.65196 1.72309 5.57863C1.66874 5.57042 1.61935 5.5424 1.58442 5.49996C1.61842 5.45729 1.65975 5.42463 1.72309 5.42396C1.69509 5.31063 1.77109 5.26196 1.84575 5.23529C1.82242 5.31863 1.80709 5.41529 1.94909 5.41529C2.05242 5.41529 2.13375 5.43263 2.18109 5.49996L2.19309 5.05596C2.19842 4.92329 2.01442 4.92729 1.89775 4.96663C1.94175 4.81329 2.03242 4.73063 2.24175 4.75129C2.20954 4.73878 2.18205 4.71649 2.16316 4.68756C2.14426 4.65862 2.13491 4.62449 2.13642 4.58996C2.13642 4.46529 2.23709 4.32663 2.30375 4.28596L2.33642 5.58596ZM2.33642 11.4153C2.33642 11.748 2.03775 11.9186 1.80309 11.9186C1.48709 11.9186 1.31842 11.73 1.31842 11.4826C1.3168 11.3559 1.34804 11.231 1.40909 11.12L2.13375 9.61463C2.16004 9.55163 2.17145 9.48342 2.16709 9.41529C2.16709 9.27996 2.03575 9.16996 1.89909 9.16663C1.77375 9.16329 1.63775 9.28329 1.63775 9.41929C1.63775 9.58463 1.72309 9.65863 1.81175 9.65863C1.92042 9.65863 1.96375 9.61396 1.96375 9.53729C1.96375 9.48463 1.93775 9.46196 1.90109 9.46196C1.80775 9.46196 1.83375 9.58729 1.83375 9.58729C1.82142 9.58469 1.8098 9.57942 1.79971 9.57185C1.78961 9.56429 1.7813 9.55462 1.77533 9.54351C1.76936 9.5324 1.76589 9.52013 1.76516 9.50754C1.76443 9.49495 1.76645 9.48235 1.77109 9.47063C1.73592 9.46353 1.70419 9.44473 1.68109 9.41729C1.70526 9.39193 1.7367 9.3747 1.77109 9.36796C1.74975 9.29529 1.77842 9.26063 1.84109 9.24529C1.83024 9.26955 1.82721 9.29657 1.83242 9.32263C1.93175 9.29463 2.08375 9.33929 2.08375 9.51063C2.08375 9.68063 1.96575 9.82329 1.74442 9.78863C1.79709 9.81463 1.82375 9.86529 1.82842 9.92329C1.78842 9.90796 1.74442 9.90529 1.74442 9.90529C1.76975 9.95063 1.80575 9.99063 1.80442 10.08C1.76309 10.0613 1.72575 10.0266 1.67242 10.0486C1.75509 10.2106 1.65375 10.4353 1.39509 10.4873C1.48279 10.3918 1.53278 10.2676 1.53575 10.138C1.53575 9.75329 1.42842 9.68729 1.42842 9.41929C1.42842 9.30663 1.48642 9.18529 1.60042 9.10329V9.10729C1.52642 9.08796 1.47775 9.05129 1.45042 8.99996C1.62309 8.95129 1.87375 8.95196 2.00842 9.00529C2.06912 9.01423 2.12708 9.0365 2.17814 9.0705C2.22921 9.10451 2.27211 9.1494 2.30375 9.20196C2.33634 9.27684 2.35317 9.35763 2.35317 9.43929C2.35317 9.52096 2.33634 9.60175 2.30375 9.67663C2.20109 9.89129 1.71709 10.9173 1.56642 11.2406C1.53309 11.309 1.51554 11.3839 1.51509 11.46C1.51509 11.6573 1.69575 11.726 1.79842 11.726C1.92175 11.726 2.04709 11.632 2.04709 11.5153C2.04709 11.4426 2.00642 11.3973 1.94909 11.3973C1.80975 11.3973 1.81842 11.5153 1.84575 11.5893C1.75975 11.5506 1.70909 11.4806 1.72309 11.408C1.66869 11.4004 1.61916 11.3725 1.58442 11.33C1.60022 11.3075 1.62092 11.289 1.64494 11.2757C1.66896 11.2624 1.69568 11.2547 1.72309 11.2533C1.69509 11.14 1.77109 11.0926 1.84575 11.066C1.82242 11.1493 1.80709 11.2453 1.94909 11.2453C2.05242 11.2453 2.13375 11.2626 2.18109 11.3306L2.19309 10.8866C2.19842 10.7546 2.01442 10.758 1.89775 10.7973C1.94175 10.6446 2.03242 10.562 2.24175 10.5826C2.20954 10.5701 2.18205 10.5478 2.16316 10.5189C2.14426 10.49 2.13491 10.4558 2.13642 10.4213C2.13642 10.2966 2.23709 10.1586 2.30375 10.1173L2.33642 11.4153Z" fill="#FFCC4D"/>
<path d="M2.27018 11.4154C2.27018 11.7481 2.56884 11.9187 2.80351 11.9187C3.11951 11.9187 3.28818 11.7301 3.28818 11.4827C3.28979 11.356 3.25855 11.2311 3.19751 11.1201L2.47284 9.61474C2.44628 9.55181 2.43465 9.48358 2.43884 9.41541C2.43884 9.28007 2.57018 9.17007 2.70751 9.16674C2.83218 9.16341 2.96884 9.28341 2.96884 9.41941C2.96884 9.58474 2.88351 9.65874 2.79484 9.65874C2.68618 9.65874 2.64284 9.61407 2.64284 9.53741C2.64284 9.48474 2.66884 9.46207 2.70551 9.46207C2.79884 9.46207 2.77284 9.58741 2.77284 9.58741C2.78518 9.5848 2.7968 9.57953 2.80689 9.57197C2.81698 9.5644 2.8253 9.55473 2.83127 9.54362C2.83723 9.53252 2.84071 9.52024 2.84144 9.50765C2.84217 9.49506 2.84015 9.48246 2.83551 9.47074C2.87068 9.46365 2.9024 9.44485 2.92551 9.41741C2.90134 9.39205 2.86989 9.37481 2.83551 9.36807C2.85751 9.29541 2.82818 9.26074 2.76551 9.24541C2.77818 9.27341 2.77818 9.29874 2.77418 9.32274C2.67484 9.29474 2.52284 9.33941 2.52284 9.51074C2.52284 9.68074 2.64084 9.82341 2.86284 9.78874C2.80951 9.81474 2.78351 9.86541 2.77818 9.92341C2.81818 9.90807 2.86284 9.90541 2.86284 9.90541C2.83684 9.95074 2.80084 9.99074 2.80218 10.0801C2.84351 10.0614 2.88151 10.0267 2.93418 10.0487C2.85151 10.2107 2.95284 10.4354 3.21151 10.4874C3.12381 10.3919 3.07382 10.2677 3.07084 10.1381C3.07084 9.75341 3.17884 9.68741 3.17884 9.41941C3.17716 9.35689 3.1607 9.29567 3.1308 9.24075C3.10091 9.18582 3.05843 9.13876 3.00684 9.10341V9.10741C3.03826 9.10108 3.06798 9.0882 3.09406 9.06958C3.12014 9.05097 3.14199 9.02706 3.15818 8.99941C2.98551 8.95074 2.73418 8.95141 2.60018 9.00474C2.53948 9.01367 2.48152 9.03594 2.43045 9.06995C2.37939 9.10395 2.33649 9.14885 2.30484 9.20141C2.27225 9.27629 2.25543 9.35708 2.25543 9.43874C2.25543 9.5204 2.27225 9.60119 2.30484 9.67607C2.40751 9.89074 2.89151 10.9167 3.04218 11.2401C3.07418 11.3081 3.09351 11.3801 3.09351 11.4594C3.09351 11.6567 2.91284 11.7254 2.81018 11.7254C2.68684 11.7254 2.56151 11.6314 2.56151 11.5147C2.56151 11.4421 2.60218 11.3967 2.65951 11.3967C2.79884 11.3967 2.79018 11.5147 2.76218 11.5887C2.84818 11.5501 2.89884 11.4801 2.88484 11.4074C2.93933 11.4001 2.98894 11.3722 3.02351 11.3294C3.00771 11.307 2.98701 11.2884 2.96299 11.2751C2.93897 11.2618 2.91225 11.2542 2.88484 11.2527C2.91284 11.1394 2.83684 11.0921 2.76218 11.0654C2.78551 11.1487 2.80084 11.2447 2.65951 11.2447C2.55618 11.2447 2.47484 11.2621 2.42751 11.3301C2.42418 11.2407 2.41551 10.8861 2.41551 10.8861C2.41018 10.7541 2.59351 10.7574 2.71018 10.7967C2.66551 10.6441 2.57551 10.5614 2.36551 10.5821C2.39773 10.5696 2.42521 10.5473 2.44411 10.5183C2.463 10.4894 2.47235 10.4553 2.47084 10.4207C2.47084 10.2961 2.36951 10.1581 2.30351 10.1167L2.27018 11.4154ZM2.30351 1.98607C2.30351 1.98607 2.46151 1.85341 2.51484 1.91941C2.60084 2.02674 2.25018 2.55941 2.25018 2.74741C2.25018 3.05541 2.45618 3.13874 2.70951 3.18274C2.88018 3.21274 3.15751 3.17074 3.15751 3.17074C3.10418 3.10074 3.07084 3.08007 2.98284 3.07474C3.04347 3.04319 3.09407 2.99532 3.12894 2.93654C3.16381 2.87776 3.18156 2.8104 3.18018 2.74207C3.18018 2.47674 3.07084 2.36741 3.07084 2.06874C3.07084 1.90274 3.20684 1.69141 3.20684 1.69141C2.96684 1.71607 2.84684 1.93807 2.91484 2.11607C2.89658 2.11945 2.87776 2.11837 2.86 2.11291C2.84224 2.10746 2.82607 2.09779 2.81284 2.08474C2.79551 2.13407 2.82351 2.19141 2.86018 2.24074C2.83018 2.25674 2.80818 2.24674 2.76084 2.23674C2.76551 2.28807 2.79551 2.34141 2.87018 2.39207C2.65351 2.33607 2.52084 2.48674 2.52084 2.64474C2.52084 2.76407 2.60418 2.84874 2.68618 2.84874C2.71284 2.84874 2.75151 2.83807 2.77351 2.82141C2.78884 2.85407 2.78084 2.89807 2.76484 2.93074C2.82484 2.91541 2.86218 2.87941 2.83551 2.80541C2.87639 2.80374 2.91496 2.78601 2.94284 2.75607C2.92995 2.74003 2.91344 2.72726 2.89468 2.7188C2.87591 2.71034 2.85541 2.70644 2.83484 2.70741C2.86818 2.63807 2.83084 2.59941 2.77684 2.56874C2.77684 2.56874 2.81151 2.70741 2.72284 2.70741C2.68284 2.70741 2.64684 2.69407 2.64684 2.63607C2.64684 2.58541 2.69151 2.51474 2.79418 2.51941C2.89684 2.52341 2.98018 2.59007 2.98018 2.75474C2.98018 2.90607 2.85818 2.98074 2.69751 2.98607C2.55284 2.99007 2.44351 2.91141 2.44351 2.76207C2.44351 2.56274 2.73151 2.10941 2.73151 1.93141C2.73151 1.79807 2.61218 1.72341 2.49484 1.72341C2.34284 1.72341 2.21484 1.87407 2.21484 1.87407L2.30351 1.98607Z" fill="#FFCC4D"/>
<path d="M2.30439 1.98607C2.30439 1.98607 2.14639 1.85341 2.09306 1.91941C2.00639 2.02741 2.35772 2.56007 2.35772 2.74807C2.35772 3.05607 2.15172 3.13941 1.89839 3.18341C1.72772 3.21274 1.45106 3.17074 1.45106 3.17074C1.50306 3.10074 1.53706 3.08007 1.62506 3.07474C1.56425 3.04334 1.51347 2.99553 1.47847 2.93673C1.44347 2.87793 1.42566 2.81049 1.42706 2.74207C1.42706 2.47674 1.53639 2.36741 1.53639 2.06874C1.53639 1.90274 1.40039 1.69141 1.40039 1.69141C1.64039 1.71607 1.76039 1.93807 1.69239 2.11607C1.71076 2.11934 1.72965 2.1182 1.74749 2.11276C1.76534 2.10731 1.78164 2.09771 1.79506 2.08474C1.81239 2.13407 1.78506 2.19141 1.74772 2.24074C1.77706 2.25674 1.79906 2.24674 1.84706 2.23674C1.84239 2.28807 1.81172 2.34141 1.73772 2.39207C1.95372 2.33607 2.08639 2.48674 2.08639 2.64474C2.08639 2.76407 2.00306 2.84874 1.92106 2.84874C1.88995 2.84806 1.85967 2.83859 1.83372 2.82141C1.81906 2.85474 1.82706 2.89807 1.84239 2.93074C1.78306 2.91541 1.74572 2.87941 1.77239 2.80607C1.75213 2.80535 1.73221 2.80063 1.71378 2.79216C1.69536 2.78369 1.6788 2.77165 1.66506 2.75674C1.67774 2.74058 1.6941 2.72768 1.71276 2.7191C1.73143 2.71052 1.75187 2.70651 1.77239 2.70741C1.73906 2.63807 1.77639 2.59941 1.83039 2.56874C1.83039 2.56874 1.79572 2.70741 1.88439 2.70741C1.92439 2.70741 1.96039 2.69407 1.96039 2.63607C1.96039 2.58541 1.91572 2.51474 1.81306 2.51941C1.70972 2.52341 1.62639 2.59007 1.62639 2.75407C1.62639 2.90541 1.74839 2.98007 1.90906 2.98541C2.05439 2.98941 2.16372 2.91141 2.16372 2.76141C2.16372 2.56207 1.87572 2.10874 1.87572 1.93074C1.87572 1.79741 1.99506 1.72274 2.11239 1.72274C2.26439 1.72274 2.39239 1.87341 2.39239 1.87341L2.30439 1.98607ZM2.27106 5.58607C2.27106 5.91874 2.56972 6.09007 2.80439 6.09007C3.12039 6.09007 3.28906 5.90074 3.28906 5.65274C3.28906 5.51274 3.26306 5.42474 3.19839 5.29007L2.47372 3.78474C2.44763 3.72192 2.43623 3.65397 2.44039 3.58607C2.44039 3.45141 2.57172 3.34074 2.70906 3.33741C2.83372 3.33474 2.97039 3.45407 2.97039 3.59074C2.97039 3.75674 2.88506 3.83007 2.79639 3.83007C2.68772 3.83007 2.64439 3.78541 2.64439 3.70874C2.64439 3.65541 2.67039 3.63274 2.70706 3.63274C2.80039 3.63274 2.77439 3.75807 2.77439 3.75807C2.78673 3.75546 2.79835 3.7502 2.80844 3.74263C2.81853 3.73507 2.82685 3.7254 2.83281 3.71429C2.83878 3.70318 2.84225 3.69091 2.84299 3.67832C2.84372 3.66573 2.84169 3.65313 2.83706 3.64141C2.87191 3.63398 2.90332 3.61523 2.92639 3.58807C2.90188 3.5628 2.87025 3.54559 2.83572 3.53874C2.85772 3.46674 2.82839 3.43207 2.76572 3.41674C2.77839 3.44474 2.77839 3.47007 2.77439 3.49407C2.67506 3.46607 2.52306 3.51074 2.52306 3.68207C2.52306 3.85207 2.64106 3.99541 2.86306 3.96007C2.80972 3.98541 2.78372 4.03674 2.77839 4.09407C2.80566 4.08436 2.83416 4.07853 2.86306 4.07674C2.83706 4.12207 2.80106 4.16141 2.80239 4.25141C2.84372 4.23274 2.88172 4.19807 2.93439 4.22007C2.85172 4.38274 2.95306 4.60607 3.21172 4.65941C3.12413 4.56354 3.07417 4.43923 3.07106 4.30941C3.07106 3.92407 3.17906 3.85874 3.17906 3.59074C3.17722 3.52826 3.16068 3.46709 3.1308 3.41219C3.10092 3.3573 3.05853 3.31021 3.00706 3.27474V3.27941C3.03841 3.2727 3.06803 3.25958 3.09408 3.24088C3.12012 3.22218 3.14201 3.1983 3.15839 3.17074C2.98506 3.12274 2.73372 3.12341 2.59906 3.17674C2.53836 3.1854 2.48038 3.20757 2.42939 3.2416C2.37839 3.27564 2.33568 3.32068 2.30439 3.37341C2.27176 3.44828 2.25492 3.52907 2.25492 3.61074C2.25492 3.69241 2.27176 3.7732 2.30439 3.84807C2.40706 4.06274 2.89106 5.08874 3.04172 5.41141C3.07451 5.47994 3.09203 5.55477 3.09306 5.63074C3.09306 5.82874 2.91239 5.89741 2.80972 5.89741C2.68639 5.89741 2.56106 5.80341 2.56106 5.68674C2.56106 5.61274 2.60172 5.56741 2.65906 5.56741C2.79839 5.56741 2.78972 5.68541 2.76172 5.76007C2.84772 5.72141 2.89839 5.65207 2.88439 5.57874C2.93884 5.57084 2.98834 5.54276 3.02306 5.50007C2.98906 5.45741 2.94772 5.42474 2.88439 5.42407C2.91239 5.31074 2.83639 5.26207 2.76172 5.23541C2.78506 5.31874 2.80039 5.41541 2.65906 5.41541C2.55572 5.41541 2.47439 5.43274 2.42706 5.50007C2.42372 5.41074 2.41506 5.05607 2.41506 5.05607C2.40972 4.92341 2.59306 4.92741 2.70972 4.96674C2.66639 4.81474 2.57639 4.73207 2.36639 4.75274C2.39861 4.74023 2.42609 4.71794 2.44499 4.689C2.46388 4.66006 2.47323 4.62593 2.47172 4.59141C2.47172 4.46674 2.37039 4.32807 2.30439 4.28741L2.27106 5.58607Z" fill="#FFCC4D"/>
</svg>
