<svg width="12" height="20" viewBox="0 0 12 20" fill="none" xmlns="http://www.w3.org/2000/svg">
<path d="M8.08675 14.5344C9.14953 14.291 10.1639 13.8708 11.0874 13.2913C11.4129 13.0715 11.6403 12.7337 11.7212 12.3494C11.8022 11.965 11.7305 11.5643 11.5213 11.2319C11.312 10.8994 10.9817 10.6615 10.6001 10.5683C10.2185 10.4751 9.81566 10.534 9.47674 10.7325C8.434 11.3835 7.22944 11.7286 6.00018 11.7286C4.77093 11.7286 3.56636 11.3835 2.52362 10.7325C2.1851 10.5191 1.7758 10.4485 1.38536 10.5363C0.994914 10.624 0.655156 10.8629 0.440495 11.2006V11.2038C0.334441 11.3715 0.262527 11.5585 0.228875 11.754C0.195224 11.9496 0.200497 12.1499 0.244391 12.3434C0.288286 12.5369 0.369939 12.7199 0.484671 12.8818C0.599403 13.0437 0.744959 13.1813 0.912995 13.2869L0.915495 13.29C1.83662 13.8697 2.84928 14.2891 3.91049 14.5306L1.02299 17.4175C0.74027 17.695 0.579131 18.0733 0.574913 18.4694C0.570695 18.8655 0.723743 19.2472 1.0005 19.5306L1.02612 19.5563C1.313 19.8519 1.7005 19.9987 2.088 19.9987C2.4755 19.9987 2.86237 19.8519 3.14862 19.5563L6.00049 16.7206L8.8355 19.56C9.438 20.1356 10.3949 20.1225 10.9749 19.5206C11.2471 19.2389 11.3992 18.8624 11.3992 18.4706C11.3992 18.0789 11.2471 17.7024 10.9749 17.4206L8.08675 14.5344ZM5.99987 10.3225C7.36836 10.3217 8.68061 9.77785 9.64851 8.81041C10.6164 7.84297 11.1609 6.53099 11.1624 5.1625C11.1624 2.3175 8.84487 0 5.99987 0C3.15487 0 0.83737 2.3175 0.83737 5.1625C0.838859 6.53128 1.38322 7.84358 2.35104 8.81152C3.31885 9.77945 4.63109 10.324 5.99987 10.3256V10.3225ZM5.99987 3.0275C6.56601 3.02783 7.10886 3.25287 7.50918 3.65319C7.9095 4.05351 8.13454 4.59636 8.13487 5.1625C8.13471 5.72909 7.90986 6.27249 7.50963 6.67354C7.1094 7.07459 6.56646 7.30055 5.99987 7.30187C5.43304 7.30039 4.88988 7.07447 4.48919 6.67355C4.0885 6.27262 3.8629 5.72933 3.86175 5.1625C3.86372 4.59604 4.08962 4.05335 4.49017 3.6528C4.89072 3.25225 5.43341 3.02635 5.99987 3.02438V3.0275Z" fill="#26B9CF"/>
</svg>
