<svg width="20" height="20" viewBox="0 0 20 20" fill="none" xmlns="http://www.w3.org/2000/svg">
<path d="M9.65442 4.38812C11.1813 4.38812 12.62 5.06499 13.6744 6.12312V6.12624C13.6744 5.61812 14.0163 5.23374 14.4888 5.23374H14.6088C15.3544 5.23374 15.5038 5.93687 15.5038 6.15874L15.5069 14.0556C15.455 14.5731 16.0413 14.8406 16.3669 14.5081C17.6325 13.2062 19.1494 7.80874 15.5788 4.68374C12.2488 1.76687 7.77942 2.24874 5.40317 3.88624C2.87754 5.63124 1.26317 9.48562 2.83129 13.1081C4.54379 17.0575 9.43942 18.2356 12.3532 17.0606C13.8282 16.465 14.5082 18.4562 12.975 19.1081C10.6644 20.0937 4.22504 19.9931 1.21754 14.785C-0.814331 11.2669 -0.706832 5.07812 4.68442 1.87187C8.80504 -0.582506 14.2419 0.0974942 17.5194 3.51937C20.9444 7.09999 20.7463 13.7994 17.4025 16.4037C15.8882 17.5881 13.6394 16.4362 13.6557 14.7106L13.6388 14.1481C12.5844 15.1925 11.1813 15.805 9.65442 15.805C6.63379 15.805 3.97442 13.145 3.97442 10.1275C3.97442 7.07749 6.63379 4.38937 9.65442 4.38937V4.38812ZM13.4538 9.90937C13.3394 7.69874 11.6988 6.36749 9.71629 6.36749H9.64129C7.35629 6.36749 6.08692 8.16749 6.08692 10.2081C6.08692 12.4962 7.62004 13.9412 9.63192 13.9412C11.8775 13.9412 13.3519 12.2981 13.4594 10.3544L13.4538 9.90937Z" fill="#2D3E50"/>
</svg>
