<svg width="24" height="22" viewBox="0 0 24 22" fill="none" xmlns="http://www.w3.org/2000/svg">
<path d="M11.0742 1.63299C11.3941 0.789003 12.6051 0.789003 12.9261 1.63299L14.996 7.3669C15.0682 7.55369 15.1954 7.71418 15.3607 7.82719C15.526 7.9402 15.7217 8.00042 15.9219 7.99989H21.0087C21.9487 7.99989 22.3587 9.16988 21.6197 9.74287L17.9999 12.9998C17.8377 13.1245 17.7192 13.2973 17.6614 13.4935C17.6035 13.6896 17.6093 13.8991 17.6779 14.0918L18.9998 19.6947C19.3218 20.5947 18.2798 21.3677 17.4919 20.8137L12.5751 17.6937C12.4067 17.5754 12.2059 17.5119 12.0001 17.5119C11.7943 17.5119 11.5935 17.5754 11.4251 17.6937L6.50837 20.8137C5.7214 21.3677 4.67845 20.5937 5.00043 19.6947L6.32237 14.0918C6.39095 13.8991 6.39673 13.6896 6.33888 13.4935C6.28104 13.2973 6.16254 13.1245 6.00039 12.9998L2.38055 9.74287C1.64058 9.16988 2.05256 7.99989 2.99052 7.99989H8.0773C8.27758 8.00056 8.47334 7.9404 8.63869 7.82737C8.80403 7.71434 8.93116 7.55377 9.00325 7.3669L11.0732 1.63299H11.0742Z" stroke="white" stroke-width="2" stroke-linecap="round" stroke-linejoin="round"/>
</svg>
