<svg width="12" height="14" viewBox="0 0 12 14" fill="none" xmlns="http://www.w3.org/2000/svg">
<path d="M0 0.666667C0 0.489856 0.0702379 0.320286 0.195262 0.195262C0.320286 0.0702379 0.489856 0 0.666667 0H11.3333C11.5101 0 11.6797 0.0702379 11.8047 0.195262C11.9298 0.320286 12 0.489856 12 0.666667V2.39067C12 2.56746 11.9297 2.737 11.8047 2.862L7.19533 7.138C7.0703 7.263 7.00004 7.43254 7 7.60933V12L5 14V7.60933C4.99996 7.43254 4.9297 7.263 4.80467 7.138L0.195333 2.862C0.0703004 2.737 3.77583e-05 2.56746 0 2.39067V0.666667Z" fill="#00AFCA"/>
</svg>
