<svg width="20" height="16" viewBox="0 0 20 16" fill="none" xmlns="http://www.w3.org/2000/svg">
<path d="M19.7029 2.11416C19.0071 2.4225 18.2596 2.63083 17.4737 2.725C18.2846 2.23983 18.8912 1.47622 19.1804 0.576665C18.4186 1.02916 17.5849 1.34766 16.7154 1.51833C16.1307 0.894052 15.3563 0.48027 14.5124 0.341226C13.6684 0.202183 12.8022 0.345658 12.0481 0.749375C11.2941 1.15309 10.6944 1.79447 10.3422 2.57392C9.99003 3.35337 9.90503 4.22729 10.1004 5.06C8.55682 4.98249 7.04677 4.58129 5.66827 3.88242C4.28977 3.18355 3.07362 2.20263 2.09875 1.00333C1.76542 1.57833 1.57375 2.245 1.57375 2.955C1.57338 3.59416 1.73078 4.22353 2.03198 4.78727C2.33319 5.35102 2.76888 5.8317 3.30042 6.18666C2.68398 6.16705 2.08114 6.00048 1.54208 5.70083V5.75083C1.54202 6.64728 1.85211 7.51615 2.41974 8.20999C2.98736 8.90384 3.77756 9.37994 4.65625 9.5575C4.0844 9.71226 3.48486 9.73506 2.90292 9.62416C3.15083 10.3955 3.63375 11.07 4.28406 11.5533C4.93437 12.0365 5.71951 12.3043 6.52958 12.3192C5.15444 13.3987 3.45616 13.9842 1.70792 13.9817C1.39823 13.9817 1.08881 13.9637 0.78125 13.9275C2.55581 15.0685 4.62153 15.674 6.73125 15.6717C13.8729 15.6717 17.7771 9.75666 17.7771 4.62666C17.7771 4.46 17.7729 4.29166 17.7654 4.125C18.5248 3.57581 19.1803 2.89574 19.7013 2.11666L19.7029 2.11416Z" fill="#2D3E50" />
</svg>
