<svg width="20" height="12" viewBox="0 0 20 12" fill="none" xmlns="http://www.w3.org/2000/svg">
<path fill-rule="evenodd" clip-rule="evenodd" d="M19.5417 0.956664C19.68 0.501664 19.5417 0.166664 18.8792 0.166664H16.6917C16.135 0.166664 15.8783 0.455831 15.7392 0.774997C15.7392 0.774997 14.6267 3.43833 13.0508 5.16833C12.5408 5.67 12.3092 5.82916 12.0308 5.82916C11.8917 5.82916 11.6825 5.67 11.6825 5.21416V0.956664C11.6825 0.409997 11.5292 0.166664 11.0658 0.166664H7.62583C7.27833 0.166664 7.06917 0.419997 7.06917 0.660831C7.06917 1.17833 7.8575 1.29833 7.93833 2.755V5.92C7.93833 6.61416 7.81083 6.74 7.5325 6.74C6.79083 6.74 4.98667 4.06416 3.91583 1.0025C3.70833 0.406664 3.49833 0.166664 2.93917 0.166664H0.75C0.125 0.166664 0 0.455831 0 0.774997C0 1.34333 0.741667 4.16666 3.45417 7.90083C5.2625 10.4508 7.80833 11.8333 10.1275 11.8333C11.5183 11.8333 11.69 11.5267 11.69 10.9975V9.07C11.69 8.45583 11.8217 8.33333 12.2625 8.33333C12.5875 8.33333 13.1433 8.49333 14.4417 9.7225C15.925 11.18 16.1692 11.8333 17.0042 11.8333H19.1917C19.8167 11.8333 20.13 11.5267 19.95 10.92C19.7517 10.3167 19.0433 9.44083 18.1042 8.40166C17.5942 7.81 16.8292 7.1725 16.5967 6.85333C16.2725 6.44416 16.365 6.26166 16.5967 5.8975C16.5967 5.8975 19.2633 2.20916 19.5408 0.956664H19.5417Z" fill="#2D3E50"/>
</svg>
