<svg xmlns="http://www.w3.org/2000/svg" width="20" height="20" viewBox="0 0 20 20"><g><g><path fill="#26b9cf" d="M20 10v1c0 1.939-1.227 4-3.5 4-1.43 0-2.314-.731-2.838-1.621A4.973 4.973 0 0 1 10 15c-2.757 0-5-2.243-5-5s2.243-5 5-5a4.954 4.954 0 0 1 3 1.025V6h2v5c.006.181.104 2 1.5 2 1.187 0 1.5-1.308 1.5-2v-1c0-4.411-3.589-8-8-8s-8 3.589-8 8 3.589 8 8 8c1.156 0 2.353-.302 3.557-.897l.885 1.793C12.961 19.629 11.466 20 10 20 4.486 20 0 15.514 0 10S4.486 0 10 0s10 4.486 10 10zm-7 0c0-1.654-1.346-3-3-3s-3 1.346-3 3 1.346 3 3 3 3-1.346 3-3z"/></g></g></svg>