<svg width="16" height="11" viewBox="0 0 16 11" fill="none" xmlns="http://www.w3.org/2000/svg">
<path d="M0.290001 5.2857L4.29 1.28965C4.38324 1.1965 4.49393 1.12262 4.61575 1.07221C4.73757 1.0218 4.86814 0.99585 5 0.99585C5.13186 0.99585 5.26243 1.0218 5.38425 1.07221C5.50607 1.12262 5.61676 1.1965 5.71 1.28965C5.80324 1.3828 5.8772 1.49338 5.92766 1.61508C5.97812 1.73678 6.00409 1.86722 6.00409 1.99895C6.00409 2.13068 5.97812 2.26112 5.92766 2.38282C5.8772 2.50452 5.80324 2.6151 5.71 2.70825L3.41 4.99599H15C15.2652 4.99599 15.5196 5.10124 15.7071 5.28859C15.8946 5.47594 16 5.73004 16 5.995C16 6.25995 15.8946 6.51405 15.7071 6.70141C15.5196 6.88876 15.2652 6.99401 15 6.99401H3.41L5.71 9.28175C5.80373 9.37462 5.87812 9.48511 5.92889 9.60685C5.97966 9.72859 6.0058 9.85916 6.0058 9.99104C6.0058 10.1229 5.97966 10.2535 5.92889 10.3752C5.87812 10.497 5.80373 10.6075 5.71 10.7003C5.61704 10.794 5.50644 10.8683 5.38458 10.919C5.26272 10.9697 5.13201 10.9958 5 10.9958C4.86799 10.9958 4.73728 10.9697 4.61542 10.919C4.49356 10.8683 4.38296 10.794 4.29 10.7003L0.290001 6.7043C0.19896 6.60929 0.127594 6.49725 0.0799999 6.37462C-0.0200176 6.1314 -0.0200176 5.85859 0.0799999 5.61537C0.127594 5.49274 0.19896 5.38071 0.290001 5.2857Z" fill="#2D3E50"/>
</svg>
