<svg xmlns="http://www.w3.org/2000/svg" width="14" height="15" viewBox="0 0 14 15"><g><g><path fill="#fec50c" d="M13.623 6.85a.983.983 0 0 0 .333-.49c.06-.195.059-.405-.001-.6a.981.981 0 0 0-.334-.488.91.91 0 0 0-.543-.193l-3.802-.15a.094.094 0 0 1-.051-.02.102.102 0 0 1-.033-.046L7.879 1.145a.978.978 0 0 0-.344-.468.908.908 0 0 0-1.074 0 .978.978 0 0 0-.344.468l-1.309 3.73a.102.102 0 0 1-.033.047.095.095 0 0 1-.051.02l-3.802.15a.91.91 0 0 0-.542.194.982.982 0 0 0-.335.487c-.06.196-.06.406 0 .601.06.195.176.366.332.489L3.36 9.319a.102.102 0 0 1 .032.048c.006.019.007.039.002.058l-1.026 3.81c-.053.195-.048.401.015.592a.98.98 0 0 0 .336.475.906.906 0 0 0 1.077.018l3.15-2.213a.09.09 0 0 1 .106 0l3.15 2.213a.9.9 0 0 0 1.078 0 .971.971 0 0 0 .336-.473c.063-.19.068-.396.014-.59l-1.035-3.823a.103.103 0 0 1 .001-.059.097.097 0 0 1 .033-.047z"/></g></g></svg>