<svg width="16" height="19" viewBox="0 0 16 19" fill="none" xmlns="http://www.w3.org/2000/svg">
<path d="M2 12.5005C2 12.7657 1.89464 13.0201 1.70711 13.2076C1.51957 13.3951 1.26522 13.5005 1 13.5005C0.734784 13.5005 0.48043 13.3951 0.292893 13.2076C0.105357 13.0201 0 12.7657 0 12.5005V8.00049C0 7.73527 0.105357 7.48092 0.292893 7.29338C0.48043 7.10585 0.734784 7.00049 1 7.00049C1.26522 7.00049 1.51957 7.10585 1.70711 7.29338C1.89464 7.48092 2 7.73527 2 8.00049V12.5005Z" fill="white"/>
<path d="M16 12.5005C16 12.7657 15.8946 13.0201 15.7071 13.2076C15.5196 13.3951 15.2652 13.5005 15 13.5005C14.7348 13.5005 14.4804 13.3951 14.2929 13.2076C14.1054 13.0201 14 12.7657 14 12.5005V8.00049C14 7.73527 14.1054 7.48092 14.2929 7.29338C14.4804 7.10585 14.7348 7.00049 15 7.00049C15.2652 7.00049 15.5196 7.10585 15.7071 7.29338C15.8946 7.48092 16 7.73527 16 8.00049V12.5005Z" fill="white"/>
<path d="M7 18C7 18.2652 6.89464 18.5196 6.70711 18.7071C6.51957 18.8946 6.26522 19 6 19C5.73478 19 5.48043 18.8946 5.29289 18.7071C5.10536 18.5196 5 18.2652 5 18V13.5C5 13.2348 5.10536 12.9804 5.29289 12.7929C5.48043 12.6054 5.73478 12.5 6 12.5C6.26522 12.5 6.51957 12.6054 6.70711 12.7929C6.89464 12.9804 7 13.2348 7 13.5V18Z" fill="white"/>
<path d="M11 18C11 18.2652 10.8946 18.5196 10.7071 18.7071C10.5196 18.8946 10.2652 19 10 19C9.73478 19 9.48043 18.8946 9.29289 18.7071C9.10536 18.5196 9 18.2652 9 18V13.5C9 13.2348 9.10536 12.9804 9.29289 12.7929C9.48043 12.6054 9.73478 12.5 10 12.5C10.2652 12.5 10.5196 12.6054 10.7071 12.7929C10.8946 12.9804 11 13.2348 11 13.5V18Z" fill="white"/>
<path d="M3 7.00049V14.5C3 14.7652 3.10536 15.0196 3.29289 15.2071C3.48043 15.3946 3.73478 15.5 4 15.5H12C12.2652 15.5 12.5196 15.3946 12.7071 15.2071C12.8946 15.0196 13 14.7652 13 14.5V7.00049H3Z" fill="white"/>
<path d="M8 2C5 2 3.1725 3.8225 3 6H13C12.827 3.8225 11 2 8 2ZM6 4.799C5.86739 4.799 5.74021 4.74632 5.64645 4.65255C5.55268 4.55879 5.5 4.43161 5.5 4.299C5.5 4.16639 5.55268 4.03921 5.64645 3.94545C5.74021 3.85168 5.86739 3.799 6 3.799C6.13261 3.799 6.25979 3.85168 6.35355 3.94545C6.44732 4.03921 6.5 4.16639 6.5 4.299C6.5 4.43161 6.44732 4.55879 6.35355 4.65255C6.25979 4.74632 6.13261 4.799 6 4.799ZM10 4.799C9.86739 4.799 9.74021 4.74632 9.64645 4.65255C9.55268 4.55879 9.5 4.43161 9.5 4.299C9.5 4.16639 9.55268 4.03921 9.64645 3.94545C9.74021 3.85168 9.86739 3.799 10 3.799C10.1326 3.799 10.2598 3.85168 10.3536 3.94545C10.4473 4.03921 10.5 4.16639 10.5 4.299C10.5 4.43161 10.4473 4.55879 10.3536 4.65255C10.2598 4.74632 10.1326 4.799 10 4.799Z" fill="white"/>
<path d="M11 1.5L10.167 2.7495" stroke="white" stroke-width="2" stroke-linecap="round"/>
<path d="M5 1.5L5.6665 2.541" stroke="white" stroke-width="2" stroke-linecap="round"/>
</svg>
