<svg width="14" height="14" viewBox="0 0 14 14" fill="none" xmlns="http://www.w3.org/2000/svg">
<path d="M11 12C11 12.5304 10.7893 13.0391 10.4142 13.4142C10.0391 13.7893 9.53043 14 9 14H2C1.46957 14 0.960859 13.7893 0.585786 13.4142C0.210714 13.0391 0 12.5304 0 12V5C0 4.46957 0.210714 3.96086 0.585786 3.58579C0.960859 3.21071 1.46957 3 2 3V4C1.73478 4 1.48043 4.10536 1.29289 4.29289C1.10536 4.48043 1 4.73478 1 5V12C1 12.2652 1.10536 12.5196 1.29289 12.7071C1.48043 12.8946 1.73478 13 2 13H9C9.26522 13 9.51957 12.8946 9.70711 12.7071C9.89464 12.5196 10 12.2652 10 12H11Z" fill="#2D3E50"/>
<path d="M5 1C4.73478 1 4.48043 1.10536 4.29289 1.29289C4.10536 1.48043 4 1.73478 4 2V9C4 9.26522 4.10536 9.51957 4.29289 9.70711C4.48043 9.89464 4.73478 10 5 10H12C12.2652 10 12.5196 9.89464 12.7071 9.70711C12.8946 9.51957 13 9.26522 13 9V2C13 1.73478 12.8946 1.48043 12.7071 1.29289C12.5196 1.10536 12.2652 1 12 1H5ZM5 0H12C12.5304 0 13.0391 0.210714 13.4142 0.585786C13.7893 0.960859 14 1.46957 14 2V9C14 9.53043 13.7893 10.0391 13.4142 10.4142C13.0391 10.7893 12.5304 11 12 11H5C4.46957 11 3.96086 10.7893 3.58579 10.4142C3.21071 10.0391 3 9.53043 3 9V2C3 1.46957 3.21071 0.960859 3.58579 0.585786C3.96086 0.210714 4.46957 0 5 0Z" fill="#2D3E50"/>
</svg>
