<svg width="16" height="14" viewBox="0 0 16 14" fill="none" xmlns="http://www.w3.org/2000/svg">
<path d="M4 7C4 6.44772 4.44772 6 5 6H15C15.5523 6 16 6.44772 16 7C16 7.55228 15.5523 8 15 8H5C4.44771 8 4 7.55228 4 7Z" fill="#D9D9D9"/>
<path d="M0 7C0 6.44772 0.447715 6 1 6C1.55228 6 2 6.44772 2 7C2 7.55228 1.55228 8 1 8C0.447715 8 0 7.55228 0 7Z" fill="#D9D9D9"/>
<path d="M4 13C4 12.4477 4.44772 12 5 12H15C15.5523 12 16 12.4477 16 13C16 13.5523 15.5523 14 15 14H5C4.44771 14 4 13.5523 4 13Z" fill="#D9D9D9"/>
<path d="M0 13C0 12.4477 0.447715 12 1 12C1.55228 12 2 12.4477 2 13C2 13.5523 1.55228 14 1 14C0.447715 14 0 13.5523 0 13Z" fill="#D9D9D9"/>
<path d="M4 1C4 0.447715 4.44772 0 5 0H15C15.5523 0 16 0.447715 16 1C16 1.55228 15.5523 2 15 2H5C4.44771 2 4 1.55228 4 1Z" fill="#D9D9D9"/>
<path d="M0 1C0 0.447715 0.447715 0 1 0C1.55228 0 2 0.447715 2 1C2 1.55228 1.55228 2 1 2C0.447715 2 0 1.55228 0 1Z" fill="#D9D9D9"/>
</svg>
