<svg width="22" height="23" viewBox="0 0 22 23" fill="none" xmlns="http://www.w3.org/2000/svg">
<path fill-rule="evenodd" clip-rule="evenodd" d="M13.543 2.5979C13.3129 2.11874 12.9522 1.71433 12.5022 1.43128C12.0523 1.14823 11.5316 0.998047 11 0.998047C10.4685 0.998047 9.94776 1.14823 9.49785 1.43128C9.04793 1.71433 8.68714 2.11874 8.45704 2.5979L0.341043 18.5629C-0.629957 20.4689 0.597043 22.9999 2.88304 22.9999H19.116C21.403 22.9999 22.628 20.4699 21.659 18.5629L13.543 2.5979ZM11 7.9999C11.2653 7.9999 11.5196 8.10526 11.7071 8.2928C11.8947 8.48033 12 8.73469 12 8.9999V13.9999C12 14.2651 11.8947 14.5195 11.7071 14.707C11.5196 14.8945 11.2653 14.9999 11 14.9999C10.7348 14.9999 10.4805 14.8945 10.2929 14.707C10.1054 14.5195 10 14.2651 10 13.9999V8.9999C10 8.73469 10.1054 8.48033 10.2929 8.2928C10.4805 8.10526 10.7348 7.9999 11 7.9999ZM11 16.4999C11.2653 16.4999 11.5196 16.6053 11.7071 16.7928C11.8947 16.9803 12 17.2347 12 17.4999V17.9999C12 18.2651 11.8947 18.5195 11.7071 18.707C11.5196 18.8945 11.2653 18.9999 11 18.9999C10.7348 18.9999 10.4805 18.8945 10.2929 18.707C10.1054 18.5195 10 18.2651 10 17.9999V17.4999C10 17.2347 10.1054 16.9803 10.2929 16.7928C10.4805 16.6053 10.7348 16.4999 11 16.4999Z" fill="#00AFCA"/>
</svg>
