<svg xmlns="http://www.w3.org/2000/svg" width="25" height="16" viewBox="0 0 25 16"><g><g><g><path fill="#ff5f00" d="M9.12 1.71h6.76v12.578H9.12z"/></g><g><path fill="#eb001b" d="M9.55 8a8.128 8.128 0 0 1 2.94-6.289A7.513 7.513 0 0 0 7.725 0C3.455 0 0 3.578 0 8c0 4.422 3.455 8 7.725 8a7.513 7.513 0 0 0 4.764-1.711C10.71 12.844 9.55 10.556 9.55 8z"/></g><g><path fill="#f79e1b" d="M25 8c0 4.422-3.455 8-7.726 8a7.513 7.513 0 0 1-4.764-1.711c1.803-1.467 2.94-3.733 2.94-6.289a8.128 8.128 0 0 0-2.94-6.289A7.513 7.513 0 0 1 17.274 0C21.544 0 25 3.6 25 8z"/></g></g></g></svg>