<svg xmlns="http://www.w3.org/2000/svg" width="16" height="16" viewBox="0 0 16 16"><g><g><g><path fill="#ced6e0" d="M16 6.067H0L8 0z"/></g><g><path fill="#adb3ba" d="M3.57 4.867L8.003 1.5l4.434 3.367z"/></g><g><path fill="#ced6e0" d="M14.763 13.47H1.23v1.267h13.533z"/></g><g><path fill="#adb3ba" d="M16 14.73H0v1.267h16z"/></g><g><path fill="#ced6e0" d="M5.003 6.97H2.67v5.5h2.333z"/></g><g><g><path fill="#adb3ba" d="M3.367 7.57c.133 0 .266.1.266.267v3.933c0 .133-.1.267-.266.267a.263.263 0 0 1-.267-.267V7.837c.033-.167.133-.267.267-.267z"/></g><g><path fill="#adb3ba" d="M4.563 7.837v3.933c0 .133-.1.267-.266.267a.263.263 0 0 1-.267-.267V7.837c0-.134.1-.267.267-.267.133 0 .266.1.266.267z"/></g><g><path fill="#adb3ba" d="M5.6 6.603V6.07H2.1v.533c0 .3.233.534.533.534H5.1c.267-.034.5-.267.5-.534z"/></g><g><path fill="#adb3ba" d="M5.603 13.467v-.534c0-.3-.233-.533-.533-.533H2.603c-.3 0-.533.233-.533.533v.534z"/></g></g><g><path fill="#ced6e0" d="M9.163 6.97H6.83v5.5h2.333z"/></g><g><g><path fill="#adb3ba" d="M7.537 7.57c.133 0 .266.1.266.267v3.933c0 .133-.1.267-.266.267a.263.263 0 0 1-.267-.267V7.837c.033-.167.133-.267.267-.267z"/></g><g><path fill="#adb3ba" d="M8.703 7.837v3.933c0 .133-.1.267-.266.267a.263.263 0 0 1-.267-.267V7.837c0-.134.1-.267.267-.267.166 0 .266.1.266.267z"/></g><g><path fill="#adb3ba" d="M9.737 6.603V6.07H6.27v.533c0 .3.233.534.533.534H9.27c.233-.034.467-.267.467-.534z"/></g><g><path fill="#adb3ba" d="M9.733 13.467v-.534c0-.3-.233-.533-.533-.533H6.733c-.3 0-.533.233-.533.533v.534z"/></g></g><g><path fill="#ced6e0" d="M13.333 6.97H11v5.5h2.333z"/></g><g><g><path fill="#adb3ba" d="M11.697 7.57c.133 0 .266.1.266.267v3.933c0 .133-.1.267-.266.267a.263.263 0 0 1-.267-.267V7.837c0-.167.133-.267.267-.267z"/></g><g><path fill="#adb3ba" d="M12.863 7.837v3.933c0 .133-.1.267-.266.267a.263.263 0 0 1-.267-.267V7.837c0-.134.1-.267.267-.267.166 0 .266.1.266.267z"/></g><g><path fill="#adb3ba" d="M13.9 6.603V6.07h-3.5v.533c0 .3.233.534.533.534H13.4c.267-.034.5-.267.5-.534z"/></g><g><path fill="#adb3ba" d="M13.903 13.467v-.534c0-.3-.233-.533-.533-.533h-2.467c-.3 0-.533.233-.533.533v.534z"/></g></g></g></g></svg>