<svg width="64" height="64" viewBox="0 0 64 64" fill="none" xmlns="http://www.w3.org/2000/svg">
<rect width="64" height="64" rx="4" fill="#00AFCA" fill-opacity="0.1"/>
<path d="M57 7C57.5523 7 58 6.55228 58 6C58 5.44772 57.5523 5 57 5C56.4477 5 56 5.44772 56 6C56 6.55228 56.4477 7 57 7Z" fill="#00AFCA"/>
<path d="M53 7C53.5523 7 54 6.55228 54 6C54 5.44772 53.5523 5 53 5C52.4477 5 52 5.44772 52 6C52 6.55228 52.4477 7 53 7Z" fill="#00AFCA"/>
<path d="M49 7C49.5523 7 50 6.55228 50 6C50 5.44772 49.5523 5 49 5C48.4477 5 48 5.44772 48 6C48 6.55228 48.4477 7 49 7Z" fill="#00AFCA"/>
<path d="M60.5 0H3.5C2.57174 0 1.6815 0.368749 1.02513 1.02513C0.368749 1.6815 0 2.57174 0 3.5L0 60.5C0 61.4283 0.368749 62.3185 1.02513 62.9749C1.6815 63.6312 2.57174 64 3.5 64H60.5C61.4283 64 62.3185 63.6312 62.9749 62.9749C63.6312 62.3185 64 61.4283 64 60.5V3.5C64 2.57174 63.6312 1.6815 62.9749 1.02513C62.3185 0.368749 61.4283 0 60.5 0ZM3.5 2H60.5C60.8978 2 61.2794 2.15804 61.5607 2.43934C61.842 2.72064 62 3.10218 62 3.5V10H2V3.5C2 3.10218 2.15804 2.72064 2.43934 2.43934C2.72064 2.15804 3.10218 2 3.5 2ZM60.5 62H3.5C3.10218 62 2.72064 61.842 2.43934 61.5607C2.15804 61.2794 2 60.8978 2 60.5V12H62V60.5C62 60.8978 61.842 61.2794 61.5607 61.5607C61.2794 61.842 60.8978 62 60.5 62Z" fill="#00AFCA"/>
<path d="M32.0504 42.1499C28.1404 42.1499 24.5904 43.8499 23.0004 46.4999C22.9148 46.6126 22.8541 46.7423 22.8224 46.8802C22.7906 47.0182 22.7885 47.1613 22.8162 47.3001C22.8438 47.4389 22.9007 47.5703 22.9829 47.6855C23.0651 47.8007 23.1709 47.8972 23.2932 47.9685C23.4154 48.0398 23.5515 48.0843 23.6923 48.0991C23.833 48.1139 23.9753 48.0987 24.1098 48.0544C24.2442 48.0101 24.3677 47.9378 24.4722 47.8422C24.5766 47.7466 24.6595 47.6299 24.7154 47.4999C25.9504 45.4549 28.8304 44.1349 32.0504 44.1349C35.0854 44.1349 37.8954 45.3549 39.2104 47.2399C39.282 47.3552 39.3763 47.4547 39.4875 47.5324C39.5988 47.6101 39.7247 47.6644 39.8576 47.6918C39.9904 47.7193 40.1275 47.7195 40.2605 47.6923C40.3934 47.6651 40.5194 47.6111 40.6309 47.5337C40.7423 47.4562 40.8368 47.3569 40.9086 47.2418C40.9804 47.1266 41.028 46.9981 41.0486 46.8639C41.0691 46.7298 41.0621 46.5929 41.0281 46.4615C40.994 46.3302 40.9336 46.2071 40.8504 46.0999C39.1504 43.6699 35.7754 42.1499 32.0504 42.1499Z" fill="#00AFCA"/>
<path d="M24.2949 35.7049C24.4862 35.8687 24.7322 35.9543 24.9839 35.9446C25.2356 35.9349 25.4743 35.8306 25.6524 35.6525C25.8305 35.4744 25.9348 35.2356 25.9446 34.984C25.9543 34.7323 25.8687 34.4862 25.7049 34.2949L22.4149 30.9999L25.7049 27.7049C25.8687 27.5136 25.9543 27.2675 25.9446 27.0158C25.9348 26.7642 25.8305 26.5254 25.6524 26.3473C25.4743 26.1692 25.2356 26.0649 24.9839 26.0552C24.7322 26.0455 24.4862 26.1311 24.2949 26.2949L20.9999 29.5849L17.7049 26.2949C17.5136 26.1311 17.2675 26.0455 17.0158 26.0552C16.7641 26.0649 16.5254 26.1692 16.3473 26.3473C16.1692 26.5254 16.0649 26.7642 16.0551 27.0158C16.0454 27.2675 16.131 27.5136 16.2949 27.7049L19.5849 30.9999L16.2949 34.2949C16.1902 34.3845 16.1052 34.4949 16.0451 34.6189C15.9851 34.743 15.9514 34.8781 15.9461 35.0158C15.9407 35.1536 15.9639 35.2909 16.0142 35.4192C16.0645 35.5475 16.1408 35.6641 16.2382 35.7616C16.3357 35.859 16.4522 35.9353 16.5805 35.9855C16.7089 36.0358 16.8462 36.059 16.9839 36.0537C17.1216 36.0484 17.2568 36.0147 17.3808 35.9546C17.5049 35.8946 17.6152 35.8096 17.7049 35.7049L20.9999 32.4149L24.2949 35.7049Z" fill="#00AFCA"/>
<path d="M47.7049 26.2949C47.5175 26.1087 47.264 26.0042 46.9999 26.0042C46.7357 26.0042 46.4822 26.1087 46.2949 26.2949L42.9999 29.5849L39.7049 26.2949C39.5136 26.1311 39.2675 26.0455 39.0158 26.0552C38.7641 26.065 38.5254 26.1693 38.3473 26.3474C38.1692 26.5255 38.0649 26.7642 38.0551 27.0159C38.0454 27.2676 38.131 27.5136 38.2949 27.7049L41.5849 30.9999L38.2949 34.2949C38.1902 34.3846 38.1052 34.4949 38.0451 34.619C37.9851 34.743 37.9514 34.8782 37.9461 35.0159C37.9407 35.1536 37.9639 35.2909 38.0142 35.4193C38.0645 35.5476 38.1408 35.6641 38.2382 35.7616C38.3357 35.859 38.4522 35.9353 38.5805 35.9856C38.7089 36.0359 38.8462 36.0591 38.9839 36.0537C39.1216 36.0484 39.2568 36.0147 39.3808 35.9547C39.5049 35.8946 39.6152 35.8096 39.7049 35.7049L42.9999 32.4149L46.2949 35.7049C46.4862 35.8688 46.7322 35.9544 46.9839 35.9447C47.2356 35.9349 47.4743 35.8306 47.6524 35.6525C47.8305 35.4744 47.9348 35.2357 47.9446 34.984C47.9543 34.7323 47.8687 34.4862 47.7049 34.2949L44.4149 30.9999L47.7049 27.7049C47.8911 27.5176 47.9956 27.2641 47.9956 26.9999C47.9956 26.7358 47.8911 26.4823 47.7049 26.2949Z" fill="#00AFCA"/>
</svg>
