<svg xmlns="http://www.w3.org/2000/svg" width="44" height="24" viewBox="0 0 44 24"><g><g><g/><g><path fill="#112c8e" d="M16.706 5.247l-5.761 13.54H7.187L4.352 7.982c-.172-.664-.321-.908-.844-1.189C2.653 6.334 1.24 5.906 0 5.64l.084-.393h6.05c.77 0 1.464.505 1.64 1.38l1.498 7.836 3.698-9.216zm5.08 0l-2.94 13.54h-3.555l2.94-13.54zM25.24 19c-1.588-.017-3.121-.343-3.953-.719l.645-2.968c.827.38 1.864.884 3.652.856 1.02-.015 2.117-.417 2.127-1.326.006-.592-.459-1.019-1.845-1.682-1.345-.65-3.134-1.736-3.111-3.686C22.775 6.84 25.247 5 28.762 5c1.37 0 2.47.293 3.325.598l-.622 2.873c-1.592-.723-2.998-.67-3.507-.606-1.027.132-1.496.649-1.508 1.134-.033 1.596 4.996 1.795 4.981 5.368C31.421 17.182 28.976 19 25.24 19zm15.042-2.235H35.72l-.74 2.023h-3.734L36.58 6.24c.255-.602.83-.993 1.514-.993h3.033L44 18.787h-3.288zm-.59-2.775l-1.076-5.085-1.872 5.085z"/></g></g></g></svg>