<svg width="48" height="48" viewBox="0 0 48 48" fill="none" xmlns="http://www.w3.org/2000/svg">
<path opacity="0.7" d="M35.4598 32.2799C35.0779 31.9113 34.5652 31.7094 34.0344 31.7188C33.5037 31.7282 32.9984 31.948 32.6298 32.3299C32.2611 32.7118 32.0593 33.2246 32.0687 33.7553C32.078 34.286 32.2979 34.7913 32.6798 35.1599L35.5598 37.9999C35.9305 38.3573 36.4248 38.5579 36.9398 38.5599C37.2078 38.5615 37.4733 38.5092 37.7207 38.4061C37.9681 38.303 38.1922 38.1513 38.3798 37.9599C38.5672 37.774 38.716 37.5528 38.8176 37.3091C38.9191 37.0654 38.9714 36.804 38.9714 36.5399C38.9714 36.2759 38.9191 36.0145 38.8176 35.7708C38.716 35.5271 38.5672 35.3059 38.3798 35.1199L35.4598 32.2799Z" fill="#00AFCA"/>
<path opacity="0.4" d="M42 22H38C37.4696 22 36.9609 22.2107 36.5858 22.5858C36.2107 22.9609 36 23.4696 36 24C36 24.5304 36.2107 25.0391 36.5858 25.4142C36.9609 25.7893 37.4696 26 38 26H42C42.5304 26 43.0391 25.7893 43.4142 25.4142C43.7893 25.0391 44 24.5304 44 24C44 23.4696 43.7893 22.9609 43.4142 22.5858C43.0391 22.2107 42.5304 22 42 22Z" fill="#00AFCA"/>
<path opacity="0.1" d="M34.0002 16.28C34.5152 16.2779 35.0095 16.0773 35.3802 15.72L38.2602 12.94C38.6115 12.5729 38.81 12.0858 38.8152 11.5777C38.8204 11.0696 38.6321 10.5786 38.2884 10.2043C37.9447 9.83007 37.4714 9.60067 36.9647 9.56272C36.458 9.52477 35.9558 9.68111 35.5602 9.99998L32.6802 12.84C32.3077 13.2147 32.0986 13.7216 32.0986 14.25C32.0986 14.7784 32.3077 15.2853 32.6802 15.66C33.0265 16.0254 33.4979 16.2468 34.0002 16.28Z" fill="#00AFCA"/>
<path d="M24 4C23.4696 4 22.9609 4.21071 22.5858 4.58579C22.2107 4.96086 22 5.46957 22 6V10C22 10.5304 22.2107 11.0391 22.5858 11.4142C22.9609 11.7893 23.4696 12 24 12C24.5304 12 25.0391 11.7893 25.4142 11.4142C25.7893 11.0391 26 10.5304 26 10V6C26 5.46957 25.7893 4.96086 25.4142 4.58579C25.0391 4.21071 24.5304 4 24 4ZM12 24C12 23.4696 11.7893 22.9609 11.4142 22.5858C11.0391 22.2107 10.5304 22 10 22H6C5.46957 22 4.96086 22.2107 4.58579 22.5858C4.21071 22.9609 4 23.4696 4 24C4 24.5304 4.21071 25.0391 4.58579 25.4142C4.96086 25.7893 5.46957 26 6 26H10C10.5304 26 11.0391 25.7893 11.4142 25.4142C11.7893 25.0391 12 24.5304 12 24ZM12.44 10C12.0501 9.63135 11.5298 9.43267 10.9934 9.44767C10.4571 9.46268 9.94865 9.69013 9.58 10.08C9.21135 10.4699 9.01267 10.9902 9.02767 11.5266C9.04268 12.0629 9.27013 12.5713 9.66 12.94L12.54 15.72C12.7333 15.9066 12.9622 16.0524 13.213 16.1486C13.4638 16.2448 13.7315 16.2895 14 16.28C14.2694 16.279 14.5358 16.2235 14.7833 16.117C15.0307 16.0104 15.2541 15.855 15.44 15.66C15.8125 15.2853 16.0216 14.7784 16.0216 14.25C16.0216 13.7216 15.8125 13.2147 15.44 12.84L12.44 10ZM24 36C23.4696 36 22.9609 36.2107 22.5858 36.5858C22.2107 36.9609 22 37.4696 22 38V42C22 42.5304 22.2107 43.0391 22.5858 43.4142C22.9609 43.7893 23.4696 44 24 44C24.5304 44 25.0391 43.7893 25.4142 43.4142C25.7893 43.0391 26 42.5304 26 42V38C26 37.4696 25.7893 36.9609 25.4142 36.5858C25.0391 36.2107 24.5304 36 24 36ZM12.54 32.28L9.66 35.06C9.47254 35.2459 9.32375 35.4671 9.22222 35.7108C9.12068 35.9546 9.0684 36.216 9.0684 36.48C9.0684 36.744 9.12068 37.0054 9.22222 37.2492C9.32375 37.4929 9.47254 37.7141 9.66 37.9C9.84758 38.0914 10.0717 38.2431 10.3191 38.3462C10.5665 38.4493 10.832 38.5016 11.1 38.5C11.593 38.5042 12.0702 38.3261 12.44 38L15.32 35.22C15.7019 34.8514 15.9217 34.3461 15.9311 33.8154C15.9405 33.2846 15.7387 32.7719 15.37 32.39C15.0013 32.0081 14.4961 31.7883 13.9654 31.7789C13.4346 31.7695 12.9219 31.9713 12.54 32.34V32.28Z" fill="#00AFCA"/>
</svg>
