<svg width="203" height="40" viewBox="0 0 203 40" fill="none" xmlns="http://www.w3.org/2000/svg">
<path d="M54.5288 25.8333H59.4353C62.2111 25.8333 63.5724 24.4188 63.5724 22.5308C63.5724 20.696 62.2703 19.6188 60.98 19.5537V19.4354C62.1638 19.1572 63.0989 18.3286 63.0989 16.8549C63.0989 15.0497 61.7968 13.7121 59.169 13.7121H54.5288V25.8333ZM56.7246 23.9986V20.4474H59.1453C60.5006 20.4474 61.3411 21.276 61.3411 22.3591C61.3411 23.3238 60.6782 23.9986 59.0861 23.9986H56.7246ZM56.7246 18.8672V15.5232H58.9441C60.2343 15.5232 60.9031 16.2038 60.9031 17.139C60.9031 18.2043 60.039 18.8672 58.8967 18.8672H56.7246Z" fill="#2D3E50"/>
<path d="M69.3533 26.0109C71.6379 26.0109 73.0939 24.6555 73.2477 22.7261H71.1999C71.0164 23.7026 70.3121 24.2649 69.3711 24.2649C68.0335 24.2649 67.1694 23.1463 67.1694 21.2879C67.1694 19.4531 68.0512 18.3523 69.3711 18.3523C70.4009 18.3523 71.0342 19.0151 71.1999 19.8911H73.2477C73.0998 17.9202 71.5609 16.624 69.3415 16.624C66.6781 16.624 64.9973 18.5476 64.9973 21.3234C64.9973 24.0755 66.6367 26.0109 69.3533 26.0109Z" fill="#2D3E50"/>
<path d="M79.0316 26.0109C81.1505 26.0109 82.6065 24.9751 82.9852 23.3949L80.9848 23.17C80.6948 23.9394 79.9845 24.3418 79.0612 24.3418C77.6763 24.3418 76.7589 23.4304 76.7412 21.8738H83.074V21.2168C83.074 18.0267 81.1564 16.624 78.9192 16.624C76.315 16.624 74.6164 18.5357 74.6164 21.3411C74.6164 24.1939 76.2914 26.0109 79.0316 26.0109ZM76.7471 20.4297C76.8122 19.2696 77.6704 18.2931 78.9488 18.2931C80.1799 18.2931 81.0084 19.1927 81.0203 20.4297H76.7471Z" fill="#2D3E50"/>
<path d="M89.2131 25.999C91.8054 25.999 93.6934 24.5135 93.6875 22.4657C93.6934 20.9505 92.7464 19.8615 91.0478 19.6188V19.5241C92.3617 19.24 93.2436 18.2635 93.2377 16.9022C93.2436 15.0556 91.6693 13.5464 89.2486 13.5464C86.893 13.5464 85.0701 14.9491 85.0227 16.9792H87.1356C87.1712 15.9612 88.1181 15.3279 89.2367 15.3279C90.3672 15.3279 91.1188 16.0144 91.1129 17.0324C91.1188 18.0918 90.2429 18.7961 88.9882 18.7961H87.9169V20.4889H88.9882C90.5211 20.4889 91.4325 21.2583 91.4266 22.3532C91.4325 23.4245 90.5033 24.1584 89.2071 24.1584C87.9879 24.1584 87.0469 23.5251 86.9936 22.5367H84.7682C84.8274 24.5845 86.6562 25.999 89.2131 25.999Z" fill="#2D3E50"/>
<path d="M98.3587 26.0168C99.7851 26.0168 100.637 25.348 101.028 24.5845H101.099V25.8333H103.159V19.749C103.159 17.3461 101.2 16.624 99.4655 16.624C97.5538 16.624 96.086 17.4763 95.6125 19.1335L97.613 19.4176C97.826 18.7961 98.4297 18.2635 99.4773 18.2635C100.472 18.2635 101.016 18.7725 101.016 19.6662V19.7017C101.016 20.3172 100.371 20.3468 98.7671 20.5185C97.0034 20.7078 95.3166 21.2346 95.3166 23.2824C95.3166 25.0698 96.6246 26.0168 98.3587 26.0168ZM98.9151 24.4425C98.0214 24.4425 97.3822 24.0341 97.3822 23.2469C97.3822 22.4242 98.0983 22.081 99.0571 21.9448C99.6194 21.8679 100.744 21.7258 101.022 21.5009V22.5722C101.022 23.5843 100.205 24.4425 98.9151 24.4425Z" fill="#2D3E50"/>
<path d="M107.379 22.9332V16.7424H105.313V25.8333H107.521L111.149 19.6366V25.8333H113.22V16.7424H111.019L107.379 22.9332ZM110.433 13.6174C110.427 14.1974 110.095 14.7123 109.261 14.7123C108.414 14.7123 108.095 14.1856 108.095 13.6174H106.503C106.497 15.0024 107.568 15.9375 109.261 15.9375C110.965 15.9375 112.037 15.0024 112.037 13.6174H110.433Z" fill="#2D3E50"/>
<path d="M120.652 23.3416L118.025 16.7424H115.42V25.8333H117.486V19.7076L119.907 25.8333H121.404L123.908 19.6425V25.8333H125.955V16.7424H123.351L120.652 23.3416Z" fill="#2D3E50"/>
<path d="M130.181 19.7017V16.7424H128.116V25.8333H132.247C134.561 25.8333 135.893 24.5549 135.899 22.7675C135.893 20.9327 134.561 19.7017 132.247 19.7017H130.181ZM137.029 25.8333H139.172V16.7424H137.029V25.8333ZM130.181 21.4595H132.247C133.176 21.4595 133.845 22.0099 133.845 22.7971C133.845 23.5488 133.176 24.0755 132.247 24.0755H130.181V21.4595Z" fill="#2D3E50"/>
<path d="M152.306 19.7727C152.306 15.8546 149.915 13.5464 146.737 13.5464C143.553 13.5464 141.168 15.8546 141.168 19.7727C141.168 23.6849 143.553 25.999 146.737 25.999C149.915 25.999 152.306 23.6908 152.306 19.7727ZM150.099 19.7727C150.099 22.5308 148.714 24.0282 146.737 24.0282C144.766 24.0282 143.375 22.5308 143.375 19.7727C143.375 17.0147 144.766 15.5173 146.737 15.5173C148.714 15.5173 150.099 17.0147 150.099 19.7727Z" fill="#2D3E50"/>
<path d="M156.353 16.7424H154.288V25.8333H156.353V22.1579H159.875V25.8333H161.934V16.7424H159.875V20.4001H156.353V16.7424Z" fill="#2D3E50"/>
<path d="M163.475 25.8333H164.138C166.091 25.8333 166.973 24.4602 167.115 21.4299L167.257 18.5002H169.867V25.8333H171.938V16.7424H165.309L165.15 20.767C165.049 23.3179 164.718 24.0696 163.777 24.0696H163.463L163.475 25.8333Z" fill="#2D3E50"/>
<path d="M176.712 26.0168C178.138 26.0168 178.99 25.348 179.381 24.5845H179.452V25.8333H181.512V19.749C181.512 17.3461 179.552 16.624 177.818 16.624C175.907 16.624 174.439 17.4763 173.965 19.1335L175.966 19.4176C176.179 18.7961 176.783 18.2635 177.83 18.2635C178.824 18.2635 179.369 18.7725 179.369 19.6662V19.7017C179.369 20.3172 178.724 20.3468 177.12 20.5185C175.356 20.7078 173.669 21.2346 173.669 23.2824C173.669 25.0698 174.977 26.0168 176.712 26.0168ZM177.268 24.4425C176.374 24.4425 175.735 24.0341 175.735 23.2469C175.735 22.4242 176.451 22.081 177.41 21.9448C177.972 21.8679 179.097 21.7258 179.375 21.5009V22.5722C179.375 23.5843 178.558 24.4425 177.268 24.4425Z" fill="#2D3E50"/>
<path d="M185.731 22.9332V16.7424H183.666V25.8333H185.874L189.502 19.6366V25.8333H191.573V16.7424H189.371L185.731 22.9332ZM188.785 13.6174C188.78 14.1974 188.448 14.7123 187.614 14.7123C186.767 14.7123 186.448 14.1856 186.448 13.6174H184.856C184.85 15.0024 185.921 15.9375 187.614 15.9375C189.318 15.9375 190.389 15.0024 190.389 13.6174H188.785Z" fill="#2D3E50"/>
<path d="M195.839 16.7424H193.773V25.8333H195.839V22.1579H199.36V25.8333H201.42V16.7424H199.36V20.4001H195.839V16.7424Z" fill="#2D3E50"/>
<path d="M0 20C0 8.95431 8.95431 0 20 0C31.0457 0 40 8.95431 40 20C40 31.0457 31.0457 40 20 40C8.95431 40 0 31.0457 0 20Z" fill="#FEC50C"/>
<path d="M17.5 15H22.5V33.3333H17.5V15Z" fill="white"/>
<path d="M10 15H30V18.3333H10V15Z" fill="white"/>
<path d="M10 10H30V13.3333H10V10Z" fill="white"/>
</svg>
