<svg xmlns="http://www.w3.org/2000/svg" width="243" height="48" viewBox="0 0 243 48"><g><g><g/><g><path fill="#fff" d="M65.43 16.459h5.568c3.154 0 4.716 1.605 4.716 3.771 0 1.769-1.122 2.763-2.543 3.097v.142c1.549.078 3.111 1.37 3.111 3.572 0 2.266-1.633 3.963-4.964 3.963H65.43zm5.469 12.344c1.91 0 2.706-.81 2.706-1.968 0-1.3-1.009-2.294-2.635-2.294h-2.905v4.262zm-.228-6.158c1.371 0 2.408-.796 2.408-2.074 0-1.122-.802-1.939-2.35-1.939h-2.664v4.013zm7.321 2.947c0-3.33 2.017-5.639 5.213-5.639 2.664 0 4.51 1.556 4.688 3.92h-2.458c-.199-1.05-.959-1.846-2.194-1.846-1.584 0-2.642 1.321-2.642 3.523 0 2.23 1.037 3.572 2.642 3.572 1.129 0 1.974-.674 2.194-1.846h2.458c-.185 2.315-1.932 3.941-4.674 3.941-3.26 0-5.227-2.322-5.227-5.625zm11.543.022c0-3.367 2.039-5.66 5.164-5.66 2.684 0 4.985 1.682 4.985 5.51v.789h-7.6c.022 1.868 1.123 2.961 2.785 2.961 1.108 0 1.96-.482 2.308-1.406l2.4.27c-.454 1.896-2.201 3.14-4.744 3.14-3.288 0-5.298-2.181-5.298-5.604zm7.685-1.094c-.014-1.484-1.009-2.564-2.486-2.564-1.534 0-2.564 1.172-2.642 2.564zm4.497 2.528h2.67c.065 1.186 1.194 1.946 2.657 1.946 1.555 0 2.67-.88 2.663-2.166.007-1.314-1.086-2.237-2.926-2.237h-1.285V22.56h1.285c1.506 0 2.557-.845 2.55-2.117.007-1.221-.895-2.045-2.252-2.045-1.342 0-2.478.76-2.52 1.981h-2.536c.057-2.436 2.244-4.119 5.07-4.119 2.905 0 4.795 1.811 4.788 4.027.007 1.634-1.051 2.805-2.628 3.146v.114c2.038.291 3.175 1.598 3.167 3.416.007 2.458-2.258 4.24-5.369 4.24-3.068 0-5.263-1.697-5.334-4.155zm12.658.895c0-2.457 2.024-3.09 4.14-3.317 1.926-.205 2.7-.241 2.7-.98v-.042c0-1.073-.654-1.683-1.847-1.683-1.257 0-1.981.639-2.237 1.384l-2.4-.34c.568-1.99 2.329-3.012 4.623-3.012 2.081 0 4.432.867 4.432 3.75v7.301h-2.472v-1.498h-.085c-.469.916-1.492 1.719-3.203 1.719-2.081 0-3.65-1.137-3.65-3.282zm6.847-.852v-1.286c-.334.27-1.683.44-2.358.533-1.15.163-2.01.575-2.01 1.563 0 .944.767 1.434 1.84 1.434 1.548 0 2.528-1.03 2.528-2.244zm11.996-6.996h2.642v10.91h-2.486v-7.437l-4.354 7.436h-2.649V20.095h2.479v7.43zm1.221-3.75c0 1.662-1.285 2.784-3.33 2.784-2.032 0-3.318-1.122-3.31-2.784h1.91c0 .682.384 1.314 1.4 1.314 1 0 1.398-.618 1.405-1.314zm13.578 3.75h3.125v10.91h-2.457v-7.43l-3.005 7.43h-1.797l-2.904-7.352v7.351H138.5V20.095h3.125l3.153 7.92zm10.675 3.551c2.777 0 4.375 1.478 4.382 3.68-.007 2.144-1.605 3.678-4.382 3.678h-4.958V20.095h2.479v3.551zm5.738-3.55h2.571v10.908h-2.57zm-8.217 8.799h2.479c1.115 0 1.917-.632 1.917-1.534 0-.945-.802-1.605-1.917-1.605h-2.479zm19.867 2.308c-3.821 0-6.683-2.777-6.683-7.471 0-4.702 2.862-7.472 6.683-7.472 3.814 0 6.683 2.77 6.683 7.472 0 4.701-2.869 7.471-6.683 7.471zm0-12.578c-2.365 0-4.034 1.797-4.034 5.107 0 3.31 1.669 5.106 4.034 5.106 2.372 0 4.034-1.797 4.034-5.106 0-3.31-1.662-5.107-4.034-5.107zm11.539 5.86h4.226v-4.39h2.472v10.91h-2.472v-4.411h-4.226v4.41h-2.478V20.095h2.478zm8.532 4.403h.376c1.13 0 1.527-.902 1.648-3.963l.192-4.83h7.954v10.91h-2.485v-8.8h-3.133l-.17 3.515c-.17 3.637-1.229 5.284-3.572 5.284h-.796zm15.898 2.336c-2.081 0-3.65-1.136-3.65-3.28 0-2.458 2.024-3.09 4.14-3.318 1.925-.205 2.699-.241 2.699-.98v-.042c0-1.073-.653-1.683-1.846-1.683-1.257 0-1.982.639-2.238 1.384l-2.4-.34c.568-1.99 2.329-3.012 4.623-3.012 2.081 0 4.432.867 4.432 3.75v7.301h-2.471v-1.498h-.086c-.468.916-1.491 1.718-3.203 1.718zm3.196-4.133v-1.286c-.333.27-1.683.44-2.358.533-1.15.163-2.01.575-2.01 1.563 0 .944.767 1.434 1.84 1.434 1.548 0 2.528-1.03 2.528-2.244zm11.996-6.996h2.642v10.91h-2.486v-7.437l-4.353 7.436h-2.65V20.095h2.479v7.43zm1.222-3.75c0 1.662-1.286 2.784-3.331 2.784-2.032 0-3.317-1.122-3.31-2.784h1.911c0 .682.383 1.314 1.399 1.314 1.001 0 1.399-.618 1.406-1.314zm6.539 8.14h4.226v-4.39h2.472v10.91h-2.472v-4.411h-4.226v4.41h-2.479V20.095h2.479z"/></g><g><path fill="#fec50c" d="M0 24C0 10.745 10.745 0 24 0s24 10.745 24 24-10.745 24-24 24S0 37.255 0 24z"/></g><g><path fill="#fff" d="M27 40h-6V22h6zM12 18h9v4h-9zm15 4v-4h9v4zM12 12h24v4H12z"/></g></g></g></svg>